<?xml version="1.0" encoding="utf-8"?>
<!-- Generator: Adobe Illustrator 25.1.0, SVG Export Plug-In . SVG Version: 6.00 Build 0)  -->
<svg version="1.1" xmlns="http://www.w3.org/2000/svg" xmlns:xlink="http://www.w3.org/1999/xlink" x="0px" y="0px"
	 viewBox="0 0 1910.1 1910.1" style="enable-background:new 0 0 1910.1 1910.1;" xml:space="preserve">
<style type="text/css">
	.st0{display:none;}
	.st1{opacity:0.7;}
	.st2{display:inline;fill:#C7C9C5;}
	.st3{display:inline;fill:#999999;}
	.st4{display:inline;}
	.st5{opacity:8.000000e-02;fill:#C7C9C5;}
	.st6{fill:#999999;}
	.st7{display:inline;opacity:0.7;}
	.st8{fill:#C7C9C5;}
	.st9{fill:#AFD7D2;}
	.st10{fill:#E2EDC1;}
	.st11{display:none;opacity:0.7;}
	.st12{fill:#B0D5C7;}
	.st13{fill:#BFB1CF;}
	.st14{fill:#B7C7D0;}
	.st15{fill:#D5D7C9;}
	.st16{fill:#B1D7D2;}
	.st17{opacity:0.7;fill:#58595B;}
	.st18{font-family:'Calibri-Light';}
	.st19{font-size:123px;}
	.st20{enable-background:new    ;}
	.st21{fill:#58595B;}
	.st22{fill:none;}
	.st23{display:inline;opacity:0.7;fill:#58595B;}
	.st24{display:inline;fill:#58595B;}
	.st25{display:inline;fill:none;}
</style>
<g id="Background" class="st0">
	<g class="st1">
		<path class="st2" d="M955,1906.6c-128.5,0-253.1-25.2-370.4-74.8c-113.3-47.9-215.1-116.5-302.5-203.9
			c-87.4-87.4-156-189.2-203.9-302.5C28.7,1208.1,3.5,1083.5,3.5,955c0-128.5,25.2-253.1,74.8-370.4
			c47.9-113.3,116.5-215.1,203.9-302.5s189.2-156,302.5-203.9C702,28.7,826.6,3.5,955,3.5s253.1,25.2,370.4,74.8
			c113.3,47.9,215.1,116.5,302.5,203.9s156,189.2,203.9,302.5c49.6,117.3,74.8,241.9,74.8,370.4c0,128.5-25.2,253.1-74.8,370.4
			c-47.9,113.3-116.5,215.1-203.9,302.5c-87.4,87.4-189.2,156-302.5,203.9C1208.1,1881.4,1083.5,1906.6,955,1906.6z"/>
		<path class="st3" d="M955,7c64.3,0,128.6,6.5,191.1,19.3c60.9,12.5,120.7,31,177.9,55.2c56.2,23.8,110.4,53.2,161,87.4
			c50.2,33.9,97.4,72.9,140.3,115.8c42.9,42.9,81.9,90.1,115.8,140.3c34.2,50.7,63.6,104.9,87.4,161
			c24.2,57.2,42.8,117.1,55.2,177.9c12.8,62.5,19.3,126.7,19.3,191.1s-6.5,128.6-19.3,191.1c-12.5,60.9-31,120.7-55.2,177.9
			c-23.8,56.2-53.2,110.4-87.4,161c-33.9,50.2-72.9,97.4-115.8,140.3c-42.9,42.9-90.1,81.9-140.3,115.8
			c-50.7,34.2-104.9,63.6-161,87.4c-57.2,24.2-117.1,42.8-177.9,55.2c-62.5,12.8-126.7,19.3-191.1,19.3s-128.6-6.5-191.1-19.3
			c-60.9-12.5-120.7-31-177.9-55.2c-56.2-23.8-110.4-53.2-161-87.4c-50.2-33.9-97.4-72.9-140.3-115.8
			c-42.9-42.9-81.9-90.1-115.8-140.3c-34.2-50.7-63.6-104.9-87.4-161c-24.2-57.2-42.8-117.1-55.2-177.9C13.5,1083.7,7,1019.4,7,955
			S13.5,826.4,26.3,764c12.5-60.9,31-120.7,55.2-177.9c23.8-56.2,53.2-110.4,87.4-161c33.9-50.2,72.9-97.4,115.8-140.3
			c42.9-42.9,90.1-81.9,140.3-115.8c50.7-34.2,104.9-63.6,161-87.4C643.2,57.3,703.1,38.7,764,26.3C826.4,13.5,890.7,7,955,7 M955,0
			C427.6,0,0,427.6,0,955s427.6,955,955,955s955-427.6,955-955S1482.5,0,955,0L955,0z"/>
	</g>
	<g class="st4">
		<path class="st5" d="M955.8,1574.7c-84.2,0-165.9-16.5-242.8-49c-74.3-31.4-141-76.4-198.3-133.7
			c-57.3-57.3-102.3-124-133.7-198.3c-32.5-76.9-49-158.6-49-242.8s16.5-165.9,49-242.8c31.4-74.3,76.4-141,133.7-198.3
			c57.3-57.3,124-102.3,198.3-133.7c76.9-32.5,158.6-49,242.8-49s165.9,16.5,242.8,49c74.3,31.4,141,76.4,198.3,133.7
			c57.3,57.3,102.3,124,133.7,198.3c32.5,76.9,49,158.6,49,242.8s-16.5,165.9-49,242.8c-31.4,74.3-76.4,141-133.7,198.3
			s-124,102.3-198.3,133.7C1121.6,1558.2,1040,1574.7,955.8,1574.7z"/>
		<path class="st6" d="M955.8,330.7c83.7,0,165,16.4,241.4,48.7c36.8,15.5,72.2,34.8,105.4,57.2c32.8,22.2,63.7,47.7,91.8,75.7
			c28.1,28.1,53.6,59,75.7,91.8c22.4,33.2,41.6,68.6,57.2,105.4C1559.6,786,1576,867.2,1576,951s-16.4,165-48.7,241.4
			c-15.5,36.8-34.8,72.2-57.2,105.4c-22.2,32.8-47.7,63.7-75.7,91.8c-28.1,28.1-59,53.6-91.8,75.7c-33.2,22.4-68.6,41.6-105.4,57.2
			c-76.5,32.3-157.7,48.7-241.4,48.7s-165-16.4-241.4-48.7c-36.8-15.5-72.2-34.8-105.4-57.2c-32.8-22.2-63.7-47.7-91.8-75.7
			c-28.1-28.1-53.6-59-75.7-91.8c-22.4-33.2-41.6-68.6-57.2-105.4c-32.3-76.5-48.7-157.7-48.7-241.4s16.4-165,48.7-241.4
			c15.5-36.8,34.8-72.2,57.2-105.4c22.2-32.8,47.7-63.7,75.7-91.8c28.1-28.1,59-53.6,91.8-75.7c33.2-22.4,68.6-41.6,105.4-57.2
			C790.8,347.1,872,330.7,955.8,330.7 M955.8,323.7c-346.4,0-627.2,280.8-627.2,627.2s280.8,627.2,627.2,627.2S1583,1297.4,1583,951
			S1302.2,323.7,955.8,323.7L955.8,323.7z"/>
	</g>
	<g class="st7">
		<path class="st8" d="M343,1443.4c-3,0-5.5-2.5-5.5-5.5V326.2c0-3,2.5-5.5,5.5-5.5h1223c3,0,5.5,2.5,5.5,5.5v1111.7
			c0,3-2.5,5.5-5.5,5.5H343z"/>
		<path class="st8" d="M343,1443.4c-3,0-5.5-2.5-5.5-5.5V326.2c0-3,2.5-5.5,5.5-5.5h1223c3,0,5.5,2.5,5.5,5.5v1111.7
			c0,3-2.5,5.5-5.5,5.5H343z"/>
		<path class="st6" d="M1566,324.2c1.1,0,2,0.9,2,2v1111.7c0,1.1-0.9,2-2,2H343c-1.1,0-2-0.9-2-2V326.2c0-1.1,0.9-2,2-2H1566
			 M1566,317.2H343c-5,0-9,4-9,9v1111.7c0,5,4,9,9,9h1223c5,0,9-4,9-9V326.2C1575,321.2,1570.9,317.2,1566,317.2L1566,317.2z"/>
	</g>
</g>
<g id="Logo" class="st0">
	<g class="st4">
		<g>
			<g>
				<path class="st9" d="M1295.6,766.9c-12.2,136.2-102.9,249.8-226.5,295.3c0.9,8.9,1.5,17.9,1.8,27c0,0.1,0,0.1,0,0.2
					c0,1.4,0.1,2.7,0.1,4.1c0,0.2,0,0.4,0,0.5c0,1.5,0,3,0,4.6c0,1.6,0,3.1,0,4.6c0,0.5,0,1,0,1.5c0,1,0,2.1-0.1,3.1
					c0,0.6,0,1.2-0.1,1.8c0,0.9-0.1,1.9-0.1,2.8c0,0.6-0.1,1.3-0.1,1.9c0,0.9-0.1,1.8-0.1,2.7c0,0.7-0.1,1.3-0.1,2
					c0,0.9-0.1,1.7-0.2,2.6c0,0.7-0.1,1.4-0.1,2c-0.1,0.8-0.1,1.7-0.2,2.5c-0.1,0.7-0.1,1.4-0.2,2c-0.1,0.8-0.1,1.7-0.2,2.5
					c-0.1,0.7-0.1,1.4-0.2,2c-0.1,0.8-0.2,1.7-0.3,2.5c-0.1,0.7-0.1,1.4-0.2,2c-0.1,0.8-0.2,1.7-0.3,2.5c-0.1,0.7-0.2,1.3-0.2,2
					c-0.1,0.8-0.2,1.7-0.3,2.5c-0.1,0.7-0.2,1.3-0.3,2c-0.1,0.8-0.2,1.7-0.4,2.5c-0.1,0.6-0.2,1.3-0.3,1.9c-0.1,0.9-0.3,1.7-0.4,2.6
					c-0.1,0.6-0.2,1.2-0.3,1.9c-0.1,0.9-0.3,1.8-0.5,2.7c-0.1,0.6-0.2,1.2-0.3,1.7c-0.2,1-0.4,1.9-0.5,2.9c-0.1,0.5-0.2,1-0.3,1.5
					c-0.2,1.2-0.5,2.4-0.7,3.6c-0.1,0.3-0.1,0.6-0.2,0.8c-0.3,1.5-0.6,3-0.9,4.4c0,0.2-0.1,0.4-0.1,0.6c-0.3,1.3-0.6,2.5-0.9,3.8
					c-0.1,0.4-0.2,0.9-0.3,1.3c-0.2,1-0.5,2-0.7,3c-0.1,0.5-0.3,1-0.4,1.6c-0.2,0.9-0.5,1.8-0.7,2.8c-0.1,0.6-0.3,1.1-0.4,1.7
					c-0.2,0.9-0.5,1.8-0.7,2.6c-0.2,0.6-0.3,1.1-0.5,1.7c-0.2,0.9-0.5,1.7-0.7,2.6c-0.2,0.6-0.3,1.2-0.5,1.7
					c-0.2,0.8-0.5,1.7-0.7,2.5c-0.2,0.6-0.4,1.2-0.5,1.7c-0.3,0.8-0.5,1.7-0.8,2.5c-0.2,0.6-0.4,1.2-0.6,1.7
					c-0.3,0.8-0.5,1.7-0.8,2.5c-0.2,0.6-0.4,1.1-0.6,1.7c-0.3,0.8-0.6,1.7-0.9,2.5c-0.2,0.6-0.4,1.1-0.6,1.7
					c-0.3,0.9-0.6,1.7-0.9,2.6c-0.2,0.5-0.4,1.1-0.6,1.6c-0.3,0.9-0.6,1.8-1,2.6c-0.2,0.5-0.4,1-0.6,1.5c-0.3,0.9-0.7,1.8-1.1,2.8
					c-0.2,0.4-0.3,0.9-0.5,1.3c-0.4,1-0.8,2-1.2,3c-0.1,0.4-0.3,0.7-0.4,1.1c-0.5,1.2-1,2.3-1.5,3.5c-0.1,0.2-0.1,0.4-0.2,0.5
					c-1.2,2.7-2.4,5.5-3.6,8.2c0,0.1-0.1,0.1-0.1,0.2c-0.6,1.3-1.2,2.5-1.7,3.8c-0.1,0.3-0.3,0.6-0.4,0.8c-0.5,1-1,2.1-1.5,3.1
					c-0.2,0.4-0.4,0.7-0.5,1.1c-0.5,0.9-0.9,1.9-1.4,2.8c-0.2,0.4-0.4,0.8-0.6,1.2c-0.5,0.9-0.9,1.8-1.4,2.7
					c-0.2,0.4-0.4,0.9-0.7,1.3c-0.5,0.9-0.9,1.7-1.4,2.6c-0.2,0.4-0.5,0.9-0.7,1.3c-0.5,0.9-0.9,1.7-1.4,2.6
					c-0.2,0.4-0.5,0.9-0.7,1.3c-0.5,0.8-0.9,1.7-1.4,2.5c-0.2,0.4-0.5,0.9-0.7,1.3c-0.5,0.8-1,1.7-1.5,2.5c-0.2,0.4-0.5,0.8-0.7,1.2
					c-0.5,0.9-1,1.7-1.5,2.6c-0.2,0.4-0.5,0.8-0.7,1.2c-0.5,0.9-1.1,1.7-1.6,2.6c-0.2,0.4-0.4,0.7-0.7,1.1c-0.6,0.9-1.1,1.8-1.7,2.7
					c-0.2,0.3-0.4,0.6-0.6,1c-0.6,1-1.3,2-1.9,2.9c-0.2,0.2-0.3,0.5-0.5,0.7c-0.7,1.1-1.5,2.2-2.2,3.4c-0.1,0.1-0.1,0.2-0.2,0.2
					c-3.3,4.9-6.7,9.7-10.2,14.4c-0.1,0.2-0.2,0.3-0.4,0.5c-0.8,1-1.5,2-2.3,3c-0.2,0.2-0.4,0.5-0.5,0.7c-0.7,0.9-1.4,1.8-2.1,2.7
					c-0.2,0.3-0.4,0.6-0.7,0.8c-0.7,0.9-1.4,1.7-2.1,2.6c-0.2,0.3-0.5,0.6-0.7,0.9c-0.7,0.8-1.4,1.7-2,2.5c-0.3,0.3-0.5,0.6-0.8,0.9
					c-0.7,0.8-1.4,1.6-2,2.4c-0.3,0.3-0.5,0.6-0.8,0.9c-0.7,0.8-1.4,1.6-2.1,2.4c-0.3,0.3-0.5,0.6-0.8,0.9c-0.7,0.8-1.4,1.6-2.1,2.4
					c-0.3,0.3-0.5,0.6-0.8,0.9c-0.7,0.8-1.5,1.6-2.2,2.4c-0.2,0.3-0.5,0.5-0.7,0.8c-0.8,0.8-1.5,1.7-2.3,2.5
					c-0.2,0.2-0.4,0.5-0.6,0.7c-0.8,0.9-1.7,1.7-2.5,2.6c-0.2,0.2-0.3,0.3-0.5,0.5c-0.9,1-1.9,1.9-2.8,2.9c-0.1,0.1-0.1,0.1-0.2,0.2
					c-4.2,4.2-8.4,8.3-12.8,12.2l0,0c61.7,55.9,143.6,90,233.5,90c192.1,0,347.9-155.8,347.9-347.9
					C1538.1,943.1,1436.2,811.5,1295.6,766.9z"/>
			</g>
		</g>
		<g>
			<g>
				<path class="st10" d="M956.2,842.4c61.7-56,143.7-90.1,233.6-90.1c36.8,0,72.2,5.7,105.4,16.3c0.9-10.3,1.4-20.8,1.4-31.3
					c0-192.1-155.8-347.9-347.9-347.9s-348,155.8-348,347.9c0,12.3,0.6,24.4,1.9,36.4c37.4-13.8,77.8-21.3,120-21.3
					C812.5,752.4,894.4,786.5,956.2,842.4z"/>
			</g>
		</g>
		<g class="st11">
			<g class="st4">
				<path class="st12" d="M956.1,840.5c1.9,1.7,3.7,3.4,5.6,5.2c0.1,0.1,0.2,0.2,0.3,0.3c1.8,1.7,3.5,3.4,5.3,5.1
					c0.1,0.1,0.3,0.3,0.4,0.4c1.7,1.7,3.4,3.4,5.1,5.2c0.1,0.1,0.3,0.3,0.4,0.4c1.7,1.8,3.4,3.5,5,5.3c0.1,0.1,0.2,0.3,0.4,0.4
					c1.7,1.8,3.3,3.7,5,5.5c0.1,0.1,0.1,0.1,0.2,0.2c3.4,3.9,6.7,7.8,10,11.8c3.2,4,6.4,8.1,9.4,12.3c0.1,0.1,0.1,0.1,0.2,0.2
					c1.5,2,2.9,4.1,4.4,6.1c0.1,0.1,0.2,0.2,0.2,0.3c1.4,2,2.8,4.1,4.2,6.2c0.1,0.1,0.2,0.2,0.2,0.4c1.4,2.1,2.8,4.2,4.1,6.3
					c0.1,0.1,0.1,0.2,0.2,0.3c1.4,2.2,2.7,4.3,4,6.5l0,0c2.7,4.5,5.3,9,7.8,13.6s4.9,9.3,7.2,14l0,0c1.1,2.3,2.3,4.7,3.3,7.1
					c0,0,0,0.1,0.1,0.1c1.1,2.4,2.1,4.7,3.2,7.1c0,0,0,0.1,0.1,0.1c1,2.4,2,4.8,3,7.3l0,0c11.9,29.5,19.9,61,23.3,93.8
					c123.6-45.4,214.3-159.1,226.5-295.3c-33.3-10.6-68.7-16.3-105.4-16.3C1099.7,750.4,1017.8,784.5,956.1,840.5z"/>
			</g>
		</g>
		<g>
			<g>
				<path class="st13" d="M944.2,1344.6c-1-1-2-2-3-3.1c-0.1-0.1-0.3-0.3-0.4-0.4c-0.9-0.9-1.8-1.8-2.6-2.7
					c-0.2-0.2-0.4-0.4-0.6-0.6c-0.8-0.9-1.6-1.7-2.4-2.6c-0.2-0.2-0.4-0.5-0.7-0.7c-0.8-0.8-1.5-1.7-2.3-2.5
					c-0.2-0.3-0.5-0.5-0.7-0.8c-0.7-0.8-1.5-1.6-2.2-2.5c-0.2-0.3-0.5-0.6-0.7-0.8c-0.7-0.8-1.4-1.6-2.1-2.4
					c-0.3-0.3-0.5-0.6-0.7-0.9c-0.7-0.8-1.4-1.6-2.1-2.5c-0.2-0.3-0.5-0.6-0.7-0.9c-0.7-0.8-1.4-1.7-2.1-2.5
					c-0.2-0.3-0.5-0.6-0.7-0.8c-0.7-0.9-1.4-1.7-2.1-2.6c-0.2-0.3-0.4-0.5-0.6-0.8c-0.7-0.9-1.4-1.8-2.2-2.8
					c-0.2-0.2-0.3-0.4-0.5-0.7c-0.8-1-1.5-2-2.3-3c-0.1-0.1-0.2-0.3-0.3-0.4c-3.5-4.7-7-9.5-10.3-14.4l0,0c-0.8-1.2-1.6-2.4-2.4-3.6
					c-0.1-0.2-0.3-0.4-0.4-0.6c-0.7-1-1.3-2-2-3c-0.2-0.3-0.4-0.6-0.6-0.9c-0.6-0.9-1.2-1.9-1.8-2.8c-0.2-0.3-0.4-0.7-0.6-1
					c-0.5-0.9-1.1-1.8-1.6-2.7c-0.2-0.4-0.5-0.8-0.7-1.1c-0.5-0.9-1-1.7-1.5-2.6c-0.2-0.4-0.5-0.8-0.7-1.2c-0.5-0.9-1-1.7-1.5-2.6
					c-0.2-0.4-0.5-0.8-0.7-1.2c-0.5-0.9-1-1.7-1.4-2.6c-0.2-0.4-0.5-0.8-0.7-1.3c-0.5-0.9-0.9-1.7-1.4-2.6c-0.2-0.4-0.5-0.8-0.7-1.3
					c-0.5-0.9-0.9-1.8-1.4-2.6c-0.2-0.4-0.4-0.8-0.6-1.2c-0.5-0.9-0.9-1.8-1.4-2.7c-0.2-0.4-0.4-0.8-0.6-1.2c-0.5-1-0.9-1.9-1.4-2.9
					c-0.2-0.4-0.4-0.7-0.5-1.1c-0.5-1-1-2.1-1.5-3.1c-0.1-0.3-0.3-0.6-0.4-0.8c-0.6-1.2-1.2-2.5-1.7-3.8c0-0.1-0.1-0.1-0.1-0.2
					c-1.2-2.7-2.4-5.4-3.6-8.2c-0.1-0.1-0.1-0.2-0.2-0.4c-0.5-1.2-1-2.4-1.5-3.7c-0.1-0.3-0.3-0.7-0.4-1c-0.4-1-0.8-2-1.2-3
					c-0.2-0.4-0.3-0.9-0.5-1.3c-0.4-0.9-0.7-1.9-1.1-2.8c-0.2-0.5-0.4-1-0.5-1.5c-0.3-0.9-0.7-1.8-1-2.7c-0.2-0.5-0.4-1-0.6-1.6
					c-0.3-0.9-0.6-1.7-0.9-2.6c-0.2-0.5-0.4-1.1-0.6-1.6c-0.3-0.8-0.6-1.7-0.9-2.5c-0.2-0.6-0.4-1.1-0.6-1.7
					c-0.3-0.8-0.5-1.7-0.8-2.5c-0.2-0.6-0.4-1.1-0.5-1.7c-0.3-0.8-0.5-1.7-0.8-2.5c-0.2-0.6-0.4-1.2-0.5-1.7
					c-0.3-0.8-0.5-1.7-0.8-2.5c-0.2-0.6-0.3-1.2-0.5-1.7c-0.2-0.9-0.5-1.7-0.7-2.6c-0.2-0.6-0.3-1.1-0.5-1.7
					c-0.2-0.9-0.5-1.8-0.7-2.6c-0.1-0.6-0.3-1.1-0.4-1.7c-0.2-0.9-0.5-1.8-0.7-2.8c-0.1-0.5-0.3-1-0.4-1.6c-0.2-1-0.5-2-0.7-3
					c-0.1-0.4-0.2-0.9-0.3-1.3c-0.3-1.3-0.6-2.5-0.9-3.8c0-0.2-0.1-0.4-0.1-0.6c-0.3-1.5-0.6-3-0.9-4.4c0-0.2-0.1-0.5-0.1-0.7
					c-0.2-1.2-0.5-2.4-0.7-3.7c-0.1-0.5-0.2-1-0.3-1.5c-0.2-1-0.4-2-0.5-3c-0.1-0.6-0.2-1.1-0.3-1.7c-0.2-0.9-0.3-1.8-0.5-2.7
					c-0.1-0.6-0.2-1.2-0.3-1.8c-0.1-0.9-0.3-1.7-0.4-2.6c-0.1-0.6-0.2-1.3-0.3-1.9c-0.1-0.8-0.2-1.7-0.4-2.6c-0.1-0.7-0.2-1.3-0.3-2
					c-0.1-0.8-0.2-1.7-0.3-2.5c-0.1-0.7-0.2-1.3-0.2-2c-0.1-0.8-0.2-1.7-0.3-2.5c-0.1-0.7-0.1-1.3-0.2-2c-0.1-0.8-0.2-1.7-0.3-2.5
					c-0.1-0.7-0.1-1.4-0.2-2c-0.1-0.8-0.2-1.7-0.2-2.5c-0.1-0.7-0.1-1.4-0.2-2c-0.1-0.8-0.1-1.7-0.2-2.5c0-0.7-0.1-1.4-0.1-2
					c-0.1-0.9-0.1-1.7-0.2-2.6c0-0.7-0.1-1.3-0.1-2c0-0.9-0.1-1.8-0.1-2.7c0-0.6-0.1-1.3-0.1-1.9c0-0.9-0.1-1.9-0.1-2.8
					c0-0.6,0-1.2-0.1-1.8c0-1,0-2.1-0.1-3.1c0-0.5,0-1,0-1.5c0-1.5,0-3.1,0-4.6c0-2.5,0-4.9,0.1-7.4c0-0.3,0-0.5,0-0.8
					c0.1-2.4,0.1-4.9,0.2-7.3c0-0.2,0-0.4,0-0.6c0.2-5.1,0.6-10.2,1-15.3c-129.5-41.1-226.1-156-240.6-295.3
					c-133,48.9-227.9,176.7-227.9,326.6c0,192.1,155.8,347.9,347.9,347.9c89.9,0,171.8-34.1,233.6-90.1
					C952.7,1352.9,948.4,1348.8,944.2,1344.6L944.2,1344.6z"/>
			</g>
		</g>
		<g>
			<g>
				<path class="st14" d="M969,1344.2c0.1-0.1,0.1-0.1,0.2-0.2c0.9-1,1.9-1.9,2.8-2.9c0.2-0.2,0.3-0.3,0.5-0.5
					c0.8-0.9,1.7-1.7,2.5-2.6c0.2-0.2,0.4-0.5,0.6-0.7c0.8-0.8,1.6-1.7,2.3-2.5c0.2-0.3,0.5-0.5,0.7-0.8c0.7-0.8,1.5-1.6,2.2-2.4
					c0.3-0.3,0.5-0.6,0.8-0.9c0.7-0.8,1.4-1.6,2.1-2.4c0.3-0.3,0.5-0.6,0.8-0.9c0.7-0.8,1.4-1.6,2.1-2.4c0.3-0.3,0.5-0.6,0.8-0.9
					c0.7-0.8,1.4-1.6,2-2.4c0.3-0.3,0.5-0.6,0.8-0.9c0.7-0.8,1.4-1.6,2-2.5c0.2-0.3,0.5-0.6,0.7-0.9c0.7-0.9,1.4-1.7,2.1-2.6
					c0.2-0.3,0.4-0.6,0.7-0.8c0.7-0.9,1.4-1.8,2.1-2.7c0.2-0.2,0.4-0.5,0.5-0.7c0.8-1,1.5-2,2.3-3c0.1-0.2,0.2-0.3,0.4-0.5
					c3.5-4.7,6.9-9.5,10.2-14.4c0.1-0.1,0.1-0.2,0.2-0.2c0.8-1.1,1.5-2.2,2.2-3.4c0.2-0.2,0.3-0.5,0.5-0.7c0.6-1,1.3-2,1.9-2.9
					c0.2-0.3,0.4-0.6,0.6-1c0.6-0.9,1.1-1.8,1.7-2.7c0.2-0.4,0.5-0.7,0.7-1.1c0.5-0.9,1.1-1.7,1.6-2.6c0.2-0.4,0.5-0.8,0.7-1.2
					c0.5-0.9,1-1.7,1.5-2.6c0.2-0.4,0.5-0.8,0.7-1.2c0.5-0.8,1-1.7,1.5-2.5c0.2-0.4,0.5-0.9,0.7-1.3c0.5-0.8,0.9-1.7,1.4-2.5
					c0.2-0.4,0.5-0.9,0.7-1.3c0.5-0.8,0.9-1.7,1.4-2.6c0.2-0.4,0.5-0.9,0.7-1.3c0.5-0.9,0.9-1.7,1.4-2.6c0.2-0.4,0.4-0.9,0.7-1.3
					c0.5-0.9,0.9-1.8,1.4-2.7c0.2-0.4,0.4-0.8,0.6-1.2c0.5-0.9,0.9-1.9,1.4-2.8c0.2-0.4,0.4-0.7,0.5-1.1c0.5-1,1-2.1,1.5-3.1
					c0.1-0.3,0.3-0.6,0.4-0.8c0.6-1.3,1.2-2.5,1.7-3.8c0-0.1,0.1-0.1,0.1-0.2c1.2-2.7,2.4-5.4,3.6-8.2c0.1-0.2,0.1-0.4,0.2-0.5
					c0.5-1.2,1-2.3,1.5-3.5c0.1-0.4,0.3-0.7,0.4-1.1c0.4-1,0.8-2,1.2-3c0.2-0.4,0.3-0.9,0.5-1.3c0.4-0.9,0.7-1.8,1.1-2.8
					c0.2-0.5,0.4-1,0.6-1.5c0.3-0.9,0.7-1.8,1-2.6c0.2-0.5,0.4-1.1,0.6-1.6c0.3-0.8,0.6-1.7,0.9-2.6c0.2-0.6,0.4-1.1,0.6-1.7
					c0.3-0.8,0.6-1.7,0.9-2.5c0.2-0.6,0.4-1.1,0.6-1.7c0.3-0.8,0.5-1.7,0.8-2.5c0.2-0.6,0.4-1.2,0.6-1.7c0.3-0.8,0.5-1.7,0.8-2.5
					c0.2-0.6,0.4-1.2,0.5-1.7c0.3-0.8,0.5-1.7,0.7-2.5c0.2-0.6,0.3-1.2,0.5-1.7c0.2-0.9,0.5-1.7,0.7-2.6c0.2-0.6,0.3-1.1,0.5-1.7
					c0.2-0.9,0.5-1.7,0.7-2.6c0.1-0.6,0.3-1.1,0.4-1.7c0.2-0.9,0.5-1.8,0.7-2.8c0.1-0.5,0.3-1,0.4-1.6c0.2-1,0.5-2,0.7-3
					c0.1-0.4,0.2-0.9,0.3-1.3c0.3-1.3,0.6-2.5,0.9-3.8c0-0.2,0.1-0.4,0.1-0.6c0.3-1.5,0.6-2.9,0.9-4.4c0.1-0.3,0.1-0.6,0.2-0.8
					c0.2-1.2,0.5-2.4,0.7-3.6c0.1-0.5,0.2-1,0.3-1.5c0.2-1,0.4-1.9,0.5-2.9c0.1-0.6,0.2-1.2,0.3-1.7c0.2-0.9,0.3-1.8,0.5-2.7
					c0.1-0.6,0.2-1.2,0.3-1.9c0.1-0.9,0.3-1.7,0.4-2.6c0.1-0.6,0.2-1.3,0.3-1.9c0.1-0.8,0.2-1.7,0.4-2.5c0.1-0.7,0.2-1.3,0.3-2
					c0.1-0.8,0.2-1.7,0.3-2.5c0.1-0.7,0.2-1.3,0.2-2c0.1-0.8,0.2-1.7,0.3-2.5c0.1-0.7,0.1-1.4,0.2-2c0.1-0.8,0.2-1.7,0.3-2.5
					c0.1-0.7,0.1-1.4,0.2-2c0.1-0.8,0.2-1.7,0.2-2.5c0.1-0.7,0.1-1.4,0.2-2c0.1-0.8,0.1-1.7,0.2-2.5c0-0.7,0.1-1.4,0.1-2
					c0.1-0.9,0.1-1.7,0.2-2.6c0-0.7,0.1-1.3,0.1-2c0-0.9,0.1-1.8,0.1-2.7c0-0.6,0.1-1.3,0.1-1.9c0-0.9,0.1-1.9,0.1-2.8
					c0-0.6,0-1.2,0.1-1.8c0-1,0-2.1,0.1-3.1c0-0.5,0-1,0-1.5c0-1.5,0-3.1,0-4.6s0-3.1,0-4.6c0-0.2,0-0.4,0-0.5c0-1.4,0-2.7-0.1-4.1
					c0-0.1,0-0.1,0-0.2c-0.2-9.1-0.8-18.1-1.8-27c-23.3,8.6-47.8,14.7-73.2,18.1c-0.1,0-0.2,0-0.4,0c-2.5,0.3-4.9,0.6-7.4,0.9
					c-0.1,0-0.2,0-0.2,0c-4.9,0.5-9.8,1-14.8,1.3c-0.3,0-0.5,0-0.8,0.1c-2.3,0.2-4.6,0.3-6.9,0.4c-0.4,0-0.8,0-1.1,0.1
					c-2.3,0.1-4.6,0.2-6.9,0.2c-0.3,0-0.7,0-1,0c-2.4,0-4.8,0.1-7.2,0.1c-2,0-4.1,0-6.1-0.1c-0.5,0-1,0-1.4,0c-2,0-4.1-0.1-6.1-0.2
					c-0.1,0-0.3,0-0.4,0c-1.9-0.1-3.9-0.2-5.8-0.3c-0.4,0-0.8,0-1.3-0.1c-2-0.1-4.1-0.3-6.1-0.4c-0.2,0-0.3,0-0.5,0
					c-2-0.2-3.9-0.3-5.8-0.5c-0.3,0-0.6-0.1-0.9-0.1c-2.1-0.2-4.2-0.4-6.2-0.7c-0.1,0-0.2,0-0.3,0c-2-0.2-4.1-0.5-6.1-0.8
					c-0.2,0-0.3,0-0.5-0.1c-2.1-0.3-4.3-0.6-6.4-0.9h-0.1c-17.6-2.7-34.7-6.8-51.3-12.1c-0.5,5.1-0.8,10.2-1,15.3c0,0.2,0,0.4,0,0.6
					c-0.1,2.4-0.2,4.8-0.2,7.3c0,0.3,0,0.5,0,0.8c-0.1,2.5-0.1,4.9-0.1,7.4c0,1.6,0,3.1,0,4.6c0,0.5,0,1,0,1.5c0,1,0,2.1,0.1,3.1
					c0,0.6,0,1.2,0.1,1.8c0,0.9,0.1,1.9,0.1,2.8c0,0.6,0.1,1.3,0.1,1.9c0,0.9,0.1,1.8,0.1,2.7c0,0.7,0.1,1.3,0.1,2
					c0.1,0.9,0.1,1.7,0.2,2.6c0,0.7,0.1,1.4,0.1,2c0.1,0.8,0.1,1.7,0.2,2.5c0.1,0.7,0.1,1.4,0.2,2c0.1,0.8,0.1,1.7,0.2,2.5
					c0.1,0.7,0.1,1.4,0.2,2c0.1,0.8,0.2,1.7,0.3,2.5c0.1,0.7,0.1,1.3,0.2,2c0.1,0.8,0.2,1.7,0.3,2.5c0.1,0.7,0.2,1.3,0.2,2
					c0.1,0.8,0.2,1.7,0.3,2.5c0.1,0.7,0.2,1.3,0.3,2c0.1,0.9,0.2,1.7,0.4,2.6c0.1,0.6,0.2,1.3,0.3,1.9c0.1,0.9,0.3,1.7,0.4,2.6
					c0.1,0.6,0.2,1.2,0.3,1.8c0.1,0.9,0.3,1.8,0.5,2.7c0.1,0.6,0.2,1.1,0.3,1.7c0.2,1,0.4,2,0.5,3c0.1,0.5,0.2,1,0.3,1.5
					c0.2,1.2,0.5,2.4,0.7,3.7c0,0.2,0.1,0.5,0.1,0.7c0.3,1.5,0.6,3,0.9,4.4c0,0.2,0.1,0.4,0.1,0.6c0.3,1.3,0.6,2.5,0.9,3.8
					c0.1,0.4,0.2,0.9,0.3,1.3c0.2,1,0.5,2,0.7,3c0.1,0.5,0.3,1,0.4,1.6c0.2,0.9,0.5,1.8,0.7,2.8c0.1,0.6,0.3,1.1,0.4,1.7
					c0.2,0.9,0.5,1.8,0.7,2.6c0.2,0.6,0.3,1.1,0.5,1.7c0.2,0.9,0.5,1.7,0.7,2.6c0.2,0.6,0.3,1.2,0.5,1.7c0.2,0.8,0.5,1.7,0.8,2.5
					c0.2,0.6,0.4,1.2,0.5,1.7c0.3,0.8,0.5,1.7,0.8,2.5c0.2,0.6,0.4,1.1,0.5,1.7c0.3,0.8,0.5,1.7,0.8,2.5c0.2,0.6,0.4,1.1,0.6,1.7
					c0.3,0.8,0.6,1.7,0.9,2.5c0.2,0.5,0.4,1.1,0.6,1.6c0.3,0.9,0.6,1.7,0.9,2.6c0.2,0.5,0.4,1,0.6,1.6c0.3,0.9,0.7,1.8,1,2.7
					c0.2,0.5,0.4,1,0.5,1.5c0.4,0.9,0.7,1.9,1.1,2.8c0.2,0.4,0.3,0.9,0.5,1.3c0.4,1,0.8,2,1.2,3c0.1,0.3,0.3,0.7,0.4,1
					c0.5,1.2,1,2.5,1.5,3.7c0.1,0.1,0.1,0.2,0.2,0.4c1.2,2.8,2.4,5.5,3.6,8.2c0,0.1,0.1,0.1,0.1,0.2c0.6,1.3,1.1,2.5,1.7,3.8
					c0.1,0.3,0.3,0.6,0.4,0.8c0.5,1,1,2.1,1.5,3.1c0.2,0.4,0.3,0.7,0.5,1.1c0.5,1,0.9,1.9,1.4,2.9c0.2,0.4,0.4,0.8,0.6,1.2
					c0.5,0.9,0.9,1.8,1.4,2.7c0.2,0.4,0.4,0.8,0.6,1.2c0.5,0.9,0.9,1.8,1.4,2.6c0.2,0.4,0.4,0.8,0.7,1.3c0.5,0.9,0.9,1.7,1.4,2.6
					c0.2,0.4,0.5,0.8,0.7,1.3c0.5,0.9,1,1.7,1.4,2.6c0.2,0.4,0.5,0.8,0.7,1.2c0.5,0.9,1,1.7,1.5,2.6c0.2,0.4,0.5,0.8,0.7,1.2
					c0.5,0.9,1,1.7,1.5,2.6c0.2,0.4,0.5,0.8,0.7,1.1c0.5,0.9,1.1,1.8,1.6,2.7c0.2,0.3,0.4,0.7,0.6,1c0.6,0.9,1.2,1.9,1.8,2.8
					c0.2,0.3,0.4,0.6,0.6,0.9c0.6,1,1.3,2,2,3c0.1,0.2,0.3,0.4,0.4,0.6c0.8,1.2,1.6,2.4,2.4,3.6l0,0c3.3,4.9,6.7,9.7,10.3,14.4
					c0.1,0.1,0.2,0.3,0.3,0.4c0.8,1,1.5,2,2.3,3c0.2,0.2,0.3,0.4,0.5,0.7c0.7,0.9,1.4,1.9,2.2,2.8c0.2,0.3,0.4,0.5,0.6,0.8
					c0.7,0.9,1.4,1.8,2.1,2.6c0.2,0.3,0.5,0.6,0.7,0.8c0.7,0.8,1.4,1.7,2.1,2.5c0.2,0.3,0.5,0.6,0.7,0.9c0.7,0.8,1.4,1.7,2.1,2.5
					c0.2,0.3,0.5,0.6,0.7,0.9c0.7,0.8,1.4,1.6,2.1,2.4c0.2,0.3,0.5,0.6,0.7,0.8c0.7,0.8,1.4,1.6,2.2,2.5c0.2,0.3,0.5,0.5,0.7,0.8
					c0.8,0.8,1.5,1.7,2.3,2.5c0.2,0.2,0.4,0.5,0.7,0.7c0.8,0.9,1.6,1.7,2.4,2.6c0.2,0.2,0.4,0.4,0.6,0.6c0.9,0.9,1.7,1.8,2.6,2.7
					c0.1,0.1,0.3,0.3,0.4,0.4c1,1,2,2,3,3.1l0,0c4.2,4.2,8.5,8.3,12.9,12.3l0,0C960.6,1352.4,964.8,1348.4,969,1344.2z"/>
			</g>
		</g>
		<g class="st1">
			<g>
				<path class="st15" d="M843.1,1068.4c3.7-42,15-81.8,32.3-118.2c0,0,0,0,0-0.1c1.1-2.4,2.3-4.8,3.5-7.1c0-0.1,0.1-0.1,0.1-0.2
					c1.2-2.3,2.4-4.6,3.6-6.9c0-0.1,0.1-0.2,0.1-0.2c1.2-2.3,2.5-4.6,3.7-6.8c0-0.1,0.1-0.1,0.1-0.2c1.3-2.3,2.6-4.5,3.9-6.8
					l0.1-0.1c1.4-2.3,2.7-4.5,4.1-6.7l0,0c3.3-5.3,6.8-10.6,10.5-15.7c4-5.7,8.2-11.3,12.5-16.7c0.1-0.1,0.1-0.1,0.2-0.2
					c1.6-2,3.2-3.9,4.8-5.9c0.1-0.1,0.2-0.2,0.3-0.4c1.6-1.9,3.2-3.8,4.9-5.7c0.1-0.1,0.3-0.3,0.4-0.4c1.6-1.9,3.3-3.7,4.9-5.5
					c0.1-0.2,0.3-0.3,0.4-0.5c1.7-1.8,3.4-3.6,5.1-5.4c0.1-0.1,0.3-0.3,0.4-0.4c1.7-1.8,3.5-3.6,5.2-5.3c0.1-0.1,0.2-0.2,0.3-0.3
					c1.8-1.8,3.6-3.5,5.4-5.3c0.1-0.1,0.1-0.1,0.2-0.2c1.9-1.8,3.8-3.5,5.7-5.3l0,0c-61.7-55.9-143.6-90-233.5-90
					c-42.2,0-82.6,7.5-120,21.3C617,912.4,713.6,1027.3,843.1,1068.4z"/>
			</g>
		</g>
		<g class="st11">
			<g class="st4">
				<path class="st16" d="M1045.4,968.2L1045.4,968.2c-1-2.4-2-4.9-3-7.3c0,0,0-0.1-0.1-0.1c-1-2.4-2.1-4.8-3.2-7.1
					c0,0,0-0.1-0.1-0.1c-1.1-2.4-2.2-4.7-3.3-7.1l0,0c-2.3-4.7-4.7-9.4-7.2-14s-5.1-9.2-7.8-13.6l0,0c-1.3-2.2-2.7-4.4-4-6.5
					c-0.1-0.1-0.1-0.2-0.2-0.3c-1.3-2.1-2.7-4.2-4.1-6.3c-0.1-0.1-0.2-0.2-0.2-0.4c-1.4-2.1-2.8-4.1-4.2-6.2
					c-0.1-0.1-0.2-0.2-0.2-0.3c-1.4-2.1-2.9-4.1-4.4-6.1c-0.1-0.1-0.1-0.1-0.2-0.2c-3.1-4.2-6.2-8.3-9.4-12.3c-3.2-4-6.6-8-10-11.8
					c-0.1-0.1-0.1-0.1-0.2-0.2c-1.6-1.9-3.3-3.7-5-5.5c-0.1-0.1-0.2-0.3-0.4-0.4c-1.6-1.8-3.3-3.6-5-5.3c-0.1-0.1-0.3-0.3-0.4-0.4
					c-1.7-1.7-3.4-3.5-5.1-5.2c-0.1-0.1-0.3-0.3-0.4-0.4c-1.7-1.7-3.5-3.4-5.3-5.1c-0.1-0.1-0.2-0.2-0.3-0.3
					c-1.8-1.7-3.7-3.5-5.6-5.2l0,0c-1.9,1.7-3.8,3.5-5.7,5.3c-0.1,0.1-0.1,0.1-0.2,0.2c-1.8,1.7-3.6,3.5-5.4,5.3
					c-0.1,0.1-0.2,0.2-0.3,0.3c-1.8,1.8-3.5,3.5-5.2,5.3c-0.1,0.1-0.3,0.3-0.4,0.4c-1.7,1.8-3.4,3.6-5.1,5.4
					c-0.1,0.2-0.3,0.3-0.4,0.5c-1.7,1.8-3.3,3.7-4.9,5.5c-0.1,0.1-0.3,0.3-0.4,0.4c-1.6,1.9-3.3,3.8-4.9,5.7
					c-0.1,0.1-0.2,0.2-0.3,0.4c-1.6,1.9-3.2,3.9-4.8,5.9c-0.1,0.1-0.1,0.1-0.2,0.2c-4.3,5.4-8.5,11-12.5,16.7
					c-3.6,5.1-7.1,10.4-10.5,15.7l0,0c-1.4,2.2-2.8,4.5-4.1,6.7l-0.1,0.1c-1.3,2.2-2.6,4.5-3.9,6.8c0,0.1-0.1,0.1-0.1,0.2
					c-1.3,2.3-2.5,4.5-3.7,6.8c0,0.1-0.1,0.2-0.1,0.2c-1.2,2.3-2.4,4.6-3.6,6.9c0,0.1-0.1,0.1-0.1,0.2c-1.2,2.4-2.4,4.7-3.5,7.1
					c0,0,0,0,0,0.1c-17.3,36.4-28.5,76.2-32.3,118.2c16.6,5.3,33.7,9.3,51.3,12.1h0.1c2.1,0.3,4.3,0.6,6.4,0.9c0.2,0,0.3,0,0.5,0.1
					c2,0.3,4.1,0.5,6.1,0.8c0.1,0,0.2,0,0.3,0c2.1,0.2,4.2,0.5,6.2,0.7c0.3,0,0.6,0.1,0.9,0.1c1.9,0.2,3.9,0.4,5.8,0.5
					c0.2,0,0.3,0,0.5,0c2,0.2,4.1,0.3,6.1,0.4c0.4,0,0.8,0,1.3,0.1c1.9,0.1,3.9,0.2,5.8,0.3c0.1,0,0.3,0,0.4,0c2,0.1,4,0.1,6.1,0.2
					c0.5,0,1,0,1.4,0c2,0,4.1,0.1,6.1,0.1c2.4,0,4.8,0,7.2-0.1c0.3,0,0.7,0,1,0c2.3-0.1,4.6-0.1,6.9-0.2c0.4,0,0.8,0,1.1-0.1
					c2.3-0.1,4.6-0.2,6.9-0.4c0.3,0,0.5,0,0.8-0.1c5-0.3,9.9-0.8,14.8-1.3c0.1,0,0.2,0,0.2,0c2.5-0.3,4.9-0.6,7.4-0.9
					c0.1,0,0.2,0,0.4,0c25.4-3.4,49.9-9.6,73.2-18.1C1065.2,1029.2,1057.3,997.7,1045.4,968.2z"/>
			</g>
		</g>
		<text id="skills_text_2_" transform="matrix(1 0 0 1 560.6106 1158.4069)" class="st17 st18 st19">Skills</text>
		<text id="services_text_2_" transform="matrix(1 0 0 1 1044.3523 1161.6367)" class="st20"><tspan x="0" y="0" class="st21 st18 st19"> </tspan><tspan x="27.8" y="0" class="st17 st18 st19">Services</tspan></text>
		<text id="products_text_2_" transform="matrix(1 0 0 1 742.4077 725.5724)" class="st17 st18 st19">Products</text>
		<rect x="1723.4" y="722.3" class="st22" width="0.7" height="4.1"/>
	</g>
	<g class="st4">
		<g>
			<g>
				<path class="st9" d="M1295.6,766.9c-12.2,136.2-102.9,249.8-226.5,295.3c0.9,8.9,1.5,17.9,1.8,27c0,0.1,0,0.1,0,0.2
					c0,1.4,0.1,2.7,0.1,4.1c0,0.2,0,0.4,0,0.5c0,1.5,0,3,0,4.6c0,1.6,0,3.1,0,4.6c0,0.5,0,1,0,1.5c0,1,0,2.1-0.1,3.1
					c0,0.6,0,1.2-0.1,1.8c0,0.9-0.1,1.9-0.1,2.8c0,0.6-0.1,1.3-0.1,1.9c0,0.9-0.1,1.8-0.1,2.7c0,0.7-0.1,1.3-0.1,2
					c0,0.9-0.1,1.7-0.2,2.6c0,0.7-0.1,1.4-0.1,2c-0.1,0.8-0.1,1.7-0.2,2.5c-0.1,0.7-0.1,1.4-0.2,2c-0.1,0.8-0.1,1.7-0.2,2.5
					c-0.1,0.7-0.1,1.4-0.2,2c-0.1,0.8-0.2,1.7-0.3,2.5c-0.1,0.7-0.1,1.4-0.2,2c-0.1,0.8-0.2,1.7-0.3,2.5c-0.1,0.7-0.2,1.3-0.2,2
					c-0.1,0.8-0.2,1.7-0.3,2.5c-0.1,0.7-0.2,1.3-0.3,2c-0.1,0.8-0.2,1.7-0.4,2.5c-0.1,0.6-0.2,1.3-0.3,1.9c-0.1,0.9-0.3,1.7-0.4,2.6
					c-0.1,0.6-0.2,1.2-0.3,1.9c-0.1,0.9-0.3,1.8-0.5,2.7c-0.1,0.6-0.2,1.2-0.3,1.7c-0.2,1-0.4,1.9-0.5,2.9c-0.1,0.5-0.2,1-0.3,1.5
					c-0.2,1.2-0.5,2.4-0.7,3.6c-0.1,0.3-0.1,0.6-0.2,0.8c-0.3,1.5-0.6,3-0.9,4.4c0,0.2-0.1,0.4-0.1,0.6c-0.3,1.3-0.6,2.5-0.9,3.8
					c-0.1,0.4-0.2,0.9-0.3,1.3c-0.2,1-0.5,2-0.7,3c-0.1,0.5-0.3,1-0.4,1.6c-0.2,0.9-0.5,1.8-0.7,2.8c-0.1,0.6-0.3,1.1-0.4,1.7
					c-0.2,0.9-0.5,1.8-0.7,2.6c-0.2,0.6-0.3,1.1-0.5,1.7c-0.2,0.9-0.5,1.7-0.7,2.6c-0.2,0.6-0.3,1.2-0.5,1.7
					c-0.2,0.8-0.5,1.7-0.7,2.5c-0.2,0.6-0.4,1.2-0.5,1.7c-0.3,0.8-0.5,1.7-0.8,2.5c-0.2,0.6-0.4,1.2-0.6,1.7
					c-0.3,0.8-0.5,1.7-0.8,2.5c-0.2,0.6-0.4,1.1-0.6,1.7c-0.3,0.8-0.6,1.7-0.9,2.5c-0.2,0.6-0.4,1.1-0.6,1.7
					c-0.3,0.9-0.6,1.7-0.9,2.6c-0.2,0.5-0.4,1.1-0.6,1.6c-0.3,0.9-0.6,1.8-1,2.6c-0.2,0.5-0.4,1-0.6,1.5c-0.3,0.9-0.7,1.8-1.1,2.8
					c-0.2,0.4-0.3,0.9-0.5,1.3c-0.4,1-0.8,2-1.2,3c-0.1,0.4-0.3,0.7-0.4,1.1c-0.5,1.2-1,2.3-1.5,3.5c-0.1,0.2-0.1,0.4-0.2,0.5
					c-1.2,2.7-2.4,5.5-3.6,8.2c0,0.1-0.1,0.1-0.1,0.2c-0.6,1.3-1.2,2.5-1.7,3.8c-0.1,0.3-0.3,0.6-0.4,0.8c-0.5,1-1,2.1-1.5,3.1
					c-0.2,0.4-0.4,0.7-0.5,1.1c-0.5,0.9-0.9,1.9-1.4,2.8c-0.2,0.4-0.4,0.8-0.6,1.2c-0.5,0.9-0.9,1.8-1.4,2.7
					c-0.2,0.4-0.4,0.9-0.7,1.3c-0.5,0.9-0.9,1.7-1.4,2.6c-0.2,0.4-0.5,0.9-0.7,1.3c-0.5,0.9-0.9,1.7-1.4,2.6
					c-0.2,0.4-0.5,0.9-0.7,1.3c-0.5,0.8-0.9,1.7-1.4,2.5c-0.2,0.4-0.5,0.9-0.7,1.3c-0.5,0.8-1,1.7-1.5,2.5c-0.2,0.4-0.5,0.8-0.7,1.2
					c-0.5,0.9-1,1.7-1.5,2.6c-0.2,0.4-0.5,0.8-0.7,1.2c-0.5,0.9-1.1,1.7-1.6,2.6c-0.2,0.4-0.4,0.7-0.7,1.1c-0.6,0.9-1.1,1.8-1.7,2.7
					c-0.2,0.3-0.4,0.6-0.6,1c-0.6,1-1.3,2-1.9,2.9c-0.2,0.2-0.3,0.5-0.5,0.7c-0.7,1.1-1.5,2.2-2.2,3.4c-0.1,0.1-0.1,0.2-0.2,0.2
					c-3.3,4.9-6.7,9.7-10.2,14.4c-0.1,0.2-0.2,0.3-0.4,0.5c-0.8,1-1.5,2-2.3,3c-0.2,0.2-0.4,0.5-0.5,0.7c-0.7,0.9-1.4,1.8-2.1,2.7
					c-0.2,0.3-0.4,0.6-0.7,0.8c-0.7,0.9-1.4,1.7-2.1,2.6c-0.2,0.3-0.5,0.6-0.7,0.9c-0.7,0.8-1.4,1.7-2,2.5c-0.3,0.3-0.5,0.6-0.8,0.9
					c-0.7,0.8-1.4,1.6-2,2.4c-0.3,0.3-0.5,0.6-0.8,0.9c-0.7,0.8-1.4,1.6-2.1,2.4c-0.3,0.3-0.5,0.6-0.8,0.9c-0.7,0.8-1.4,1.6-2.1,2.4
					c-0.3,0.3-0.5,0.6-0.8,0.9c-0.7,0.8-1.5,1.6-2.2,2.4c-0.2,0.3-0.5,0.5-0.7,0.8c-0.8,0.8-1.5,1.7-2.3,2.5
					c-0.2,0.2-0.4,0.5-0.6,0.7c-0.8,0.9-1.7,1.7-2.5,2.6c-0.2,0.2-0.3,0.3-0.5,0.5c-0.9,1-1.9,1.9-2.8,2.9c-0.1,0.1-0.1,0.1-0.2,0.2
					c-4.2,4.2-8.4,8.3-12.8,12.2l0,0c61.7,55.9,143.6,90,233.5,90c192.1,0,347.9-155.8,347.9-347.9
					C1538.1,943.1,1436.2,811.5,1295.6,766.9z"/>
			</g>
		</g>
		<g>
			<g>
				<path class="st10" d="M956.2,842.4c61.7-56,143.7-90.1,233.6-90.1c36.8,0,72.2,5.7,105.4,16.3c0.9-10.3,1.4-20.8,1.4-31.3
					c0-192.1-155.8-347.9-347.9-347.9s-348,155.8-348,347.9c0,12.3,0.6,24.4,1.9,36.4c37.4-13.8,77.8-21.3,120-21.3
					C812.5,752.4,894.4,786.5,956.2,842.4z"/>
			</g>
		</g>
		<g class="st1">
			<g>
				<path class="st12" d="M956.1,840.5c1.9,1.7,3.7,3.4,5.6,5.2c0.1,0.1,0.2,0.2,0.3,0.3c1.8,1.7,3.5,3.4,5.3,5.1
					c0.1,0.1,0.3,0.3,0.4,0.4c1.7,1.7,3.4,3.4,5.1,5.2c0.1,0.1,0.3,0.3,0.4,0.4c1.7,1.8,3.4,3.5,5,5.3c0.1,0.1,0.2,0.3,0.4,0.4
					c1.7,1.8,3.3,3.7,5,5.5c0.1,0.1,0.1,0.1,0.2,0.2c3.4,3.9,6.7,7.8,10,11.8c3.2,4,6.4,8.1,9.4,12.3c0.1,0.1,0.1,0.1,0.2,0.2
					c1.5,2,2.9,4.1,4.4,6.1c0.1,0.1,0.2,0.2,0.2,0.3c1.4,2,2.8,4.1,4.2,6.2c0.1,0.1,0.2,0.2,0.2,0.4c1.4,2.1,2.8,4.2,4.1,6.3
					c0.1,0.1,0.1,0.2,0.2,0.3c1.4,2.2,2.7,4.3,4,6.5l0,0c2.7,4.5,5.3,9,7.8,13.6s4.9,9.3,7.2,14l0,0c1.1,2.3,2.3,4.7,3.3,7.1
					c0,0,0,0.1,0.1,0.1c1.1,2.4,2.1,4.7,3.2,7.1c0,0,0,0.1,0.1,0.1c1,2.4,2,4.8,3,7.3l0,0c11.9,29.5,19.9,61,23.3,93.8
					c123.6-45.4,214.3-159.1,226.5-295.3c-33.3-10.6-68.7-16.3-105.4-16.3C1099.7,750.4,1017.8,784.5,956.1,840.5z"/>
			</g>
		</g>
		<g>
			<g>
				<path class="st13" d="M944.2,1344.6c-1-1-2-2-3-3.1c-0.1-0.1-0.3-0.3-0.4-0.4c-0.9-0.9-1.8-1.8-2.6-2.7
					c-0.2-0.2-0.4-0.4-0.6-0.6c-0.8-0.9-1.6-1.7-2.4-2.6c-0.2-0.2-0.4-0.5-0.7-0.7c-0.8-0.8-1.5-1.7-2.3-2.5
					c-0.2-0.3-0.5-0.5-0.7-0.8c-0.7-0.8-1.5-1.6-2.2-2.5c-0.2-0.3-0.5-0.6-0.7-0.8c-0.7-0.8-1.4-1.6-2.1-2.4
					c-0.3-0.3-0.5-0.6-0.7-0.9c-0.7-0.8-1.4-1.6-2.1-2.5c-0.2-0.3-0.5-0.6-0.7-0.9c-0.7-0.8-1.4-1.7-2.1-2.5
					c-0.2-0.3-0.5-0.6-0.7-0.8c-0.7-0.9-1.4-1.7-2.1-2.6c-0.2-0.3-0.4-0.5-0.6-0.8c-0.7-0.9-1.4-1.8-2.2-2.8
					c-0.2-0.2-0.3-0.4-0.5-0.7c-0.8-1-1.5-2-2.3-3c-0.1-0.1-0.2-0.3-0.3-0.4c-3.5-4.7-7-9.5-10.3-14.4l0,0c-0.8-1.2-1.6-2.4-2.4-3.6
					c-0.1-0.2-0.3-0.4-0.4-0.6c-0.7-1-1.3-2-2-3c-0.2-0.3-0.4-0.6-0.6-0.9c-0.6-0.9-1.2-1.9-1.8-2.8c-0.2-0.3-0.4-0.7-0.6-1
					c-0.5-0.9-1.1-1.8-1.6-2.7c-0.2-0.4-0.5-0.8-0.7-1.1c-0.5-0.9-1-1.7-1.5-2.6c-0.2-0.4-0.5-0.8-0.7-1.2c-0.5-0.9-1-1.7-1.5-2.6
					c-0.2-0.4-0.5-0.8-0.7-1.2c-0.5-0.9-1-1.7-1.4-2.6c-0.2-0.4-0.5-0.8-0.7-1.3c-0.5-0.9-0.9-1.7-1.4-2.6c-0.2-0.4-0.5-0.8-0.7-1.3
					c-0.5-0.9-0.9-1.8-1.4-2.6c-0.2-0.4-0.4-0.8-0.6-1.2c-0.5-0.9-0.9-1.8-1.4-2.7c-0.2-0.4-0.4-0.8-0.6-1.2c-0.5-1-0.9-1.9-1.4-2.9
					c-0.2-0.4-0.4-0.7-0.5-1.1c-0.5-1-1-2.1-1.5-3.1c-0.1-0.3-0.3-0.6-0.4-0.8c-0.6-1.2-1.2-2.5-1.7-3.8c0-0.1-0.1-0.1-0.1-0.2
					c-1.2-2.7-2.4-5.4-3.6-8.2c-0.1-0.1-0.1-0.2-0.2-0.4c-0.5-1.2-1-2.4-1.5-3.7c-0.1-0.3-0.3-0.7-0.4-1c-0.4-1-0.8-2-1.2-3
					c-0.2-0.4-0.3-0.9-0.5-1.3c-0.4-0.9-0.7-1.9-1.1-2.8c-0.2-0.5-0.4-1-0.5-1.5c-0.3-0.9-0.7-1.8-1-2.7c-0.2-0.5-0.4-1-0.6-1.6
					c-0.3-0.9-0.6-1.7-0.9-2.6c-0.2-0.5-0.4-1.1-0.6-1.6c-0.3-0.8-0.6-1.7-0.9-2.5c-0.2-0.6-0.4-1.1-0.6-1.7
					c-0.3-0.8-0.5-1.7-0.8-2.5c-0.2-0.6-0.4-1.1-0.5-1.7c-0.3-0.8-0.5-1.7-0.8-2.5c-0.2-0.6-0.4-1.2-0.5-1.7
					c-0.3-0.8-0.5-1.7-0.8-2.5c-0.2-0.6-0.3-1.2-0.5-1.7c-0.2-0.9-0.5-1.7-0.7-2.6c-0.2-0.6-0.3-1.1-0.5-1.7
					c-0.2-0.9-0.5-1.8-0.7-2.6c-0.1-0.6-0.3-1.1-0.4-1.7c-0.2-0.9-0.5-1.8-0.7-2.8c-0.1-0.5-0.3-1-0.4-1.6c-0.2-1-0.5-2-0.7-3
					c-0.1-0.4-0.2-0.9-0.3-1.3c-0.3-1.3-0.6-2.5-0.9-3.8c0-0.2-0.1-0.4-0.1-0.6c-0.3-1.5-0.6-3-0.9-4.4c0-0.2-0.1-0.5-0.1-0.7
					c-0.2-1.2-0.5-2.4-0.7-3.7c-0.1-0.5-0.2-1-0.3-1.5c-0.2-1-0.4-2-0.5-3c-0.1-0.6-0.2-1.1-0.3-1.7c-0.2-0.9-0.3-1.8-0.5-2.7
					c-0.1-0.6-0.2-1.2-0.3-1.8c-0.1-0.9-0.3-1.7-0.4-2.6c-0.1-0.6-0.2-1.3-0.3-1.9c-0.1-0.8-0.2-1.7-0.4-2.6c-0.1-0.7-0.2-1.3-0.3-2
					c-0.1-0.8-0.2-1.7-0.3-2.5c-0.1-0.7-0.2-1.3-0.2-2c-0.1-0.8-0.2-1.7-0.3-2.5c-0.1-0.7-0.1-1.3-0.2-2c-0.1-0.8-0.2-1.7-0.3-2.5
					c-0.1-0.7-0.1-1.4-0.2-2c-0.1-0.8-0.2-1.7-0.2-2.5c-0.1-0.7-0.1-1.4-0.2-2c-0.1-0.8-0.1-1.7-0.2-2.5c0-0.7-0.1-1.4-0.1-2
					c-0.1-0.9-0.1-1.7-0.2-2.6c0-0.7-0.1-1.3-0.1-2c0-0.9-0.1-1.8-0.1-2.7c0-0.6-0.1-1.3-0.1-1.9c0-0.9-0.1-1.9-0.1-2.8
					c0-0.6,0-1.2-0.1-1.8c0-1,0-2.1-0.1-3.1c0-0.5,0-1,0-1.5c0-1.5,0-3.1,0-4.6c0-2.5,0-4.9,0.1-7.4c0-0.3,0-0.5,0-0.8
					c0.1-2.4,0.1-4.9,0.2-7.3c0-0.2,0-0.4,0-0.6c0.2-5.1,0.6-10.2,1-15.3c-129.5-41.1-226.1-156-240.6-295.3
					c-133,48.9-227.9,176.7-227.9,326.6c0,192.1,155.8,347.9,347.9,347.9c89.9,0,171.8-34.1,233.6-90.1
					C952.7,1352.9,948.4,1348.8,944.2,1344.6L944.2,1344.6z"/>
			</g>
		</g>
		<g>
			<g>
				<path class="st14" d="M969,1344.2c0.1-0.1,0.1-0.1,0.2-0.2c0.9-1,1.9-1.9,2.8-2.9c0.2-0.2,0.3-0.3,0.5-0.5
					c0.8-0.9,1.7-1.7,2.5-2.6c0.2-0.2,0.4-0.5,0.6-0.7c0.8-0.8,1.6-1.7,2.3-2.5c0.2-0.3,0.5-0.5,0.7-0.8c0.7-0.8,1.5-1.6,2.2-2.4
					c0.3-0.3,0.5-0.6,0.8-0.9c0.7-0.8,1.4-1.6,2.1-2.4c0.3-0.3,0.5-0.6,0.8-0.9c0.7-0.8,1.4-1.6,2.1-2.4c0.3-0.3,0.5-0.6,0.8-0.9
					c0.7-0.8,1.4-1.6,2-2.4c0.3-0.3,0.5-0.6,0.8-0.9c0.7-0.8,1.4-1.6,2-2.5c0.2-0.3,0.5-0.6,0.7-0.9c0.7-0.9,1.4-1.7,2.1-2.6
					c0.2-0.3,0.4-0.6,0.7-0.8c0.7-0.9,1.4-1.8,2.1-2.7c0.2-0.2,0.4-0.5,0.5-0.7c0.8-1,1.5-2,2.3-3c0.1-0.2,0.2-0.3,0.4-0.5
					c3.5-4.7,6.9-9.5,10.2-14.4c0.1-0.1,0.1-0.2,0.2-0.2c0.8-1.1,1.5-2.2,2.2-3.4c0.2-0.2,0.3-0.5,0.5-0.7c0.6-1,1.3-2,1.9-2.9
					c0.2-0.3,0.4-0.6,0.6-1c0.6-0.9,1.1-1.8,1.7-2.7c0.2-0.4,0.5-0.7,0.7-1.1c0.5-0.9,1.1-1.7,1.6-2.6c0.2-0.4,0.5-0.8,0.7-1.2
					c0.5-0.9,1-1.7,1.5-2.6c0.2-0.4,0.5-0.8,0.7-1.2c0.5-0.8,1-1.7,1.5-2.5c0.2-0.4,0.5-0.9,0.7-1.3c0.5-0.8,0.9-1.7,1.4-2.5
					c0.2-0.4,0.5-0.9,0.7-1.3c0.5-0.8,0.9-1.7,1.4-2.6c0.2-0.4,0.5-0.9,0.7-1.3c0.5-0.9,0.9-1.7,1.4-2.6c0.2-0.4,0.4-0.9,0.7-1.3
					c0.5-0.9,0.9-1.8,1.4-2.7c0.2-0.4,0.4-0.8,0.6-1.2c0.5-0.9,0.9-1.9,1.4-2.8c0.2-0.4,0.4-0.7,0.5-1.1c0.5-1,1-2.1,1.5-3.1
					c0.1-0.3,0.3-0.6,0.4-0.8c0.6-1.3,1.2-2.5,1.7-3.8c0-0.1,0.1-0.1,0.1-0.2c1.2-2.7,2.4-5.4,3.6-8.2c0.1-0.2,0.1-0.4,0.2-0.5
					c0.5-1.2,1-2.3,1.5-3.5c0.1-0.4,0.3-0.7,0.4-1.1c0.4-1,0.8-2,1.2-3c0.2-0.4,0.3-0.9,0.5-1.3c0.4-0.9,0.7-1.8,1.1-2.8
					c0.2-0.5,0.4-1,0.6-1.5c0.3-0.9,0.7-1.8,1-2.6c0.2-0.5,0.4-1.1,0.6-1.6c0.3-0.8,0.6-1.7,0.9-2.6c0.2-0.6,0.4-1.1,0.6-1.7
					c0.3-0.8,0.6-1.7,0.9-2.5c0.2-0.6,0.4-1.1,0.6-1.7c0.3-0.8,0.5-1.7,0.8-2.5c0.2-0.6,0.4-1.2,0.6-1.7c0.3-0.8,0.5-1.7,0.8-2.5
					c0.2-0.6,0.4-1.2,0.5-1.7c0.3-0.8,0.5-1.7,0.7-2.5c0.2-0.6,0.3-1.2,0.5-1.7c0.2-0.9,0.5-1.7,0.7-2.6c0.2-0.6,0.3-1.1,0.5-1.7
					c0.2-0.9,0.5-1.7,0.7-2.6c0.1-0.6,0.3-1.1,0.4-1.7c0.2-0.9,0.5-1.8,0.7-2.8c0.1-0.5,0.3-1,0.4-1.6c0.2-1,0.5-2,0.7-3
					c0.1-0.4,0.2-0.9,0.3-1.3c0.3-1.3,0.6-2.5,0.9-3.8c0-0.2,0.1-0.4,0.1-0.6c0.3-1.5,0.6-2.9,0.9-4.4c0.1-0.3,0.1-0.6,0.2-0.8
					c0.2-1.2,0.5-2.4,0.7-3.6c0.1-0.5,0.2-1,0.3-1.5c0.2-1,0.4-1.9,0.5-2.9c0.1-0.6,0.2-1.2,0.3-1.7c0.2-0.9,0.3-1.8,0.5-2.7
					c0.1-0.6,0.2-1.2,0.3-1.9c0.1-0.9,0.3-1.7,0.4-2.6c0.1-0.6,0.2-1.3,0.3-1.9c0.1-0.8,0.2-1.7,0.4-2.5c0.1-0.7,0.2-1.3,0.3-2
					c0.1-0.8,0.2-1.7,0.3-2.5c0.1-0.7,0.2-1.3,0.2-2c0.1-0.8,0.2-1.7,0.3-2.5c0.1-0.7,0.1-1.4,0.2-2c0.1-0.8,0.2-1.7,0.3-2.5
					c0.1-0.7,0.1-1.4,0.2-2c0.1-0.8,0.2-1.7,0.2-2.5c0.1-0.7,0.1-1.4,0.2-2c0.1-0.8,0.1-1.7,0.2-2.5c0-0.7,0.1-1.4,0.1-2
					c0.1-0.9,0.1-1.7,0.2-2.6c0-0.7,0.1-1.3,0.1-2c0-0.9,0.1-1.8,0.1-2.7c0-0.6,0.1-1.3,0.1-1.9c0-0.9,0.1-1.9,0.1-2.8
					c0-0.6,0-1.2,0.1-1.8c0-1,0-2.1,0.1-3.1c0-0.5,0-1,0-1.5c0-1.5,0-3.1,0-4.6s0-3.1,0-4.6c0-0.2,0-0.4,0-0.5c0-1.4,0-2.7-0.1-4.1
					c0-0.1,0-0.1,0-0.2c-0.2-9.1-0.8-18.1-1.8-27c-23.3,8.6-47.8,14.7-73.2,18.1c-0.1,0-0.2,0-0.4,0c-2.5,0.3-4.9,0.6-7.4,0.9
					c-0.1,0-0.2,0-0.2,0c-4.9,0.5-9.8,1-14.8,1.3c-0.3,0-0.5,0-0.8,0.1c-2.3,0.2-4.6,0.3-6.9,0.4c-0.4,0-0.8,0-1.1,0.1
					c-2.3,0.1-4.6,0.2-6.9,0.2c-0.3,0-0.7,0-1,0c-2.4,0-4.8,0.1-7.2,0.1c-2,0-4.1,0-6.1-0.1c-0.5,0-1,0-1.4,0c-2,0-4.1-0.1-6.1-0.2
					c-0.1,0-0.3,0-0.4,0c-1.9-0.1-3.9-0.2-5.8-0.3c-0.4,0-0.8,0-1.3-0.1c-2-0.1-4.1-0.3-6.1-0.4c-0.2,0-0.3,0-0.5,0
					c-2-0.2-3.9-0.3-5.8-0.5c-0.3,0-0.6-0.1-0.9-0.1c-2.1-0.2-4.2-0.4-6.2-0.7c-0.1,0-0.2,0-0.3,0c-2-0.2-4.1-0.5-6.1-0.8
					c-0.2,0-0.3,0-0.5-0.1c-2.1-0.3-4.3-0.6-6.4-0.9h-0.1c-17.6-2.7-34.7-6.8-51.3-12.1c-0.5,5.1-0.8,10.2-1,15.3c0,0.2,0,0.4,0,0.6
					c-0.1,2.4-0.2,4.8-0.2,7.3c0,0.3,0,0.5,0,0.8c-0.1,2.5-0.1,4.9-0.1,7.4c0,1.6,0,3.1,0,4.6c0,0.5,0,1,0,1.5c0,1,0,2.1,0.1,3.1
					c0,0.6,0,1.2,0.1,1.8c0,0.9,0.1,1.9,0.1,2.8c0,0.6,0.1,1.3,0.1,1.9c0,0.9,0.1,1.8,0.1,2.7c0,0.7,0.1,1.3,0.1,2
					c0.1,0.9,0.1,1.7,0.2,2.6c0,0.7,0.1,1.4,0.1,2c0.1,0.8,0.1,1.7,0.2,2.5c0.1,0.7,0.1,1.4,0.2,2c0.1,0.8,0.1,1.7,0.2,2.5
					c0.1,0.7,0.1,1.4,0.2,2c0.1,0.8,0.2,1.7,0.3,2.5c0.1,0.7,0.1,1.3,0.2,2c0.1,0.8,0.2,1.7,0.3,2.5c0.1,0.7,0.2,1.3,0.2,2
					c0.1,0.8,0.2,1.7,0.3,2.5c0.1,0.7,0.2,1.3,0.3,2c0.1,0.9,0.2,1.7,0.4,2.6c0.1,0.6,0.2,1.3,0.3,1.9c0.1,0.9,0.3,1.7,0.4,2.6
					c0.1,0.6,0.2,1.2,0.3,1.8c0.1,0.9,0.3,1.8,0.5,2.7c0.1,0.6,0.2,1.1,0.3,1.7c0.2,1,0.4,2,0.5,3c0.1,0.5,0.2,1,0.3,1.5
					c0.2,1.2,0.5,2.4,0.7,3.7c0,0.2,0.1,0.5,0.1,0.7c0.3,1.5,0.6,3,0.9,4.4c0,0.2,0.1,0.4,0.1,0.6c0.3,1.3,0.6,2.5,0.9,3.8
					c0.1,0.4,0.2,0.9,0.3,1.3c0.2,1,0.5,2,0.7,3c0.1,0.5,0.3,1,0.4,1.6c0.2,0.9,0.5,1.8,0.7,2.8c0.1,0.6,0.3,1.1,0.4,1.7
					c0.2,0.9,0.5,1.8,0.7,2.6c0.2,0.6,0.3,1.1,0.5,1.7c0.2,0.9,0.5,1.7,0.7,2.6c0.2,0.6,0.3,1.2,0.5,1.7c0.2,0.8,0.5,1.7,0.8,2.5
					c0.2,0.6,0.4,1.2,0.5,1.7c0.3,0.8,0.5,1.7,0.8,2.5c0.2,0.6,0.4,1.1,0.5,1.7c0.3,0.8,0.5,1.7,0.8,2.5c0.2,0.6,0.4,1.1,0.6,1.7
					c0.3,0.8,0.6,1.7,0.9,2.5c0.2,0.5,0.4,1.1,0.6,1.6c0.3,0.9,0.6,1.7,0.9,2.6c0.2,0.5,0.4,1,0.6,1.6c0.3,0.9,0.7,1.8,1,2.7
					c0.2,0.5,0.4,1,0.5,1.5c0.4,0.9,0.7,1.9,1.1,2.8c0.2,0.4,0.3,0.9,0.5,1.3c0.4,1,0.8,2,1.2,3c0.1,0.3,0.3,0.7,0.4,1
					c0.5,1.2,1,2.5,1.5,3.7c0.1,0.1,0.1,0.2,0.2,0.4c1.2,2.8,2.4,5.5,3.6,8.2c0,0.1,0.1,0.1,0.1,0.2c0.6,1.3,1.1,2.5,1.7,3.8
					c0.1,0.3,0.3,0.6,0.4,0.8c0.5,1,1,2.1,1.5,3.1c0.2,0.4,0.3,0.7,0.5,1.1c0.5,1,0.9,1.9,1.4,2.9c0.2,0.4,0.4,0.8,0.6,1.2
					c0.5,0.9,0.9,1.8,1.4,2.7c0.2,0.4,0.4,0.8,0.6,1.2c0.5,0.9,0.9,1.8,1.4,2.6c0.2,0.4,0.4,0.8,0.7,1.3c0.5,0.9,0.9,1.7,1.4,2.6
					c0.2,0.4,0.5,0.8,0.7,1.3c0.5,0.9,1,1.7,1.4,2.6c0.2,0.4,0.5,0.8,0.7,1.2c0.5,0.9,1,1.7,1.5,2.6c0.2,0.4,0.5,0.8,0.7,1.2
					c0.5,0.9,1,1.7,1.5,2.6c0.2,0.4,0.5,0.8,0.7,1.1c0.5,0.9,1.1,1.8,1.6,2.7c0.2,0.3,0.4,0.7,0.6,1c0.6,0.9,1.2,1.9,1.8,2.8
					c0.2,0.3,0.4,0.6,0.6,0.9c0.6,1,1.3,2,2,3c0.1,0.2,0.3,0.4,0.4,0.6c0.8,1.2,1.6,2.4,2.4,3.6l0,0c3.3,4.9,6.7,9.7,10.3,14.4
					c0.1,0.1,0.2,0.3,0.3,0.4c0.8,1,1.5,2,2.3,3c0.2,0.2,0.3,0.4,0.5,0.7c0.7,0.9,1.4,1.9,2.2,2.8c0.2,0.3,0.4,0.5,0.6,0.8
					c0.7,0.9,1.4,1.8,2.1,2.6c0.2,0.3,0.5,0.6,0.7,0.8c0.7,0.8,1.4,1.7,2.1,2.5c0.2,0.3,0.5,0.6,0.7,0.9c0.7,0.8,1.4,1.7,2.1,2.5
					c0.2,0.3,0.5,0.6,0.7,0.9c0.7,0.8,1.4,1.6,2.1,2.4c0.2,0.3,0.5,0.6,0.7,0.8c0.7,0.8,1.4,1.6,2.2,2.5c0.2,0.3,0.5,0.5,0.7,0.8
					c0.8,0.8,1.5,1.7,2.3,2.5c0.2,0.2,0.4,0.5,0.7,0.7c0.8,0.9,1.6,1.7,2.4,2.6c0.2,0.2,0.4,0.4,0.6,0.6c0.9,0.9,1.7,1.8,2.6,2.7
					c0.1,0.1,0.3,0.3,0.4,0.4c1,1,2,2,3,3.1l0,0c4.2,4.2,8.5,8.3,12.9,12.3l0,0C960.6,1352.4,964.8,1348.4,969,1344.2z"/>
			</g>
		</g>
		<g class="st1">
			<g>
				<path class="st15" d="M843.1,1068.4c3.7-42,15-81.8,32.3-118.2c0,0,0,0,0-0.1c1.1-2.4,2.3-4.8,3.5-7.1c0-0.1,0.1-0.1,0.1-0.2
					c1.2-2.3,2.4-4.6,3.6-6.9c0-0.1,0.1-0.2,0.1-0.2c1.2-2.3,2.5-4.6,3.7-6.8c0-0.1,0.1-0.1,0.1-0.2c1.3-2.3,2.6-4.5,3.9-6.8
					l0.1-0.1c1.4-2.3,2.7-4.5,4.1-6.7l0,0c3.3-5.3,6.8-10.6,10.5-15.7c4-5.7,8.2-11.3,12.5-16.7c0.1-0.1,0.1-0.1,0.2-0.2
					c1.6-2,3.2-3.9,4.8-5.9c0.1-0.1,0.2-0.2,0.3-0.4c1.6-1.9,3.2-3.8,4.9-5.7c0.1-0.1,0.3-0.3,0.4-0.4c1.6-1.9,3.3-3.7,4.9-5.5
					c0.1-0.2,0.3-0.3,0.4-0.5c1.7-1.8,3.4-3.6,5.1-5.4c0.1-0.1,0.3-0.3,0.4-0.4c1.7-1.8,3.5-3.6,5.2-5.3c0.1-0.1,0.2-0.2,0.3-0.3
					c1.8-1.8,3.6-3.5,5.4-5.3c0.1-0.1,0.1-0.1,0.2-0.2c1.9-1.8,3.8-3.5,5.7-5.3l0,0c-61.7-55.9-143.6-90-233.5-90
					c-42.2,0-82.6,7.5-120,21.3C617,912.4,713.6,1027.3,843.1,1068.4z"/>
			</g>
		</g>
		<g class="st1">
			<g>
				<path class="st16" d="M1045.4,968.2L1045.4,968.2c-1-2.4-2-4.9-3-7.3c0,0,0-0.1-0.1-0.1c-1-2.4-2.1-4.8-3.2-7.1
					c0,0,0-0.1-0.1-0.1c-1.1-2.4-2.2-4.7-3.3-7.1l0,0c-2.3-4.7-4.7-9.4-7.2-14s-5.1-9.2-7.8-13.6l0,0c-1.3-2.2-2.7-4.4-4-6.5
					c-0.1-0.1-0.1-0.2-0.2-0.3c-1.3-2.1-2.7-4.2-4.1-6.3c-0.1-0.1-0.2-0.2-0.2-0.4c-1.4-2.1-2.8-4.1-4.2-6.2
					c-0.1-0.1-0.2-0.2-0.2-0.3c-1.4-2.1-2.9-4.1-4.4-6.1c-0.1-0.1-0.1-0.1-0.2-0.2c-3.1-4.2-6.2-8.3-9.4-12.3c-3.2-4-6.6-8-10-11.8
					c-0.1-0.1-0.1-0.1-0.2-0.2c-1.6-1.9-3.3-3.7-5-5.5c-0.1-0.1-0.2-0.3-0.4-0.4c-1.6-1.8-3.3-3.6-5-5.3c-0.1-0.1-0.3-0.3-0.4-0.4
					c-1.7-1.7-3.4-3.5-5.1-5.2c-0.1-0.1-0.3-0.3-0.4-0.4c-1.7-1.7-3.5-3.4-5.3-5.1c-0.1-0.1-0.2-0.2-0.3-0.3
					c-1.8-1.7-3.7-3.5-5.6-5.2l0,0c-1.9,1.7-3.8,3.5-5.7,5.3c-0.1,0.1-0.1,0.1-0.2,0.2c-1.8,1.7-3.6,3.5-5.4,5.3
					c-0.1,0.1-0.2,0.2-0.3,0.3c-1.8,1.8-3.5,3.5-5.2,5.3c-0.1,0.1-0.3,0.3-0.4,0.4c-1.7,1.8-3.4,3.6-5.1,5.4
					c-0.1,0.2-0.3,0.3-0.4,0.5c-1.7,1.8-3.3,3.7-4.9,5.5c-0.1,0.1-0.3,0.3-0.4,0.4c-1.6,1.9-3.3,3.8-4.9,5.7
					c-0.1,0.1-0.2,0.2-0.3,0.4c-1.6,1.9-3.2,3.9-4.8,5.9c-0.1,0.1-0.1,0.1-0.2,0.2c-4.3,5.4-8.5,11-12.5,16.7
					c-3.6,5.1-7.1,10.4-10.5,15.7l0,0c-1.4,2.2-2.8,4.5-4.1,6.7l-0.1,0.1c-1.3,2.2-2.6,4.5-3.9,6.8c0,0.1-0.1,0.1-0.1,0.2
					c-1.3,2.3-2.5,4.5-3.7,6.8c0,0.1-0.1,0.2-0.1,0.2c-1.2,2.3-2.4,4.6-3.6,6.9c0,0.1-0.1,0.1-0.1,0.2c-1.2,2.4-2.4,4.7-3.5,7.1
					c0,0,0,0,0,0.1c-17.3,36.4-28.5,76.2-32.3,118.2c16.6,5.3,33.7,9.3,51.3,12.1h0.1c2.1,0.3,4.3,0.6,6.4,0.9c0.2,0,0.3,0,0.5,0.1
					c2,0.3,4.1,0.5,6.1,0.8c0.1,0,0.2,0,0.3,0c2.1,0.2,4.2,0.5,6.2,0.7c0.3,0,0.6,0.1,0.9,0.1c1.9,0.2,3.9,0.4,5.8,0.5
					c0.2,0,0.3,0,0.5,0c2,0.2,4.1,0.3,6.1,0.4c0.4,0,0.8,0,1.3,0.1c1.9,0.1,3.9,0.2,5.8,0.3c0.1,0,0.3,0,0.4,0c2,0.1,4,0.1,6.1,0.2
					c0.5,0,1,0,1.4,0c2,0,4.1,0.1,6.1,0.1c2.4,0,4.8,0,7.2-0.1c0.3,0,0.7,0,1,0c2.3-0.1,4.6-0.1,6.9-0.2c0.4,0,0.8,0,1.1-0.1
					c2.3-0.1,4.6-0.2,6.9-0.4c0.3,0,0.5,0,0.8-0.1c5-0.3,9.9-0.8,14.8-1.3c0.1,0,0.2,0,0.2,0c2.5-0.3,4.9-0.6,7.4-0.9
					c0.1,0,0.2,0,0.4,0c25.4-3.4,49.9-9.6,73.2-18.1C1065.2,1029.2,1057.3,997.7,1045.4,968.2z"/>
			</g>
		</g>
		<text id="skills_text_1_" transform="matrix(1 0 0 1 560.6106 1158.4069)" class="st17 st18 st19">Skills</text>
		<text id="services_text_1_" transform="matrix(1 0 0 1 1044.3523 1161.6367)" class="st20"><tspan x="0" y="0" class="st21 st18 st19"> </tspan><tspan x="27.8" y="0" class="st17 st18 st19">Services</tspan></text>
		<text id="products_text_1_" transform="matrix(1 0 0 1 742.4077 725.5724)" class="st17 st18 st19">Products</text>
		<rect x="1723.4" y="722.3" class="st22" width="0.7" height="4.1"/>
	</g>
</g>
<g id="LoGo_COPY">
	<g class="st0">
		<g class="st4">
			<g>
				<path class="st9" d="M1294.6,728.9c-12.2,136.2-102.9,249.8-226.5,295.3c0.9,8.9,1.5,17.9,1.8,27c0,0.1,0,0.1,0,0.2
					c0,1.4,0.1,2.7,0.1,4.1c0,0.2,0,0.4,0,0.5c0,1.5,0,3,0,4.6c0,1.6,0,3.1,0,4.6c0,0.5,0,1,0,1.5c0,1,0,2.1-0.1,3.1
					c0,0.6,0,1.2-0.1,1.8c0,0.9-0.1,1.9-0.1,2.8c0,0.6-0.1,1.3-0.1,1.9c0,0.9-0.1,1.8-0.1,2.7c0,0.7-0.1,1.3-0.1,2
					c0,0.9-0.1,1.7-0.2,2.6c0,0.7-0.1,1.4-0.1,2c-0.1,0.8-0.1,1.7-0.2,2.5c-0.1,0.7-0.1,1.4-0.2,2c-0.1,0.8-0.1,1.7-0.2,2.5
					c-0.1,0.7-0.1,1.4-0.2,2c-0.1,0.8-0.2,1.7-0.3,2.5c-0.1,0.7-0.1,1.4-0.2,2c-0.1,0.8-0.2,1.7-0.3,2.5c-0.1,0.7-0.2,1.3-0.2,2
					c-0.1,0.8-0.2,1.7-0.3,2.5c-0.1,0.7-0.2,1.3-0.3,2c-0.1,0.8-0.2,1.7-0.4,2.5c-0.1,0.6-0.2,1.3-0.3,1.9c-0.1,0.9-0.3,1.7-0.4,2.6
					c-0.1,0.6-0.2,1.2-0.3,1.9c-0.1,0.9-0.3,1.8-0.5,2.7c-0.1,0.6-0.2,1.2-0.3,1.7c-0.2,1-0.4,1.9-0.5,2.9c-0.1,0.5-0.2,1-0.3,1.5
					c-0.2,1.2-0.5,2.4-0.7,3.6c-0.1,0.3-0.1,0.6-0.2,0.8c-0.3,1.5-0.6,3-0.9,4.4c0,0.2-0.1,0.4-0.1,0.6c-0.3,1.3-0.6,2.5-0.9,3.8
					c-0.1,0.4-0.2,0.9-0.3,1.3c-0.2,1-0.5,2-0.7,3c-0.1,0.5-0.3,1-0.4,1.6c-0.2,0.9-0.5,1.8-0.7,2.8c-0.1,0.6-0.3,1.1-0.4,1.7
					c-0.2,0.9-0.5,1.8-0.7,2.6c-0.2,0.6-0.3,1.1-0.5,1.7c-0.2,0.9-0.5,1.7-0.7,2.6c-0.2,0.6-0.3,1.2-0.5,1.7
					c-0.2,0.8-0.5,1.7-0.7,2.5c-0.2,0.6-0.4,1.2-0.5,1.7c-0.3,0.8-0.5,1.7-0.8,2.5c-0.2,0.6-0.4,1.2-0.6,1.7
					c-0.3,0.8-0.5,1.7-0.8,2.5c-0.2,0.6-0.4,1.1-0.6,1.7c-0.3,0.8-0.6,1.7-0.9,2.5c-0.2,0.6-0.4,1.1-0.6,1.7
					c-0.3,0.9-0.6,1.7-0.9,2.6c-0.2,0.5-0.4,1.1-0.6,1.6c-0.3,0.9-0.6,1.8-1,2.6c-0.2,0.5-0.4,1-0.6,1.5c-0.3,0.9-0.7,1.8-1.1,2.8
					c-0.2,0.4-0.3,0.9-0.5,1.3c-0.4,1-0.8,2-1.2,3c-0.1,0.4-0.3,0.7-0.4,1.1c-0.5,1.2-1,2.3-1.5,3.5c-0.1,0.2-0.1,0.4-0.2,0.5
					c-1.2,2.7-2.4,5.5-3.6,8.2c0,0.1-0.1,0.1-0.1,0.2c-0.6,1.3-1.2,2.5-1.7,3.8c-0.1,0.3-0.3,0.6-0.4,0.8c-0.5,1-1,2.1-1.5,3.1
					c-0.2,0.4-0.4,0.7-0.5,1.1c-0.5,0.9-0.9,1.9-1.4,2.8c-0.2,0.4-0.4,0.8-0.6,1.2c-0.5,0.9-0.9,1.8-1.4,2.7
					c-0.2,0.4-0.4,0.9-0.7,1.3c-0.5,0.9-0.9,1.7-1.4,2.6c-0.2,0.4-0.5,0.9-0.7,1.3c-0.5,0.9-0.9,1.7-1.4,2.6
					c-0.2,0.4-0.5,0.9-0.7,1.3c-0.5,0.8-0.9,1.7-1.4,2.5c-0.2,0.4-0.5,0.9-0.7,1.3c-0.5,0.8-1,1.7-1.5,2.5c-0.2,0.4-0.5,0.8-0.7,1.2
					c-0.5,0.9-1,1.7-1.5,2.6c-0.2,0.4-0.5,0.8-0.7,1.2c-0.5,0.9-1.1,1.7-1.6,2.6c-0.2,0.4-0.4,0.7-0.7,1.1c-0.6,0.9-1.1,1.8-1.7,2.7
					c-0.2,0.3-0.4,0.6-0.6,1c-0.6,1-1.3,2-1.9,2.9c-0.2,0.2-0.3,0.5-0.5,0.7c-0.7,1.1-1.5,2.2-2.2,3.4c-0.1,0.1-0.1,0.2-0.2,0.2
					c-3.3,4.9-6.7,9.7-10.2,14.4c-0.1,0.2-0.2,0.3-0.4,0.5c-0.8,1-1.5,2-2.3,3c-0.2,0.2-0.4,0.5-0.5,0.7c-0.7,0.9-1.4,1.8-2.1,2.7
					c-0.2,0.3-0.4,0.6-0.7,0.8c-0.7,0.9-1.4,1.7-2.1,2.6c-0.2,0.3-0.5,0.6-0.7,0.9c-0.7,0.8-1.4,1.7-2,2.5c-0.3,0.3-0.5,0.6-0.8,0.9
					c-0.7,0.8-1.4,1.6-2,2.4c-0.3,0.3-0.5,0.6-0.8,0.9c-0.7,0.8-1.4,1.6-2.1,2.4c-0.3,0.3-0.5,0.6-0.8,0.9c-0.7,0.8-1.4,1.6-2.1,2.4
					c-0.3,0.3-0.5,0.6-0.8,0.9c-0.7,0.8-1.5,1.6-2.2,2.4c-0.2,0.3-0.5,0.5-0.7,0.8c-0.8,0.8-1.5,1.7-2.3,2.5
					c-0.2,0.2-0.4,0.5-0.6,0.7c-0.8,0.9-1.7,1.7-2.5,2.6c-0.2,0.2-0.3,0.3-0.5,0.5c-0.9,1-1.9,1.9-2.8,2.9c-0.1,0.1-0.1,0.1-0.2,0.2
					c-4.2,4.2-8.4,8.3-12.8,12.2l0,0c61.7,55.9,143.6,90,233.5,90c192.1,0,347.9-155.8,347.9-347.9
					C1537.1,905.1,1435.2,773.5,1294.6,728.9z"/>
			</g>
		</g>
		<g class="st4">
			<g>
				<path class="st10" d="M955.2,804.4c61.7-56,143.7-90.1,233.6-90.1c36.8,0,72.2,5.7,105.4,16.3c0.9-10.3,1.4-20.8,1.4-31.3
					c0-192.1-155.8-347.9-347.9-347.9s-348,155.8-348,347.9c0,12.3,0.6,24.4,1.9,36.4c37.4-13.8,77.8-21.3,120-21.3
					C811.5,714.4,893.4,748.5,955.2,804.4z"/>
			</g>
		</g>
		<g class="st7">
			<g>
				<path class="st12" d="M955.1,802.5c1.9,1.7,3.7,3.4,5.6,5.2c0.1,0.1,0.2,0.2,0.3,0.3c1.8,1.7,3.5,3.4,5.3,5.1
					c0.1,0.1,0.3,0.3,0.4,0.4c1.7,1.7,3.4,3.4,5.1,5.2c0.1,0.1,0.3,0.3,0.4,0.4c1.7,1.8,3.4,3.5,5,5.3c0.1,0.1,0.2,0.3,0.4,0.4
					c1.7,1.8,3.3,3.7,5,5.5c0.1,0.1,0.1,0.1,0.2,0.2c3.4,3.9,6.7,7.8,10,11.8c3.2,4,6.4,8.1,9.4,12.3c0.1,0.1,0.1,0.1,0.2,0.2
					c1.5,2,2.9,4.1,4.4,6.1c0.1,0.1,0.2,0.2,0.2,0.3c1.4,2,2.8,4.1,4.2,6.2c0.1,0.1,0.2,0.2,0.2,0.4c1.4,2.1,2.8,4.2,4.1,6.3
					c0.1,0.1,0.1,0.2,0.2,0.3c1.4,2.2,2.7,4.3,4,6.5l0,0c2.7,4.5,5.3,9,7.8,13.6s4.9,9.3,7.2,14l0,0c1.1,2.3,2.3,4.7,3.3,7.1
					c0,0,0,0.1,0.1,0.1c1.1,2.4,2.1,4.7,3.2,7.1c0,0,0,0.1,0.1,0.1c1,2.4,2,4.8,3,7.3l0,0c11.9,29.5,19.9,61,23.3,93.8
					c123.6-45.4,214.3-159.1,226.5-295.3c-33.3-10.6-68.7-16.3-105.4-16.3C1098.7,712.4,1016.8,746.5,955.1,802.5z"/>
			</g>
		</g>
		<g class="st4">
			<g>
				<path class="st13" d="M943.2,1306.6c-1-1-2-2-3-3.1c-0.1-0.1-0.3-0.3-0.4-0.4c-0.9-0.9-1.8-1.8-2.6-2.7
					c-0.2-0.2-0.4-0.4-0.6-0.6c-0.8-0.9-1.6-1.7-2.4-2.6c-0.2-0.2-0.4-0.5-0.7-0.7c-0.8-0.8-1.5-1.7-2.3-2.5
					c-0.2-0.3-0.5-0.5-0.7-0.8c-0.7-0.8-1.5-1.6-2.2-2.5c-0.2-0.3-0.5-0.6-0.7-0.8c-0.7-0.8-1.4-1.6-2.1-2.4
					c-0.3-0.3-0.5-0.6-0.7-0.9c-0.7-0.8-1.4-1.6-2.1-2.5c-0.2-0.3-0.5-0.6-0.7-0.9c-0.7-0.8-1.4-1.7-2.1-2.5
					c-0.2-0.3-0.5-0.6-0.7-0.8c-0.7-0.9-1.4-1.7-2.1-2.6c-0.2-0.3-0.4-0.5-0.6-0.8c-0.7-0.9-1.4-1.8-2.2-2.8
					c-0.2-0.2-0.3-0.4-0.5-0.7c-0.8-1-1.5-2-2.3-3c-0.1-0.1-0.2-0.3-0.3-0.4c-3.5-4.7-7-9.5-10.3-14.4l0,0c-0.8-1.2-1.6-2.4-2.4-3.6
					c-0.1-0.2-0.3-0.4-0.4-0.6c-0.7-1-1.3-2-2-3c-0.2-0.3-0.4-0.6-0.6-0.9c-0.6-0.9-1.2-1.9-1.8-2.8c-0.2-0.3-0.4-0.7-0.6-1
					c-0.5-0.9-1.1-1.8-1.6-2.7c-0.2-0.4-0.5-0.8-0.7-1.1c-0.5-0.9-1-1.7-1.5-2.6c-0.2-0.4-0.5-0.8-0.7-1.2c-0.5-0.9-1-1.7-1.5-2.6
					c-0.2-0.4-0.5-0.8-0.7-1.2c-0.5-0.9-1-1.7-1.4-2.6c-0.2-0.4-0.5-0.8-0.7-1.3c-0.5-0.9-0.9-1.7-1.4-2.6c-0.2-0.4-0.5-0.8-0.7-1.3
					c-0.5-0.9-0.9-1.8-1.4-2.6c-0.2-0.4-0.4-0.8-0.6-1.2c-0.5-0.9-0.9-1.8-1.4-2.7c-0.2-0.4-0.4-0.8-0.6-1.2c-0.5-1-0.9-1.9-1.4-2.9
					c-0.2-0.4-0.4-0.7-0.5-1.1c-0.5-1-1-2.1-1.5-3.1c-0.1-0.3-0.3-0.6-0.4-0.8c-0.6-1.2-1.2-2.5-1.7-3.8c0-0.1-0.1-0.1-0.1-0.2
					c-1.2-2.7-2.4-5.4-3.6-8.2c-0.1-0.1-0.1-0.2-0.2-0.4c-0.5-1.2-1-2.4-1.5-3.7c-0.1-0.3-0.3-0.7-0.4-1c-0.4-1-0.8-2-1.2-3
					c-0.2-0.4-0.3-0.9-0.5-1.3c-0.4-0.9-0.7-1.9-1.1-2.8c-0.2-0.5-0.4-1-0.5-1.5c-0.3-0.9-0.7-1.8-1-2.7c-0.2-0.5-0.4-1-0.6-1.6
					c-0.3-0.9-0.6-1.7-0.9-2.6c-0.2-0.5-0.4-1.1-0.6-1.6c-0.3-0.8-0.6-1.7-0.9-2.5c-0.2-0.6-0.4-1.1-0.6-1.7
					c-0.3-0.8-0.5-1.7-0.8-2.5c-0.2-0.6-0.4-1.1-0.5-1.7c-0.3-0.8-0.5-1.7-0.8-2.5c-0.2-0.6-0.4-1.2-0.5-1.7
					c-0.3-0.8-0.5-1.7-0.8-2.5c-0.2-0.6-0.3-1.2-0.5-1.7c-0.2-0.9-0.5-1.7-0.7-2.6c-0.2-0.6-0.3-1.1-0.5-1.7
					c-0.2-0.9-0.5-1.8-0.7-2.6c-0.1-0.6-0.3-1.1-0.4-1.7c-0.2-0.9-0.5-1.8-0.7-2.8c-0.1-0.5-0.3-1-0.4-1.6c-0.2-1-0.5-2-0.7-3
					c-0.1-0.4-0.2-0.9-0.3-1.3c-0.3-1.3-0.6-2.5-0.9-3.8c0-0.2-0.1-0.4-0.1-0.6c-0.3-1.5-0.6-3-0.9-4.4c0-0.2-0.1-0.5-0.1-0.7
					c-0.2-1.2-0.5-2.4-0.7-3.7c-0.1-0.5-0.2-1-0.3-1.5c-0.2-1-0.4-2-0.5-3c-0.1-0.6-0.2-1.1-0.3-1.7c-0.2-0.9-0.3-1.8-0.5-2.7
					c-0.1-0.6-0.2-1.2-0.3-1.8c-0.1-0.9-0.3-1.7-0.4-2.6c-0.1-0.6-0.2-1.3-0.3-1.9c-0.1-0.8-0.2-1.7-0.4-2.6c-0.1-0.7-0.2-1.3-0.3-2
					c-0.1-0.8-0.2-1.7-0.3-2.5c-0.1-0.7-0.2-1.3-0.2-2c-0.1-0.8-0.2-1.7-0.3-2.5c-0.1-0.7-0.1-1.3-0.2-2c-0.1-0.8-0.2-1.7-0.3-2.5
					c-0.1-0.7-0.1-1.4-0.2-2c-0.1-0.8-0.2-1.7-0.2-2.5c-0.1-0.7-0.1-1.4-0.2-2c-0.1-0.8-0.1-1.7-0.2-2.5c0-0.7-0.1-1.4-0.1-2
					c-0.1-0.9-0.1-1.7-0.2-2.6c0-0.7-0.1-1.3-0.1-2c0-0.9-0.1-1.8-0.1-2.7c0-0.6-0.1-1.3-0.1-1.9c0-0.9-0.1-1.9-0.1-2.8
					c0-0.6,0-1.2-0.1-1.8c0-1,0-2.1-0.1-3.1c0-0.5,0-1,0-1.5c0-1.5,0-3.1,0-4.6c0-2.5,0-4.9,0.1-7.4c0-0.3,0-0.5,0-0.8
					c0.1-2.4,0.1-4.9,0.2-7.3c0-0.2,0-0.4,0-0.6c0.2-5.1,0.6-10.2,1-15.3c-129.5-41.1-226.1-156-240.6-295.3
					c-133,48.9-227.9,176.7-227.9,326.6c0,192.1,155.8,347.9,347.9,347.9c89.9,0,171.8-34.1,233.6-90.1
					C951.7,1314.9,947.4,1310.8,943.2,1306.6L943.2,1306.6z"/>
			</g>
		</g>
		<g class="st4">
			<g>
				<path class="st14" d="M968,1306.2c0.1-0.1,0.1-0.1,0.2-0.2c0.9-1,1.9-1.9,2.8-2.9c0.2-0.2,0.3-0.3,0.5-0.5
					c0.8-0.9,1.7-1.7,2.5-2.6c0.2-0.2,0.4-0.5,0.6-0.7c0.8-0.8,1.6-1.7,2.3-2.5c0.2-0.3,0.5-0.5,0.7-0.8c0.7-0.8,1.5-1.6,2.2-2.4
					c0.3-0.3,0.5-0.6,0.8-0.9c0.7-0.8,1.4-1.6,2.1-2.4c0.3-0.3,0.5-0.6,0.8-0.9c0.7-0.8,1.4-1.6,2.1-2.4c0.3-0.3,0.5-0.6,0.8-0.9
					c0.7-0.8,1.4-1.6,2-2.4c0.3-0.3,0.5-0.6,0.8-0.9c0.7-0.8,1.4-1.6,2-2.5c0.2-0.3,0.5-0.6,0.7-0.9c0.7-0.9,1.4-1.7,2.1-2.6
					c0.2-0.3,0.4-0.6,0.7-0.8c0.7-0.9,1.4-1.8,2.1-2.7c0.2-0.2,0.4-0.5,0.5-0.7c0.8-1,1.5-2,2.3-3c0.1-0.2,0.2-0.3,0.4-0.5
					c3.5-4.7,6.9-9.5,10.2-14.4c0.1-0.1,0.1-0.2,0.2-0.2c0.8-1.1,1.5-2.2,2.2-3.4c0.2-0.2,0.3-0.5,0.5-0.7c0.6-1,1.3-2,1.9-2.9
					c0.2-0.3,0.4-0.6,0.6-1c0.6-0.9,1.1-1.8,1.7-2.7c0.2-0.4,0.5-0.7,0.7-1.1c0.5-0.9,1.1-1.7,1.6-2.6c0.2-0.4,0.5-0.8,0.7-1.2
					c0.5-0.9,1-1.7,1.5-2.6c0.2-0.4,0.5-0.8,0.7-1.2c0.5-0.8,1-1.7,1.5-2.5c0.2-0.4,0.5-0.9,0.7-1.3c0.5-0.8,0.9-1.7,1.4-2.5
					c0.2-0.4,0.5-0.9,0.7-1.3c0.5-0.8,0.9-1.7,1.4-2.6c0.2-0.4,0.5-0.9,0.7-1.3c0.5-0.9,0.9-1.7,1.4-2.6c0.2-0.4,0.4-0.9,0.7-1.3
					c0.5-0.9,0.9-1.8,1.4-2.7c0.2-0.4,0.4-0.8,0.6-1.2c0.5-0.9,0.9-1.9,1.4-2.8c0.2-0.4,0.4-0.7,0.5-1.1c0.5-1,1-2.1,1.5-3.1
					c0.1-0.3,0.3-0.6,0.4-0.8c0.6-1.3,1.2-2.5,1.7-3.8c0-0.1,0.1-0.1,0.1-0.2c1.2-2.7,2.4-5.4,3.6-8.2c0.1-0.2,0.1-0.4,0.2-0.5
					c0.5-1.2,1-2.3,1.5-3.5c0.1-0.4,0.3-0.7,0.4-1.1c0.4-1,0.8-2,1.2-3c0.2-0.4,0.3-0.9,0.5-1.3c0.4-0.9,0.7-1.8,1.1-2.8
					c0.2-0.5,0.4-1,0.6-1.5c0.3-0.9,0.7-1.8,1-2.6c0.2-0.5,0.4-1.1,0.6-1.6c0.3-0.8,0.6-1.7,0.9-2.6c0.2-0.6,0.4-1.1,0.6-1.7
					c0.3-0.8,0.6-1.7,0.9-2.5c0.2-0.6,0.4-1.1,0.6-1.7c0.3-0.8,0.5-1.7,0.8-2.5c0.2-0.6,0.4-1.2,0.6-1.7c0.3-0.8,0.5-1.7,0.8-2.5
					c0.2-0.6,0.4-1.2,0.5-1.7c0.3-0.8,0.5-1.7,0.7-2.5c0.2-0.6,0.3-1.2,0.5-1.7c0.2-0.9,0.5-1.7,0.7-2.6c0.2-0.6,0.3-1.1,0.5-1.7
					c0.2-0.9,0.5-1.7,0.7-2.6c0.1-0.6,0.3-1.1,0.4-1.7c0.2-0.9,0.5-1.8,0.7-2.8c0.1-0.5,0.3-1,0.4-1.6c0.2-1,0.5-2,0.7-3
					c0.1-0.4,0.2-0.9,0.3-1.3c0.3-1.3,0.6-2.5,0.9-3.8c0-0.2,0.1-0.4,0.1-0.6c0.3-1.5,0.6-2.9,0.9-4.4c0.1-0.3,0.1-0.6,0.2-0.8
					c0.2-1.2,0.5-2.4,0.7-3.6c0.1-0.5,0.2-1,0.3-1.5c0.2-1,0.4-1.9,0.5-2.9c0.1-0.6,0.2-1.2,0.3-1.7c0.2-0.9,0.3-1.8,0.5-2.7
					c0.1-0.6,0.2-1.2,0.3-1.9c0.1-0.9,0.3-1.7,0.4-2.6c0.1-0.6,0.2-1.3,0.3-1.9c0.1-0.8,0.2-1.7,0.4-2.5c0.1-0.7,0.2-1.3,0.3-2
					c0.1-0.8,0.2-1.7,0.3-2.5c0.1-0.7,0.2-1.3,0.2-2c0.1-0.8,0.2-1.7,0.3-2.5c0.1-0.7,0.1-1.4,0.2-2c0.1-0.8,0.2-1.7,0.3-2.5
					c0.1-0.7,0.1-1.4,0.2-2c0.1-0.8,0.2-1.7,0.2-2.5c0.1-0.7,0.1-1.4,0.2-2c0.1-0.8,0.1-1.7,0.2-2.5c0-0.7,0.1-1.4,0.1-2
					c0.1-0.9,0.1-1.7,0.2-2.6c0-0.7,0.1-1.3,0.1-2c0-0.9,0.1-1.8,0.1-2.7c0-0.6,0.1-1.3,0.1-1.9c0-0.9,0.1-1.9,0.1-2.8
					c0-0.6,0-1.2,0.1-1.8c0-1,0-2.1,0.1-3.1c0-0.5,0-1,0-1.5c0-1.5,0-3.1,0-4.6s0-3.1,0-4.6c0-0.2,0-0.4,0-0.5c0-1.4,0-2.7-0.1-4.1
					c0-0.1,0-0.1,0-0.2c-0.2-9.1-0.8-18.1-1.8-27c-23.3,8.6-47.8,14.7-73.2,18.1c-0.1,0-0.2,0-0.4,0c-2.5,0.3-4.9,0.6-7.4,0.9
					c-0.1,0-0.2,0-0.2,0c-4.9,0.5-9.8,1-14.8,1.3c-0.3,0-0.5,0-0.8,0.1c-2.3,0.2-4.6,0.3-6.9,0.4c-0.4,0-0.8,0-1.1,0.1
					c-2.3,0.1-4.6,0.2-6.9,0.2c-0.3,0-0.7,0-1,0c-2.4,0-4.8,0.1-7.2,0.1c-2,0-4.1,0-6.1-0.1c-0.5,0-1,0-1.4,0c-2,0-4.1-0.1-6.1-0.2
					c-0.1,0-0.3,0-0.4,0c-1.9-0.1-3.9-0.2-5.8-0.3c-0.4,0-0.8,0-1.3-0.1c-2-0.1-4.1-0.3-6.1-0.4c-0.2,0-0.3,0-0.5,0
					c-2-0.2-3.9-0.3-5.8-0.5c-0.3,0-0.6-0.1-0.9-0.1c-2.1-0.2-4.2-0.4-6.2-0.7c-0.1,0-0.2,0-0.3,0c-2-0.2-4.1-0.5-6.1-0.8
					c-0.2,0-0.3,0-0.5-0.1c-2.1-0.3-4.3-0.6-6.4-0.9h-0.1c-17.6-2.7-34.7-6.8-51.3-12.1c-0.5,5.1-0.8,10.2-1,15.3c0,0.2,0,0.4,0,0.6
					c-0.1,2.4-0.2,4.8-0.2,7.3c0,0.3,0,0.5,0,0.8c-0.1,2.5-0.1,4.9-0.1,7.4c0,1.6,0,3.1,0,4.6c0,0.5,0,1,0,1.5c0,1,0,2.1,0.1,3.1
					c0,0.6,0,1.2,0.1,1.8c0,0.9,0.1,1.9,0.1,2.8c0,0.6,0.1,1.3,0.1,1.9c0,0.9,0.1,1.8,0.1,2.7c0,0.7,0.1,1.3,0.1,2
					c0.1,0.9,0.1,1.7,0.2,2.6c0,0.7,0.1,1.4,0.1,2c0.1,0.8,0.1,1.7,0.2,2.5c0.1,0.7,0.1,1.4,0.2,2c0.1,0.8,0.1,1.7,0.2,2.5
					c0.1,0.7,0.1,1.4,0.2,2c0.1,0.8,0.2,1.7,0.3,2.5c0.1,0.7,0.1,1.3,0.2,2c0.1,0.8,0.2,1.7,0.3,2.5c0.1,0.7,0.2,1.3,0.2,2
					c0.1,0.8,0.2,1.7,0.3,2.5c0.1,0.7,0.2,1.3,0.3,2c0.1,0.9,0.2,1.7,0.4,2.6c0.1,0.6,0.2,1.3,0.3,1.9c0.1,0.9,0.3,1.7,0.4,2.6
					c0.1,0.6,0.2,1.2,0.3,1.8c0.1,0.9,0.3,1.8,0.5,2.7c0.1,0.6,0.2,1.1,0.3,1.7c0.2,1,0.4,2,0.5,3c0.1,0.5,0.2,1,0.3,1.5
					c0.2,1.2,0.5,2.4,0.7,3.7c0,0.2,0.1,0.5,0.1,0.7c0.3,1.5,0.6,3,0.9,4.4c0,0.2,0.1,0.4,0.1,0.6c0.3,1.3,0.6,2.5,0.9,3.8
					c0.1,0.4,0.2,0.9,0.3,1.3c0.2,1,0.5,2,0.7,3c0.1,0.5,0.3,1,0.4,1.6c0.2,0.9,0.5,1.8,0.7,2.8c0.1,0.6,0.3,1.1,0.4,1.7
					c0.2,0.9,0.5,1.8,0.7,2.6c0.2,0.6,0.3,1.1,0.5,1.7c0.2,0.9,0.5,1.7,0.7,2.6c0.2,0.6,0.3,1.2,0.5,1.7c0.2,0.8,0.5,1.7,0.8,2.5
					c0.2,0.6,0.4,1.2,0.5,1.7c0.3,0.8,0.5,1.7,0.8,2.5c0.2,0.6,0.4,1.1,0.5,1.7c0.3,0.8,0.5,1.7,0.8,2.5c0.2,0.6,0.4,1.1,0.6,1.7
					c0.3,0.8,0.6,1.7,0.9,2.5c0.2,0.5,0.4,1.1,0.6,1.6c0.3,0.9,0.6,1.7,0.9,2.6c0.2,0.5,0.4,1,0.6,1.6c0.3,0.9,0.7,1.8,1,2.7
					c0.2,0.5,0.4,1,0.5,1.5c0.4,0.9,0.7,1.9,1.1,2.8c0.2,0.4,0.3,0.9,0.5,1.3c0.4,1,0.8,2,1.2,3c0.1,0.3,0.3,0.7,0.4,1
					c0.5,1.2,1,2.5,1.5,3.7c0.1,0.1,0.1,0.2,0.2,0.4c1.2,2.8,2.4,5.5,3.6,8.2c0,0.1,0.1,0.1,0.1,0.2c0.6,1.3,1.1,2.5,1.7,3.8
					c0.1,0.3,0.3,0.6,0.4,0.8c0.5,1,1,2.1,1.5,3.1c0.2,0.4,0.3,0.7,0.5,1.1c0.5,1,0.9,1.9,1.4,2.9c0.2,0.4,0.4,0.8,0.6,1.2
					c0.5,0.9,0.9,1.8,1.4,2.7c0.2,0.4,0.4,0.8,0.6,1.2c0.5,0.9,0.9,1.8,1.4,2.6c0.2,0.4,0.4,0.8,0.7,1.3c0.5,0.9,0.9,1.7,1.4,2.6
					c0.2,0.4,0.5,0.8,0.7,1.3c0.5,0.9,1,1.7,1.4,2.6c0.2,0.4,0.5,0.8,0.7,1.2c0.5,0.9,1,1.7,1.5,2.6c0.2,0.4,0.5,0.8,0.7,1.2
					c0.5,0.9,1,1.7,1.5,2.6c0.2,0.4,0.5,0.8,0.7,1.1c0.5,0.9,1.1,1.8,1.6,2.7c0.2,0.3,0.4,0.7,0.6,1c0.6,0.9,1.2,1.9,1.8,2.8
					c0.2,0.3,0.4,0.6,0.6,0.9c0.6,1,1.3,2,2,3c0.1,0.2,0.3,0.4,0.4,0.6c0.8,1.2,1.6,2.4,2.4,3.6l0,0c3.3,4.9,6.7,9.7,10.3,14.4
					c0.1,0.1,0.2,0.3,0.3,0.4c0.8,1,1.5,2,2.3,3c0.2,0.2,0.3,0.4,0.5,0.7c0.7,0.9,1.4,1.9,2.2,2.8c0.2,0.3,0.4,0.5,0.6,0.8
					c0.7,0.9,1.4,1.8,2.1,2.6c0.2,0.3,0.5,0.6,0.7,0.8c0.7,0.8,1.4,1.7,2.1,2.5c0.2,0.3,0.5,0.6,0.7,0.9c0.7,0.8,1.4,1.7,2.1,2.5
					c0.2,0.3,0.5,0.6,0.7,0.9c0.7,0.8,1.4,1.6,2.1,2.4c0.2,0.3,0.5,0.6,0.7,0.8c0.7,0.8,1.4,1.6,2.2,2.5c0.2,0.3,0.5,0.5,0.7,0.8
					c0.8,0.8,1.5,1.7,2.3,2.5c0.2,0.2,0.4,0.5,0.7,0.7c0.8,0.9,1.6,1.7,2.4,2.6c0.2,0.2,0.4,0.4,0.6,0.6c0.9,0.9,1.7,1.8,2.6,2.7
					c0.1,0.1,0.3,0.3,0.4,0.4c1,1,2,2,3,3.1l0,0c4.2,4.2,8.5,8.3,12.9,12.3l0,0C959.6,1314.4,963.8,1310.4,968,1306.2z"/>
			</g>
		</g>
		<g class="st7">
			<g>
				<path class="st15" d="M842.1,1030.4c3.7-42,15-81.8,32.3-118.2c0,0,0,0,0-0.1c1.1-2.4,2.3-4.8,3.5-7.1c0-0.1,0.1-0.1,0.1-0.2
					c1.2-2.3,2.4-4.6,3.6-6.9c0-0.1,0.1-0.2,0.1-0.2c1.2-2.3,2.5-4.6,3.7-6.8c0-0.1,0.1-0.1,0.1-0.2c1.3-2.3,2.6-4.5,3.9-6.8
					l0.1-0.1c1.4-2.3,2.7-4.5,4.1-6.7l0,0c3.3-5.3,6.8-10.6,10.5-15.7c4-5.7,8.2-11.3,12.5-16.7c0.1-0.1,0.1-0.1,0.2-0.2
					c1.6-2,3.2-3.9,4.8-5.9c0.1-0.1,0.2-0.2,0.3-0.4c1.6-1.9,3.2-3.8,4.9-5.7c0.1-0.1,0.3-0.3,0.4-0.4c1.6-1.9,3.3-3.7,4.9-5.5
					c0.1-0.2,0.3-0.3,0.4-0.5c1.7-1.8,3.4-3.6,5.1-5.4c0.1-0.1,0.3-0.3,0.4-0.4c1.7-1.8,3.5-3.6,5.2-5.3c0.1-0.1,0.2-0.2,0.3-0.3
					c1.8-1.8,3.6-3.5,5.4-5.3c0.1-0.1,0.1-0.1,0.2-0.2c1.9-1.8,3.8-3.5,5.7-5.3l0,0c-61.7-55.9-143.6-90-233.5-90
					c-42.2,0-82.6,7.5-120,21.3C616,874.4,712.6,989.3,842.1,1030.4z"/>
			</g>
		</g>
		<g class="st7">
			<g>
				<path class="st16" d="M1044.4,930.2L1044.4,930.2c-1-2.4-2-4.9-3-7.3c0,0,0-0.1-0.1-0.1c-1-2.4-2.1-4.8-3.2-7.1
					c0,0,0-0.1-0.1-0.1c-1.1-2.4-2.2-4.7-3.3-7.1l0,0c-2.3-4.7-4.7-9.4-7.2-14s-5.1-9.2-7.8-13.6l0,0c-1.3-2.2-2.7-4.4-4-6.5
					c-0.1-0.1-0.1-0.2-0.2-0.3c-1.3-2.1-2.7-4.2-4.1-6.3c-0.1-0.1-0.2-0.2-0.2-0.4c-1.4-2.1-2.8-4.1-4.2-6.2
					c-0.1-0.1-0.2-0.2-0.2-0.3c-1.4-2.1-2.9-4.1-4.4-6.1c-0.1-0.1-0.1-0.1-0.2-0.2c-3.1-4.2-6.2-8.3-9.4-12.3c-3.2-4-6.6-8-10-11.8
					c-0.1-0.1-0.1-0.1-0.2-0.2c-1.6-1.9-3.3-3.7-5-5.5c-0.1-0.1-0.2-0.3-0.4-0.4c-1.6-1.8-3.3-3.6-5-5.3c-0.1-0.1-0.3-0.3-0.4-0.4
					c-1.7-1.7-3.4-3.5-5.1-5.2c-0.1-0.1-0.3-0.3-0.4-0.4c-1.7-1.7-3.5-3.4-5.3-5.1c-0.1-0.1-0.2-0.2-0.3-0.3
					c-1.8-1.7-3.7-3.5-5.6-5.2l0,0c-1.9,1.7-3.8,3.5-5.7,5.3c-0.1,0.1-0.1,0.1-0.2,0.2c-1.8,1.7-3.6,3.5-5.4,5.3
					c-0.1,0.1-0.2,0.2-0.3,0.3c-1.8,1.8-3.5,3.5-5.2,5.3c-0.1,0.1-0.3,0.3-0.4,0.4c-1.7,1.8-3.4,3.6-5.1,5.4
					c-0.1,0.2-0.3,0.3-0.4,0.5c-1.7,1.8-3.3,3.7-4.9,5.5c-0.1,0.1-0.3,0.3-0.4,0.4c-1.6,1.9-3.3,3.8-4.9,5.7
					c-0.1,0.1-0.2,0.2-0.3,0.4c-1.6,1.9-3.2,3.9-4.8,5.9c-0.1,0.1-0.1,0.1-0.2,0.2c-4.3,5.4-8.5,11-12.5,16.7
					c-3.6,5.1-7.1,10.4-10.5,15.7l0,0c-1.4,2.2-2.8,4.5-4.1,6.7l-0.1,0.1c-1.3,2.2-2.6,4.5-3.9,6.8c0,0.1-0.1,0.1-0.1,0.2
					c-1.3,2.3-2.5,4.5-3.7,6.8c0,0.1-0.1,0.2-0.1,0.2c-1.2,2.3-2.4,4.6-3.6,6.9c0,0.1-0.1,0.1-0.1,0.2c-1.2,2.4-2.4,4.7-3.5,7.1
					c0,0,0,0,0,0.1c-17.3,36.4-28.5,76.2-32.3,118.2c16.6,5.3,33.7,9.3,51.3,12.1h0.1c2.1,0.3,4.3,0.6,6.4,0.9c0.2,0,0.3,0,0.5,0.1
					c2,0.3,4.1,0.5,6.1,0.8c0.1,0,0.2,0,0.3,0c2.1,0.2,4.2,0.5,6.2,0.7c0.3,0,0.6,0.1,0.9,0.1c1.9,0.2,3.9,0.4,5.8,0.5
					c0.2,0,0.3,0,0.5,0c2,0.2,4.1,0.3,6.1,0.4c0.4,0,0.8,0,1.3,0.1c1.9,0.1,3.9,0.2,5.8,0.3c0.1,0,0.3,0,0.4,0c2,0.1,4,0.1,6.1,0.2
					c0.5,0,1,0,1.4,0c2,0,4.1,0.1,6.1,0.1c2.4,0,4.8,0,7.2-0.1c0.3,0,0.7,0,1,0c2.3-0.1,4.6-0.1,6.9-0.2c0.4,0,0.8,0,1.1-0.1
					c2.3-0.1,4.6-0.2,6.9-0.4c0.3,0,0.5,0,0.8-0.1c5-0.3,9.9-0.8,14.8-1.3c0.1,0,0.2,0,0.2,0c2.5-0.3,4.9-0.6,7.4-0.9
					c0.1,0,0.2,0,0.4,0c25.4-3.4,49.9-9.6,73.2-18.1C1064.2,991.2,1056.3,959.7,1044.4,930.2z"/>
			</g>
		</g>
		<text id="skills_text_4_" transform="matrix(1 0 0 1 559.6106 1120.4069)" class="st20"><tspan x="0" y="0" class="st23 st18 st19">Skills</tspan></text>
		<text id="services_text_4_" transform="matrix(1 0 0 1 1043.3523 1123.6367)" class="st20"><tspan x="0" y="0" class="st24 st18 st19"> </tspan><tspan x="27.8" y="0" class="st23 st18 st19">Services</tspan></text>
		<text id="products_text_4_" transform="matrix(1 0 0 1 741.4077 687.5724)" class="st20"><tspan x="0" y="0" class="st23 st18 st19">Products</tspan></text>
		<rect x="1722.4" y="684.3" class="st25" width="0.7" height="4.1"/>
	</g>
	<g>
		<g>
			<g>
				<path class="st9" d="M1294.6,728.9c-12.2,136.2-102.9,249.8-226.5,295.3c0.9,8.9,1.5,17.9,1.8,27c0,0.1,0,0.1,0,0.2
					c0,1.4,0.1,2.7,0.1,4.1c0,0.2,0,0.4,0,0.5c0,1.5,0,3,0,4.6c0,1.6,0,3.1,0,4.6c0,0.5,0,1,0,1.5c0,1,0,2.1-0.1,3.1
					c0,0.6,0,1.2-0.1,1.8c0,0.9-0.1,1.9-0.1,2.8c0,0.6-0.1,1.3-0.1,1.9c0,0.9-0.1,1.8-0.1,2.7c0,0.7-0.1,1.3-0.1,2
					c0,0.9-0.1,1.7-0.2,2.6c0,0.7-0.1,1.4-0.1,2c-0.1,0.8-0.1,1.7-0.2,2.5c-0.1,0.7-0.1,1.4-0.2,2c-0.1,0.8-0.1,1.7-0.2,2.5
					c-0.1,0.7-0.1,1.4-0.2,2c-0.1,0.8-0.2,1.7-0.3,2.5c-0.1,0.7-0.1,1.4-0.2,2c-0.1,0.8-0.2,1.7-0.3,2.5c-0.1,0.7-0.2,1.3-0.2,2
					c-0.1,0.8-0.2,1.7-0.3,2.5c-0.1,0.7-0.2,1.3-0.3,2c-0.1,0.8-0.2,1.7-0.4,2.5c-0.1,0.6-0.2,1.3-0.3,1.9c-0.1,0.9-0.3,1.7-0.4,2.6
					c-0.1,0.6-0.2,1.2-0.3,1.9c-0.1,0.9-0.3,1.8-0.5,2.7c-0.1,0.6-0.2,1.2-0.3,1.7c-0.2,1-0.4,1.9-0.5,2.9c-0.1,0.5-0.2,1-0.3,1.5
					c-0.2,1.2-0.5,2.4-0.7,3.6c-0.1,0.3-0.1,0.6-0.2,0.8c-0.3,1.5-0.6,3-0.9,4.4c0,0.2-0.1,0.4-0.1,0.6c-0.3,1.3-0.6,2.5-0.9,3.8
					c-0.1,0.4-0.2,0.9-0.3,1.3c-0.2,1-0.5,2-0.7,3c-0.1,0.5-0.3,1-0.4,1.6c-0.2,0.9-0.5,1.8-0.7,2.8c-0.1,0.6-0.3,1.1-0.4,1.7
					c-0.2,0.9-0.5,1.8-0.7,2.6c-0.2,0.6-0.3,1.1-0.5,1.7c-0.2,0.9-0.5,1.7-0.7,2.6c-0.2,0.6-0.3,1.2-0.5,1.7
					c-0.2,0.8-0.5,1.7-0.7,2.5c-0.2,0.6-0.4,1.2-0.5,1.7c-0.3,0.8-0.5,1.7-0.8,2.5c-0.2,0.6-0.4,1.2-0.6,1.7
					c-0.3,0.8-0.5,1.7-0.8,2.5c-0.2,0.6-0.4,1.1-0.6,1.7c-0.3,0.8-0.6,1.7-0.9,2.5c-0.2,0.6-0.4,1.1-0.6,1.7
					c-0.3,0.9-0.6,1.7-0.9,2.6c-0.2,0.5-0.4,1.1-0.6,1.6c-0.3,0.9-0.6,1.8-1,2.6c-0.2,0.5-0.4,1-0.6,1.5c-0.3,0.9-0.7,1.8-1.1,2.8
					c-0.2,0.4-0.3,0.9-0.5,1.3c-0.4,1-0.8,2-1.2,3c-0.1,0.4-0.3,0.7-0.4,1.1c-0.5,1.2-1,2.3-1.5,3.5c-0.1,0.2-0.1,0.4-0.2,0.5
					c-1.2,2.7-2.4,5.5-3.6,8.2c0,0.1-0.1,0.1-0.1,0.2c-0.6,1.3-1.2,2.5-1.7,3.8c-0.1,0.3-0.3,0.6-0.4,0.8c-0.5,1-1,2.1-1.5,3.1
					c-0.2,0.4-0.4,0.7-0.5,1.1c-0.5,0.9-0.9,1.9-1.4,2.8c-0.2,0.4-0.4,0.8-0.6,1.2c-0.5,0.9-0.9,1.8-1.4,2.7
					c-0.2,0.4-0.4,0.9-0.7,1.3c-0.5,0.9-0.9,1.7-1.4,2.6c-0.2,0.4-0.5,0.9-0.7,1.3c-0.5,0.9-0.9,1.7-1.4,2.6
					c-0.2,0.4-0.5,0.9-0.7,1.3c-0.5,0.8-0.9,1.7-1.4,2.5c-0.2,0.4-0.5,0.9-0.7,1.3c-0.5,0.8-1,1.7-1.5,2.5c-0.2,0.4-0.5,0.8-0.7,1.2
					c-0.5,0.9-1,1.7-1.5,2.6c-0.2,0.4-0.5,0.8-0.7,1.2c-0.5,0.9-1.1,1.7-1.6,2.6c-0.2,0.4-0.4,0.7-0.7,1.1c-0.6,0.9-1.1,1.8-1.7,2.7
					c-0.2,0.3-0.4,0.6-0.6,1c-0.6,1-1.3,2-1.9,2.9c-0.2,0.2-0.3,0.5-0.5,0.7c-0.7,1.1-1.5,2.2-2.2,3.4c-0.1,0.1-0.1,0.2-0.2,0.2
					c-3.3,4.9-6.7,9.7-10.2,14.4c-0.1,0.2-0.2,0.3-0.4,0.5c-0.8,1-1.5,2-2.3,3c-0.2,0.2-0.4,0.5-0.5,0.7c-0.7,0.9-1.4,1.8-2.1,2.7
					c-0.2,0.3-0.4,0.6-0.7,0.8c-0.7,0.9-1.4,1.7-2.1,2.6c-0.2,0.3-0.5,0.6-0.7,0.9c-0.7,0.8-1.4,1.7-2,2.5c-0.3,0.3-0.5,0.6-0.8,0.9
					c-0.7,0.8-1.4,1.6-2,2.4c-0.3,0.3-0.5,0.6-0.8,0.9c-0.7,0.8-1.4,1.6-2.1,2.4c-0.3,0.3-0.5,0.6-0.8,0.9c-0.7,0.8-1.4,1.6-2.1,2.4
					c-0.3,0.3-0.5,0.6-0.8,0.9c-0.7,0.8-1.5,1.6-2.2,2.4c-0.2,0.3-0.5,0.5-0.7,0.8c-0.8,0.8-1.5,1.7-2.3,2.5
					c-0.2,0.2-0.4,0.5-0.6,0.7c-0.8,0.9-1.7,1.7-2.5,2.6c-0.2,0.2-0.3,0.3-0.5,0.5c-0.9,1-1.9,1.9-2.8,2.9c-0.1,0.1-0.1,0.1-0.2,0.2
					c-4.2,4.2-8.4,8.3-12.8,12.2l0,0c61.7,55.9,143.6,90,233.5,90c192.1,0,347.9-155.8,347.9-347.9
					C1537.1,905.1,1435.2,773.5,1294.6,728.9z"/>
			</g>
		</g>
		<g>
			<g>
				<path class="st10" d="M955.2,804.4c61.7-56,143.7-90.1,233.6-90.1c36.8,0,72.2,5.7,105.4,16.3c0.9-10.3,1.4-20.8,1.4-31.3
					c0-192.1-155.8-347.9-347.9-347.9s-348,155.8-348,347.9c0,12.3,0.6,24.4,1.9,36.4c37.4-13.8,77.8-21.3,120-21.3
					C811.5,714.4,893.4,748.5,955.2,804.4z"/>
			</g>
		</g>
		<g class="st1">
			<g>
				<path class="st12" d="M955.1,802.5c1.9,1.7,3.7,3.4,5.6,5.2c0.1,0.1,0.2,0.2,0.3,0.3c1.8,1.7,3.5,3.4,5.3,5.1
					c0.1,0.1,0.3,0.3,0.4,0.4c1.7,1.7,3.4,3.4,5.1,5.2c0.1,0.1,0.3,0.3,0.4,0.4c1.7,1.8,3.4,3.5,5,5.3c0.1,0.1,0.2,0.3,0.4,0.4
					c1.7,1.8,3.3,3.7,5,5.5c0.1,0.1,0.1,0.1,0.2,0.2c3.4,3.9,6.7,7.8,10,11.8c3.2,4,6.4,8.1,9.4,12.3c0.1,0.1,0.1,0.1,0.2,0.2
					c1.5,2,2.9,4.1,4.4,6.1c0.1,0.1,0.2,0.2,0.2,0.3c1.4,2,2.8,4.1,4.2,6.2c0.1,0.1,0.2,0.2,0.2,0.4c1.4,2.1,2.8,4.2,4.1,6.3
					c0.1,0.1,0.1,0.2,0.2,0.3c1.4,2.2,2.7,4.3,4,6.5l0,0c2.7,4.5,5.3,9,7.8,13.6s4.9,9.3,7.2,14l0,0c1.1,2.3,2.3,4.7,3.3,7.1
					c0,0,0,0.1,0.1,0.1c1.1,2.4,2.1,4.7,3.2,7.1c0,0,0,0.1,0.1,0.1c1,2.4,2,4.8,3,7.3l0,0c11.9,29.5,19.9,61,23.3,93.8
					c123.6-45.4,214.3-159.1,226.5-295.3c-33.3-10.6-68.7-16.3-105.4-16.3C1098.7,712.4,1016.8,746.5,955.1,802.5z"/>
			</g>
		</g>
		<g>
			<g>
				<path class="st13" d="M943.2,1306.6c-1-1-2-2-3-3.1c-0.1-0.1-0.3-0.3-0.4-0.4c-0.9-0.9-1.8-1.8-2.6-2.7
					c-0.2-0.2-0.4-0.4-0.6-0.6c-0.8-0.9-1.6-1.7-2.4-2.6c-0.2-0.2-0.4-0.5-0.7-0.7c-0.8-0.8-1.5-1.7-2.3-2.5
					c-0.2-0.3-0.5-0.5-0.7-0.8c-0.7-0.8-1.5-1.6-2.2-2.5c-0.2-0.3-0.5-0.6-0.7-0.8c-0.7-0.8-1.4-1.6-2.1-2.4
					c-0.3-0.3-0.5-0.6-0.7-0.9c-0.7-0.8-1.4-1.6-2.1-2.5c-0.2-0.3-0.5-0.6-0.7-0.9c-0.7-0.8-1.4-1.7-2.1-2.5
					c-0.2-0.3-0.5-0.6-0.7-0.8c-0.7-0.9-1.4-1.7-2.1-2.6c-0.2-0.3-0.4-0.5-0.6-0.8c-0.7-0.9-1.4-1.8-2.2-2.8
					c-0.2-0.2-0.3-0.4-0.5-0.7c-0.8-1-1.5-2-2.3-3c-0.1-0.1-0.2-0.3-0.3-0.4c-3.5-4.7-7-9.5-10.3-14.4l0,0c-0.8-1.2-1.6-2.4-2.4-3.6
					c-0.1-0.2-0.3-0.4-0.4-0.6c-0.7-1-1.3-2-2-3c-0.2-0.3-0.4-0.6-0.6-0.9c-0.6-0.9-1.2-1.9-1.8-2.8c-0.2-0.3-0.4-0.7-0.6-1
					c-0.5-0.9-1.1-1.8-1.6-2.7c-0.2-0.4-0.5-0.8-0.7-1.1c-0.5-0.9-1-1.7-1.5-2.6c-0.2-0.4-0.5-0.8-0.7-1.2c-0.5-0.9-1-1.7-1.5-2.6
					c-0.2-0.4-0.5-0.8-0.7-1.2c-0.5-0.9-1-1.7-1.4-2.6c-0.2-0.4-0.5-0.8-0.7-1.3c-0.5-0.9-0.9-1.7-1.4-2.6c-0.2-0.4-0.5-0.8-0.7-1.3
					c-0.5-0.9-0.9-1.8-1.4-2.6c-0.2-0.4-0.4-0.8-0.6-1.2c-0.5-0.9-0.9-1.8-1.4-2.7c-0.2-0.4-0.4-0.8-0.6-1.2c-0.5-1-0.9-1.9-1.4-2.9
					c-0.2-0.4-0.4-0.7-0.5-1.1c-0.5-1-1-2.1-1.5-3.1c-0.1-0.3-0.3-0.6-0.4-0.8c-0.6-1.2-1.2-2.5-1.7-3.8c0-0.1-0.1-0.1-0.1-0.2
					c-1.2-2.7-2.4-5.4-3.6-8.2c-0.1-0.1-0.1-0.2-0.2-0.4c-0.5-1.2-1-2.4-1.5-3.7c-0.1-0.3-0.3-0.7-0.4-1c-0.4-1-0.8-2-1.2-3
					c-0.2-0.4-0.3-0.9-0.5-1.3c-0.4-0.9-0.7-1.9-1.1-2.8c-0.2-0.5-0.4-1-0.5-1.5c-0.3-0.9-0.7-1.8-1-2.7c-0.2-0.5-0.4-1-0.6-1.6
					c-0.3-0.9-0.6-1.7-0.9-2.6c-0.2-0.5-0.4-1.1-0.6-1.6c-0.3-0.8-0.6-1.7-0.9-2.5c-0.2-0.6-0.4-1.1-0.6-1.7
					c-0.3-0.8-0.5-1.7-0.8-2.5c-0.2-0.6-0.4-1.1-0.5-1.7c-0.3-0.8-0.5-1.7-0.8-2.5c-0.2-0.6-0.4-1.2-0.5-1.7
					c-0.3-0.8-0.5-1.7-0.8-2.5c-0.2-0.6-0.3-1.2-0.5-1.7c-0.2-0.9-0.5-1.7-0.7-2.6c-0.2-0.6-0.3-1.1-0.5-1.7
					c-0.2-0.9-0.5-1.8-0.7-2.6c-0.1-0.6-0.3-1.1-0.4-1.7c-0.2-0.9-0.5-1.8-0.7-2.8c-0.1-0.5-0.3-1-0.4-1.6c-0.2-1-0.5-2-0.7-3
					c-0.1-0.4-0.2-0.9-0.3-1.3c-0.3-1.3-0.6-2.5-0.9-3.8c0-0.2-0.1-0.4-0.1-0.6c-0.3-1.5-0.6-3-0.9-4.4c0-0.2-0.1-0.5-0.1-0.7
					c-0.2-1.2-0.5-2.4-0.7-3.7c-0.1-0.5-0.2-1-0.3-1.5c-0.2-1-0.4-2-0.5-3c-0.1-0.6-0.2-1.1-0.3-1.7c-0.2-0.9-0.3-1.8-0.5-2.7
					c-0.1-0.6-0.2-1.2-0.3-1.8c-0.1-0.9-0.3-1.7-0.4-2.6c-0.1-0.6-0.2-1.3-0.3-1.9c-0.1-0.8-0.2-1.7-0.4-2.6c-0.1-0.7-0.2-1.3-0.3-2
					c-0.1-0.8-0.2-1.7-0.3-2.5c-0.1-0.7-0.2-1.3-0.2-2c-0.1-0.8-0.2-1.7-0.3-2.5c-0.1-0.7-0.1-1.3-0.2-2c-0.1-0.8-0.2-1.7-0.3-2.5
					c-0.1-0.7-0.1-1.4-0.2-2c-0.1-0.8-0.2-1.7-0.2-2.5c-0.1-0.7-0.1-1.4-0.2-2c-0.1-0.8-0.1-1.7-0.2-2.5c0-0.7-0.1-1.4-0.1-2
					c-0.1-0.9-0.1-1.7-0.2-2.6c0-0.7-0.1-1.3-0.1-2c0-0.9-0.1-1.8-0.1-2.7c0-0.6-0.1-1.3-0.1-1.9c0-0.9-0.1-1.9-0.1-2.8
					c0-0.6,0-1.2-0.1-1.8c0-1,0-2.1-0.1-3.1c0-0.5,0-1,0-1.5c0-1.5,0-3.1,0-4.6c0-2.5,0-4.9,0.1-7.4c0-0.3,0-0.5,0-0.8
					c0.1-2.4,0.1-4.9,0.2-7.3c0-0.2,0-0.4,0-0.6c0.2-5.1,0.6-10.2,1-15.3c-129.5-41.1-226.1-156-240.6-295.3
					c-133,48.9-227.9,176.7-227.9,326.6c0,192.1,155.8,347.9,347.9,347.9c89.9,0,171.8-34.1,233.6-90.1
					C951.7,1314.9,947.4,1310.8,943.2,1306.6L943.2,1306.6z"/>
			</g>
		</g>
		<g>
			<g>
				<path class="st14" d="M968,1306.2c0.1-0.1,0.1-0.1,0.2-0.2c0.9-1,1.9-1.9,2.8-2.9c0.2-0.2,0.3-0.3,0.5-0.5
					c0.8-0.9,1.7-1.7,2.5-2.6c0.2-0.2,0.4-0.5,0.6-0.7c0.8-0.8,1.6-1.7,2.3-2.5c0.2-0.3,0.5-0.5,0.7-0.8c0.7-0.8,1.5-1.6,2.2-2.4
					c0.3-0.3,0.5-0.6,0.8-0.9c0.7-0.8,1.4-1.6,2.1-2.4c0.3-0.3,0.5-0.6,0.8-0.9c0.7-0.8,1.4-1.6,2.1-2.4c0.3-0.3,0.5-0.6,0.8-0.9
					c0.7-0.8,1.4-1.6,2-2.4c0.3-0.3,0.5-0.6,0.8-0.9c0.7-0.8,1.4-1.6,2-2.5c0.2-0.3,0.5-0.6,0.7-0.9c0.7-0.9,1.4-1.7,2.1-2.6
					c0.2-0.3,0.4-0.6,0.7-0.8c0.7-0.9,1.4-1.8,2.1-2.7c0.2-0.2,0.4-0.5,0.5-0.7c0.8-1,1.5-2,2.3-3c0.1-0.2,0.2-0.3,0.4-0.5
					c3.5-4.7,6.9-9.5,10.2-14.4c0.1-0.1,0.1-0.2,0.2-0.2c0.8-1.1,1.5-2.2,2.2-3.4c0.2-0.2,0.3-0.5,0.5-0.7c0.6-1,1.3-2,1.9-2.9
					c0.2-0.3,0.4-0.6,0.6-1c0.6-0.9,1.1-1.8,1.7-2.7c0.2-0.4,0.5-0.7,0.7-1.1c0.5-0.9,1.1-1.7,1.6-2.6c0.2-0.4,0.5-0.8,0.7-1.2
					c0.5-0.9,1-1.7,1.5-2.6c0.2-0.4,0.5-0.8,0.7-1.2c0.5-0.8,1-1.7,1.5-2.5c0.2-0.4,0.5-0.9,0.7-1.3c0.5-0.8,0.9-1.7,1.4-2.5
					c0.2-0.4,0.5-0.9,0.7-1.3c0.5-0.8,0.9-1.7,1.4-2.6c0.2-0.4,0.5-0.9,0.7-1.3c0.5-0.9,0.9-1.7,1.4-2.6c0.2-0.4,0.4-0.9,0.7-1.3
					c0.5-0.9,0.9-1.8,1.4-2.7c0.2-0.4,0.4-0.8,0.6-1.2c0.5-0.9,0.9-1.9,1.4-2.8c0.2-0.4,0.4-0.7,0.5-1.1c0.5-1,1-2.1,1.5-3.1
					c0.1-0.3,0.3-0.6,0.4-0.8c0.6-1.3,1.2-2.5,1.7-3.8c0-0.1,0.1-0.1,0.1-0.2c1.2-2.7,2.4-5.4,3.6-8.2c0.1-0.2,0.1-0.4,0.2-0.5
					c0.5-1.2,1-2.3,1.5-3.5c0.1-0.4,0.3-0.7,0.4-1.1c0.4-1,0.8-2,1.2-3c0.2-0.4,0.3-0.9,0.5-1.3c0.4-0.9,0.7-1.8,1.1-2.8
					c0.2-0.5,0.4-1,0.6-1.5c0.3-0.9,0.7-1.8,1-2.6c0.2-0.5,0.4-1.1,0.6-1.6c0.3-0.8,0.6-1.7,0.9-2.6c0.2-0.6,0.4-1.1,0.6-1.7
					c0.3-0.8,0.6-1.7,0.9-2.5c0.2-0.6,0.4-1.1,0.6-1.7c0.3-0.8,0.5-1.7,0.8-2.5c0.2-0.6,0.4-1.2,0.6-1.7c0.3-0.8,0.5-1.7,0.8-2.5
					c0.2-0.6,0.4-1.2,0.5-1.7c0.3-0.8,0.5-1.7,0.7-2.5c0.2-0.6,0.3-1.2,0.5-1.7c0.2-0.9,0.5-1.7,0.7-2.6c0.2-0.6,0.3-1.1,0.5-1.7
					c0.2-0.9,0.5-1.7,0.7-2.6c0.1-0.6,0.3-1.1,0.4-1.7c0.2-0.9,0.5-1.8,0.7-2.8c0.1-0.5,0.3-1,0.4-1.6c0.2-1,0.5-2,0.7-3
					c0.1-0.4,0.2-0.9,0.3-1.3c0.3-1.3,0.6-2.5,0.9-3.8c0-0.2,0.1-0.4,0.1-0.6c0.3-1.5,0.6-2.9,0.9-4.4c0.1-0.3,0.1-0.6,0.2-0.8
					c0.2-1.2,0.5-2.4,0.7-3.6c0.1-0.5,0.2-1,0.3-1.5c0.2-1,0.4-1.9,0.5-2.9c0.1-0.6,0.2-1.2,0.3-1.7c0.2-0.9,0.3-1.8,0.5-2.7
					c0.1-0.6,0.2-1.2,0.3-1.9c0.1-0.9,0.3-1.7,0.4-2.6c0.1-0.6,0.2-1.3,0.3-1.9c0.1-0.8,0.2-1.7,0.4-2.5c0.1-0.7,0.2-1.3,0.3-2
					c0.1-0.8,0.2-1.7,0.3-2.5c0.1-0.7,0.2-1.3,0.2-2c0.1-0.8,0.2-1.7,0.3-2.5c0.1-0.7,0.1-1.4,0.2-2c0.1-0.8,0.2-1.7,0.3-2.5
					c0.1-0.7,0.1-1.4,0.2-2c0.1-0.8,0.2-1.7,0.2-2.5c0.1-0.7,0.1-1.4,0.2-2c0.1-0.8,0.1-1.7,0.2-2.5c0-0.7,0.1-1.4,0.1-2
					c0.1-0.9,0.1-1.7,0.2-2.6c0-0.7,0.1-1.3,0.1-2c0-0.9,0.1-1.8,0.1-2.7c0-0.6,0.1-1.3,0.1-1.9c0-0.9,0.1-1.9,0.1-2.8
					c0-0.6,0-1.2,0.1-1.8c0-1,0-2.1,0.1-3.1c0-0.5,0-1,0-1.5c0-1.5,0-3.1,0-4.6s0-3.1,0-4.6c0-0.2,0-0.4,0-0.5c0-1.4,0-2.7-0.1-4.1
					c0-0.1,0-0.1,0-0.2c-0.2-9.1-0.8-18.1-1.8-27c-23.3,8.6-47.8,14.7-73.2,18.1c-0.1,0-0.2,0-0.4,0c-2.5,0.3-4.9,0.6-7.4,0.9
					c-0.1,0-0.2,0-0.2,0c-4.9,0.5-9.8,1-14.8,1.3c-0.3,0-0.5,0-0.8,0.1c-2.3,0.2-4.6,0.3-6.9,0.4c-0.4,0-0.8,0-1.1,0.1
					c-2.3,0.1-4.6,0.2-6.9,0.2c-0.3,0-0.7,0-1,0c-2.4,0-4.8,0.1-7.2,0.1c-2,0-4.1,0-6.1-0.1c-0.5,0-1,0-1.4,0c-2,0-4.1-0.1-6.1-0.2
					c-0.1,0-0.3,0-0.4,0c-1.9-0.1-3.9-0.2-5.8-0.3c-0.4,0-0.8,0-1.3-0.1c-2-0.1-4.1-0.3-6.1-0.4c-0.2,0-0.3,0-0.5,0
					c-2-0.2-3.9-0.3-5.8-0.5c-0.3,0-0.6-0.1-0.9-0.1c-2.1-0.2-4.2-0.4-6.2-0.7c-0.1,0-0.2,0-0.3,0c-2-0.2-4.1-0.5-6.1-0.8
					c-0.2,0-0.3,0-0.5-0.1c-2.1-0.3-4.3-0.6-6.4-0.9h-0.1c-17.6-2.7-34.7-6.8-51.3-12.1c-0.5,5.1-0.8,10.2-1,15.3c0,0.2,0,0.4,0,0.6
					c-0.1,2.4-0.2,4.8-0.2,7.3c0,0.3,0,0.5,0,0.8c-0.1,2.5-0.1,4.9-0.1,7.4c0,1.6,0,3.1,0,4.6c0,0.5,0,1,0,1.5c0,1,0,2.1,0.1,3.1
					c0,0.6,0,1.2,0.1,1.8c0,0.9,0.1,1.9,0.1,2.8c0,0.6,0.1,1.3,0.1,1.9c0,0.9,0.1,1.8,0.1,2.7c0,0.7,0.1,1.3,0.1,2
					c0.1,0.9,0.1,1.7,0.2,2.6c0,0.7,0.1,1.4,0.1,2c0.1,0.8,0.1,1.7,0.2,2.5c0.1,0.7,0.1,1.4,0.2,2c0.1,0.8,0.1,1.7,0.2,2.5
					c0.1,0.7,0.1,1.4,0.2,2c0.1,0.8,0.2,1.7,0.3,2.5c0.1,0.7,0.1,1.3,0.2,2c0.1,0.8,0.2,1.7,0.3,2.5c0.1,0.7,0.2,1.3,0.2,2
					c0.1,0.8,0.2,1.7,0.3,2.5c0.1,0.7,0.2,1.3,0.3,2c0.1,0.9,0.2,1.7,0.4,2.6c0.1,0.6,0.2,1.3,0.3,1.9c0.1,0.9,0.3,1.7,0.4,2.6
					c0.1,0.6,0.2,1.2,0.3,1.8c0.1,0.9,0.3,1.8,0.5,2.7c0.1,0.6,0.2,1.1,0.3,1.7c0.2,1,0.4,2,0.5,3c0.1,0.5,0.2,1,0.3,1.5
					c0.2,1.2,0.5,2.4,0.7,3.7c0,0.2,0.1,0.5,0.1,0.7c0.3,1.5,0.6,3,0.9,4.4c0,0.2,0.1,0.4,0.1,0.6c0.3,1.3,0.6,2.5,0.9,3.8
					c0.1,0.4,0.2,0.9,0.3,1.3c0.2,1,0.5,2,0.7,3c0.1,0.5,0.3,1,0.4,1.6c0.2,0.9,0.5,1.8,0.7,2.8c0.1,0.6,0.3,1.1,0.4,1.7
					c0.2,0.9,0.5,1.8,0.7,2.6c0.2,0.6,0.3,1.1,0.5,1.7c0.2,0.9,0.5,1.7,0.7,2.6c0.2,0.6,0.3,1.2,0.5,1.7c0.2,0.8,0.5,1.7,0.8,2.5
					c0.2,0.6,0.4,1.2,0.5,1.7c0.3,0.8,0.5,1.7,0.8,2.5c0.2,0.6,0.4,1.1,0.5,1.7c0.3,0.8,0.5,1.7,0.8,2.5c0.2,0.6,0.4,1.1,0.6,1.7
					c0.3,0.8,0.6,1.7,0.9,2.5c0.2,0.5,0.4,1.1,0.6,1.6c0.3,0.9,0.6,1.7,0.9,2.6c0.2,0.5,0.4,1,0.6,1.6c0.3,0.9,0.7,1.8,1,2.7
					c0.2,0.5,0.4,1,0.5,1.5c0.4,0.9,0.7,1.9,1.1,2.8c0.2,0.4,0.3,0.9,0.5,1.3c0.4,1,0.8,2,1.2,3c0.1,0.3,0.3,0.7,0.4,1
					c0.5,1.2,1,2.5,1.5,3.7c0.1,0.1,0.1,0.2,0.2,0.4c1.2,2.8,2.4,5.5,3.6,8.2c0,0.1,0.1,0.1,0.1,0.2c0.6,1.3,1.1,2.5,1.7,3.8
					c0.1,0.3,0.3,0.6,0.4,0.8c0.5,1,1,2.1,1.5,3.1c0.2,0.4,0.3,0.7,0.5,1.1c0.5,1,0.9,1.9,1.4,2.9c0.2,0.4,0.4,0.8,0.6,1.2
					c0.5,0.9,0.9,1.8,1.4,2.7c0.2,0.4,0.4,0.8,0.6,1.2c0.5,0.9,0.9,1.8,1.4,2.6c0.2,0.4,0.4,0.8,0.7,1.3c0.5,0.9,0.9,1.7,1.4,2.6
					c0.2,0.4,0.5,0.8,0.7,1.3c0.5,0.9,1,1.7,1.4,2.6c0.2,0.4,0.5,0.8,0.7,1.2c0.5,0.9,1,1.7,1.5,2.6c0.2,0.4,0.5,0.8,0.7,1.2
					c0.5,0.9,1,1.7,1.5,2.6c0.2,0.4,0.5,0.8,0.7,1.1c0.5,0.9,1.1,1.8,1.6,2.7c0.2,0.3,0.4,0.7,0.6,1c0.6,0.9,1.2,1.9,1.8,2.8
					c0.2,0.3,0.4,0.6,0.6,0.9c0.6,1,1.3,2,2,3c0.1,0.2,0.3,0.4,0.4,0.6c0.8,1.2,1.6,2.4,2.4,3.6l0,0c3.3,4.9,6.7,9.7,10.3,14.4
					c0.1,0.1,0.2,0.3,0.3,0.4c0.8,1,1.5,2,2.3,3c0.2,0.2,0.3,0.4,0.5,0.7c0.7,0.9,1.4,1.9,2.2,2.8c0.2,0.3,0.4,0.5,0.6,0.8
					c0.7,0.9,1.4,1.8,2.1,2.6c0.2,0.3,0.5,0.6,0.7,0.8c0.7,0.8,1.4,1.7,2.1,2.5c0.2,0.3,0.5,0.6,0.7,0.9c0.7,0.8,1.4,1.7,2.1,2.5
					c0.2,0.3,0.5,0.6,0.7,0.9c0.7,0.8,1.4,1.6,2.1,2.4c0.2,0.3,0.5,0.6,0.7,0.8c0.7,0.8,1.4,1.6,2.2,2.5c0.2,0.3,0.5,0.5,0.7,0.8
					c0.8,0.8,1.5,1.7,2.3,2.5c0.2,0.2,0.4,0.5,0.7,0.7c0.8,0.9,1.6,1.7,2.4,2.6c0.2,0.2,0.4,0.4,0.6,0.6c0.9,0.9,1.7,1.8,2.6,2.7
					c0.1,0.1,0.3,0.3,0.4,0.4c1,1,2,2,3,3.1l0,0c4.2,4.2,8.5,8.3,12.9,12.3l0,0C959.6,1314.4,963.8,1310.4,968,1306.2z"/>
			</g>
		</g>
		<g class="st1">
			<g>
				<path class="st15" d="M842.1,1030.4c3.7-42,15-81.8,32.3-118.2c0,0,0,0,0-0.1c1.1-2.4,2.3-4.8,3.5-7.1c0-0.1,0.1-0.1,0.1-0.2
					c1.2-2.3,2.4-4.6,3.6-6.9c0-0.1,0.1-0.2,0.1-0.2c1.2-2.3,2.5-4.6,3.7-6.8c0-0.1,0.1-0.1,0.1-0.2c1.3-2.3,2.6-4.5,3.9-6.8
					l0.1-0.1c1.4-2.3,2.7-4.5,4.1-6.7l0,0c3.3-5.3,6.8-10.6,10.5-15.7c4-5.7,8.2-11.3,12.5-16.7c0.1-0.1,0.1-0.1,0.2-0.2
					c1.6-2,3.2-3.9,4.8-5.9c0.1-0.1,0.2-0.2,0.3-0.4c1.6-1.9,3.2-3.8,4.9-5.7c0.1-0.1,0.3-0.3,0.4-0.4c1.6-1.9,3.3-3.7,4.9-5.5
					c0.1-0.2,0.3-0.3,0.4-0.5c1.7-1.8,3.4-3.6,5.1-5.4c0.1-0.1,0.3-0.3,0.4-0.4c1.7-1.8,3.5-3.6,5.2-5.3c0.1-0.1,0.2-0.2,0.3-0.3
					c1.8-1.8,3.6-3.5,5.4-5.3c0.1-0.1,0.1-0.1,0.2-0.2c1.9-1.8,3.8-3.5,5.7-5.3l0,0c-61.7-55.9-143.6-90-233.5-90
					c-42.2,0-82.6,7.5-120,21.3C616,874.4,712.6,989.3,842.1,1030.4z"/>
			</g>
		</g>
		<g class="st1">
			<g>
				<path class="st16" d="M1044.4,930.2L1044.4,930.2c-1-2.4-2-4.9-3-7.3c0,0,0-0.1-0.1-0.1c-1-2.4-2.1-4.8-3.2-7.1
					c0,0,0-0.1-0.1-0.1c-1.1-2.4-2.2-4.7-3.3-7.1l0,0c-2.3-4.7-4.7-9.4-7.2-14s-5.1-9.2-7.8-13.6l0,0c-1.3-2.2-2.7-4.4-4-6.5
					c-0.1-0.1-0.1-0.2-0.2-0.3c-1.3-2.1-2.7-4.2-4.1-6.3c-0.1-0.1-0.2-0.2-0.2-0.4c-1.4-2.1-2.8-4.1-4.2-6.2
					c-0.1-0.1-0.2-0.2-0.2-0.3c-1.4-2.1-2.9-4.1-4.4-6.1c-0.1-0.1-0.1-0.1-0.2-0.2c-3.1-4.2-6.2-8.3-9.4-12.3c-3.2-4-6.6-8-10-11.8
					c-0.1-0.1-0.1-0.1-0.2-0.2c-1.6-1.9-3.3-3.7-5-5.5c-0.1-0.1-0.2-0.3-0.4-0.4c-1.6-1.8-3.3-3.6-5-5.3c-0.1-0.1-0.3-0.3-0.4-0.4
					c-1.7-1.7-3.4-3.5-5.1-5.2c-0.1-0.1-0.3-0.3-0.4-0.4c-1.7-1.7-3.5-3.4-5.3-5.1c-0.1-0.1-0.2-0.2-0.3-0.3
					c-1.8-1.7-3.7-3.5-5.6-5.2l0,0c-1.9,1.7-3.8,3.5-5.7,5.3c-0.1,0.1-0.1,0.1-0.2,0.2c-1.8,1.7-3.6,3.5-5.4,5.3
					c-0.1,0.1-0.2,0.2-0.3,0.3c-1.8,1.8-3.5,3.5-5.2,5.3c-0.1,0.1-0.3,0.3-0.4,0.4c-1.7,1.8-3.4,3.6-5.1,5.4
					c-0.1,0.2-0.3,0.3-0.4,0.5c-1.7,1.8-3.3,3.7-4.9,5.5c-0.1,0.1-0.3,0.3-0.4,0.4c-1.6,1.9-3.3,3.8-4.9,5.7
					c-0.1,0.1-0.2,0.2-0.3,0.4c-1.6,1.9-3.2,3.9-4.8,5.9c-0.1,0.1-0.1,0.1-0.2,0.2c-4.3,5.4-8.5,11-12.5,16.7
					c-3.6,5.1-7.1,10.4-10.5,15.7l0,0c-1.4,2.2-2.8,4.5-4.1,6.7l-0.1,0.1c-1.3,2.2-2.6,4.5-3.9,6.8c0,0.1-0.1,0.1-0.1,0.2
					c-1.3,2.3-2.5,4.5-3.7,6.8c0,0.1-0.1,0.2-0.1,0.2c-1.2,2.3-2.4,4.6-3.6,6.9c0,0.1-0.1,0.1-0.1,0.2c-1.2,2.4-2.4,4.7-3.5,7.1
					c0,0,0,0,0,0.1c-17.3,36.4-28.5,76.2-32.3,118.2c16.6,5.3,33.7,9.3,51.3,12.1h0.1c2.1,0.3,4.3,0.6,6.4,0.9c0.2,0,0.3,0,0.5,0.1
					c2,0.3,4.1,0.5,6.1,0.8c0.1,0,0.2,0,0.3,0c2.1,0.2,4.2,0.5,6.2,0.7c0.3,0,0.6,0.1,0.9,0.1c1.9,0.2,3.9,0.4,5.8,0.5
					c0.2,0,0.3,0,0.5,0c2,0.2,4.1,0.3,6.1,0.4c0.4,0,0.8,0,1.3,0.1c1.9,0.1,3.9,0.2,5.8,0.3c0.1,0,0.3,0,0.4,0c2,0.1,4,0.1,6.1,0.2
					c0.5,0,1,0,1.4,0c2,0,4.1,0.1,6.1,0.1c2.4,0,4.8,0,7.2-0.1c0.3,0,0.7,0,1,0c2.3-0.1,4.6-0.1,6.9-0.2c0.4,0,0.8,0,1.1-0.1
					c2.3-0.1,4.6-0.2,6.9-0.4c0.3,0,0.5,0,0.8-0.1c5-0.3,9.9-0.8,14.8-1.3c0.1,0,0.2,0,0.2,0c2.5-0.3,4.9-0.6,7.4-0.9
					c0.1,0,0.2,0,0.4,0c25.4-3.4,49.9-9.6,73.2-18.1C1064.2,991.2,1056.3,959.7,1044.4,930.2z"/>
			</g>
		</g>
		<text id="skills_text_3_" transform="matrix(1 0 0 1 527.6106 1120.4069)" class="st17 st18 st19">Skills</text>
		<text id="services_text_3_" transform="matrix(1 0 0 1 1057.3523 1123.6367)" class="st20"><tspan x="0" y="0" class="st21 st18 st19"> </tspan><tspan x="27.8" y="0" class="st17 st18 st19">Services</tspan></text>
		<text id="products_text_3_" transform="matrix(1 0 0 1 741.4077 687.5724)" class="st17 st18 st19">Products</text>
		<rect x="1722.4" y="684.3" class="st22" width="0.7" height="4.1"/>
	</g>
</g>
</svg>
