<svg id="Layer_1" data-name="Layer 1" xmlns="http://www.w3.org/2000/svg" viewBox="0 0 1395.3 1254.4"><defs><style>.cls-1{fill:#999;}.cls-2{fill:#afd7d2;}.cls-3{fill:#e2edc1;}.cls-10,.cls-4{opacity:0.7;}.cls-5{fill:#b0d5c7;}.cls-6{fill:#bfb1cf;}.cls-7{fill:#b7c7d0;}.cls-8{fill:#d5d7c9;}.cls-9{fill:#b1d7d2;}.cls-10,.cls-11{isolation:isolate;font-size:123px;fill:#58595b;font-family:Calibri-Light, Calibri;font-weight:300;}.cls-12{letter-spacing:0.01em;}.cls-13{letter-spacing:-0.01em;}.cls-14{letter-spacing:-0.02em;}.cls-15{fill:none;}</style></defs><g id="Logo_with_Circular_Boundary" data-name="Logo with Circular Boundary"><g id="Background"><g id="Circular_Boundary" data-name="Circular Boundary"><path class="cls-1" d="M630,10A617.2,617.2,0,0,1,976.8,115.9a633.58,633.58,0,0,1,91.8,75.7,619.72,619.72,0,0,1,75.7,785.5,633.58,633.58,0,0,1-75.7,91.8,619.62,619.62,0,0,1-785.4,75.7,633.58,633.58,0,0,1-91.8-75.7,619.62,619.62,0,0,1-75.7-785.4,633.58,633.58,0,0,1,75.7-91.8A619,619,0,0,1,630,10m0-7C283.6,3,2.8,283.8,2.8,630.2S283.6,1257.4,630,1257.4s627.2-280.7,627.2-627.1S976.4,3,630,3Z" transform="translate(-2.8 -3)"/></g></g><g id="LoGo_COPY" data-name="LoGo COPY"><path class="cls-2" d="M969.6,400.9C957.4,537.1,866.7,650.7,743.1,696.2q1.35,13.35,1.8,27v.2c0,1.4.1,2.7.1,4.1v11.2c0,1,0,2.1-.1,3.1a10.87,10.87,0,0,1-.1,1.8c0,.9-.1,1.9-.1,2.8,0,.6-.1,1.3-.1,1.9,0,.9-.1,1.8-.1,2.7,0,.7-.1,1.3-.1,2a22.75,22.75,0,0,1-.2,2.6c0,.7-.1,1.4-.1,2-.1.8-.1,1.7-.2,2.5s-.1,1.4-.2,2c-.1.8-.1,1.7-.2,2.5s-.1,1.4-.2,2c-.1.8-.2,1.7-.3,2.5s-.1,1.4-.2,2c-.1.8-.2,1.7-.3,2.5a13.55,13.55,0,0,0-.2,2c-.1.8-.2,1.7-.3,2.5s-.2,1.3-.3,2a21.66,21.66,0,0,1-.4,2.5c-.1.6-.2,1.3-.3,1.9-.1.9-.3,1.7-.4,2.6-.1.6-.2,1.2-.3,1.9a25.58,25.58,0,0,1-.5,2.7c-.1.6-.2,1.2-.3,1.7a29.31,29.31,0,0,0-.5,2.9l-.3,1.5c-.2,1.2-.5,2.4-.7,3.6-.1.3-.1.6-.2.8-.3,1.5-.6,3-.9,4.4,0,.2-.1.4-.1.6-.3,1.3-.6,2.5-.9,3.8-.1.4-.2.9-.3,1.3-.2,1-.5,2-.7,3-.1.5-.3,1-.4,1.6-.2.9-.5,1.8-.7,2.8-.1.6-.3,1.1-.4,1.7-.2.9-.5,1.8-.7,2.6-.2.6-.3,1.1-.5,1.7-.2.9-.5,1.7-.7,2.6-.2.6-.3,1.2-.5,1.7-.2.8-.5,1.7-.7,2.5a15.43,15.43,0,0,0-.5,1.7c-.3.8-.5,1.7-.8,2.5-.2.6-.4,1.2-.6,1.7-.3.8-.5,1.7-.8,2.5-.2.6-.4,1.1-.6,1.7-.3.8-.6,1.7-.9,2.5-.2.6-.4,1.1-.6,1.7-.3.9-.6,1.7-.9,2.6-.2.5-.4,1.1-.6,1.6a20,20,0,0,1-1,2.6l-.6,1.5c-.3.9-.7,1.8-1.1,2.8-.2.4-.3.9-.5,1.3l-1.2,3c-.1.4-.3.7-.4,1.1-.5,1.2-1,2.3-1.5,3.5-.1.2-.1.4-.2.5-1.2,2.7-2.4,5.5-3.6,8.2,0,.1-.1.1-.1.2-.6,1.3-1.2,2.5-1.7,3.8a5.94,5.94,0,0,1-.4.8c-.5,1-1,2.1-1.5,3.1a5.36,5.36,0,0,0-.5,1.1c-.5.9-.9,1.9-1.4,2.8l-.6,1.2c-.5.9-.9,1.8-1.4,2.7a8.26,8.26,0,0,1-.7,1.3c-.5.9-.9,1.7-1.4,2.6-.2.4-.5.9-.7,1.3-.5.9-.9,1.7-1.4,2.6-.2.4-.5.9-.7,1.3-.5.8-.9,1.7-1.4,2.5-.2.4-.5.9-.7,1.3-.5.8-1,1.7-1.5,2.5-.2.4-.5.8-.7,1.2-.5.9-1,1.7-1.5,2.6-.2.4-.5.8-.7,1.2-.5.9-1.1,1.7-1.6,2.6a6.73,6.73,0,0,1-.7,1.1c-.6.9-1.1,1.8-1.7,2.7a8.79,8.79,0,0,0-.6,1c-.6,1-1.3,2-1.9,2.9-.2.2-.3.5-.5.7-.7,1.1-1.5,2.2-2.2,3.4-.1.1-.1.2-.2.2q-4.95,7.35-10.2,14.4a1.76,1.76,0,0,1-.4.5c-.8,1-1.5,2-2.3,3a3,3,0,0,0-.5.7l-2.1,2.7a2.7,2.7,0,0,1-.7.8c-.7.9-1.4,1.7-2.1,2.6-.2.3-.5.6-.7.9-.7.8-1.4,1.7-2,2.5-.3.3-.5.6-.8.9-.7.8-1.4,1.6-2,2.4-.3.3-.5.6-.8.9l-2.1,2.4c-.3.3-.5.6-.8.9l-2.1,2.4c-.3.3-.5.6-.8.9-.7.8-1.5,1.6-2.2,2.4-.2.3-.5.5-.7.8-.8.8-1.5,1.7-2.3,2.5-.2.2-.4.5-.6.7-.8.9-1.7,1.7-2.5,2.6l-.5.5c-.9,1-1.9,1.9-2.8,2.9l-.2.2c-4.2,4.2-8.4,8.3-12.8,12.2h0a346.62,346.62,0,0,0,233.5,90c192.1,0,347.9-155.8,347.9-347.9C1212.1,577.1,1110.2,445.5,969.6,400.9Z" transform="translate(-2.8 -3)"/><path class="cls-3" d="M630.2,476.4a348.17,348.17,0,0,1,339-73.8c.9-10.3,1.4-20.8,1.4-31.3,0-192.1-155.8-347.9-347.9-347.9s-348,155.8-348,347.9a337.3,337.3,0,0,0,1.9,36.4,348.32,348.32,0,0,1,353.6,68.7Z" transform="translate(-2.8 -3)"/><g class="cls-4"><path class="cls-5" d="M630.1,474.5c1.9,1.7,3.7,3.4,5.6,5.2l.3.3c1.8,1.7,3.5,3.4,5.3,5.1l.4.4c1.7,1.7,3.4,3.4,5.1,5.2l.4.4c1.7,1.8,3.4,3.5,5,5.3.1.1.2.3.4.4,1.7,1.8,3.3,3.7,5,5.5l.2.2c3.4,3.9,6.7,7.8,10,11.8s6.4,8.1,9.4,12.3l.2.2c1.5,2,2.9,4.1,4.4,6.1.1.1.2.2.2.3,1.4,2,2.8,4.1,4.2,6.2a.52.52,0,0,1,.2.4c1.4,2.1,2.8,4.2,4.1,6.3.1.1.1.2.2.3,1.4,2.2,2.7,4.3,4,6.5h0c2.7,4.5,5.3,9,7.8,13.6s4.9,9.3,7.2,14h0c1.1,2.3,2.3,4.7,3.3,7.1a.1.1,0,0,0,.1.1c1.1,2.4,2.1,4.7,3.2,7.1a.1.1,0,0,0,.1.1c1,2.4,2,4.8,3,7.3h0A345.93,345.93,0,0,1,742.7,696C866.3,650.6,957,536.9,969.2,400.7a348.36,348.36,0,0,0-339.1,73.8Z" transform="translate(-2.8 -3)"/></g><path class="cls-6" d="M618.2,978.6c-1-1-2-2-3-3.1l-.4-.4c-.9-.9-1.8-1.8-2.6-2.7l-.6-.6c-.8-.9-1.6-1.7-2.4-2.6a4.62,4.62,0,0,0-.7-.7c-.8-.8-1.5-1.7-2.3-2.5-.2-.3-.5-.5-.7-.8-.7-.8-1.5-1.6-2.2-2.5a5.72,5.72,0,0,0-.7-.8l-2.1-2.4a5.5,5.5,0,0,1-.7-.9c-.7-.8-1.4-1.6-2.1-2.5-.2-.3-.5-.6-.7-.9-.7-.8-1.4-1.7-2.1-2.5a5.72,5.72,0,0,0-.7-.8c-.7-.9-1.4-1.7-2.1-2.6-.2-.3-.4-.5-.6-.8-.7-.9-1.4-1.8-2.2-2.8a4.23,4.23,0,0,1-.5-.7c-.8-1-1.5-2-2.3-3-.1-.1-.2-.3-.3-.4-3.5-4.7-7-9.5-10.3-14.4h0l-2.4-3.6c-.1-.2-.3-.4-.4-.6-.7-1-1.3-2-2-3l-.6-.9c-.6-.9-1.2-1.9-1.8-2.8-.2-.3-.4-.7-.6-1-.5-.9-1.1-1.8-1.6-2.7a10.54,10.54,0,0,0-.7-1.1c-.5-.9-1-1.7-1.5-2.6-.2-.4-.5-.8-.7-1.2-.5-.9-1-1.7-1.5-2.6-.2-.4-.5-.8-.7-1.2-.5-.9-1-1.7-1.4-2.6-.2-.4-.5-.8-.7-1.3-.5-.9-.9-1.7-1.4-2.6-.2-.4-.5-.8-.7-1.3-.5-.9-.9-1.8-1.4-2.6l-.6-1.2c-.5-.9-.9-1.8-1.4-2.7l-.6-1.2c-.5-1-.9-1.9-1.4-2.9a5.36,5.36,0,0,1-.5-1.1c-.5-1-1-2.1-1.5-3.1a5.94,5.94,0,0,0-.4-.8c-.6-1.2-1.2-2.5-1.7-3.8,0-.1-.1-.1-.1-.2-1.2-2.7-2.4-5.4-3.6-8.2-.1-.1-.1-.2-.2-.4-.5-1.2-1-2.4-1.5-3.7-.1-.3-.3-.7-.4-1l-1.2-3c-.2-.4-.3-.9-.5-1.3-.4-.9-.7-1.9-1.1-2.8a8.8,8.8,0,0,1-.5-1.5c-.3-.9-.7-1.8-1-2.7-.2-.5-.4-1-.6-1.6-.3-.9-.6-1.7-.9-2.6-.2-.5-.4-1.1-.6-1.6-.3-.8-.6-1.7-.9-2.5-.2-.6-.4-1.1-.6-1.7-.3-.8-.5-1.7-.8-2.5a10.93,10.93,0,0,1-.5-1.7c-.3-.8-.5-1.7-.8-2.5a15.43,15.43,0,0,1-.5-1.7c-.3-.8-.5-1.7-.8-2.5-.2-.6-.3-1.2-.5-1.7-.2-.9-.5-1.7-.7-2.6-.2-.6-.3-1.1-.5-1.7-.2-.9-.5-1.8-.7-2.6-.1-.6-.3-1.1-.4-1.7-.2-.9-.5-1.8-.7-2.8-.1-.5-.3-1-.4-1.6-.2-1-.5-2-.7-3-.1-.4-.2-.9-.3-1.3-.3-1.3-.6-2.5-.9-3.8,0-.2-.1-.4-.1-.6-.3-1.5-.6-3-.9-4.4,0-.2-.1-.5-.1-.7-.2-1.2-.5-2.4-.7-3.7l-.3-1.5c-.2-1-.4-2-.5-3-.1-.6-.2-1.1-.3-1.7-.2-.9-.3-1.8-.5-2.7l-.3-1.8c-.1-.9-.3-1.7-.4-2.6-.1-.6-.2-1.3-.3-1.9-.1-.8-.2-1.7-.4-2.6-.1-.7-.2-1.3-.3-2s-.2-1.7-.3-2.5a13.55,13.55,0,0,1-.2-2c-.1-.8-.2-1.7-.3-2.5s-.1-1.3-.2-2-.2-1.7-.3-2.5-.1-1.4-.2-2a21.05,21.05,0,0,1-.2-2.5c-.1-.7-.1-1.4-.2-2-.1-.8-.1-1.7-.2-2.5s-.1-1.4-.1-2c-.1-.9-.1-1.7-.2-2.6,0-.7-.1-1.3-.1-2,0-.9-.1-1.8-.1-2.7,0-.6-.1-1.3-.1-1.9,0-.9-.1-1.9-.1-2.8a10.87,10.87,0,0,0-.1-1.8c0-1,0-2.1-.1-3.1v-6.1c0-2.5,0-4.9.1-7.4v-.8c.1-2.4.1-4.9.2-7.3v-.6c.2-5.1.6-10.2,1-15.3C388.5,661,291.9,546.1,277.4,406.8,144.4,455.7,49.5,583.5,49.5,733.4c0,192.1,155.8,347.9,347.9,347.9A346.67,346.67,0,0,0,631,991.2c-4.3-4.3-8.6-8.4-12.8-12.6Z" transform="translate(-2.8 -3)"/><path class="cls-7" d="M643,978.2l.2-.2c.9-1,1.9-1.9,2.8-2.9l.5-.5c.8-.9,1.7-1.7,2.5-2.6.2-.2.4-.5.6-.7.8-.8,1.6-1.7,2.3-2.5.2-.3.5-.5.7-.8.7-.8,1.5-1.6,2.2-2.4.3-.3.5-.6.8-.9l2.1-2.4c.3-.3.5-.6.8-.9l2.1-2.4c.3-.3.5-.6.8-.9.7-.8,1.4-1.6,2-2.4.3-.3.5-.6.8-.9a24.33,24.33,0,0,0,2-2.5c.2-.3.5-.6.7-.9.7-.9,1.4-1.7,2.1-2.6a2.7,2.7,0,0,1,.7-.8l2.1-2.7a3,3,0,0,0,.5-.7c.8-1,1.5-2,2.3-3a1.76,1.76,0,0,1,.4-.5q5.25-7.05,10.2-14.4c.1-.1.1-.2.2-.2a39.56,39.56,0,0,0,2.2-3.4c.2-.2.3-.5.5-.7.6-1,1.3-2,1.9-2.9a8.79,8.79,0,0,0,.6-1c.6-.9,1.1-1.8,1.7-2.7.2-.4.5-.7.7-1.1.5-.9,1.1-1.7,1.6-2.6.2-.4.5-.8.7-1.2.5-.9,1-1.7,1.5-2.6.2-.4.5-.8.7-1.2.5-.8,1-1.7,1.5-2.5.2-.4.5-.9.7-1.3.5-.8.9-1.7,1.4-2.5.2-.4.5-.9.7-1.3.5-.8.9-1.7,1.4-2.6.2-.4.5-.9.7-1.3.5-.9.9-1.7,1.4-2.6a8.26,8.26,0,0,1,.7-1.3c.5-.9.9-1.8,1.4-2.7l.6-1.2c.5-.9.9-1.9,1.4-2.8a5.36,5.36,0,0,0,.5-1.1c.5-1,1-2.1,1.5-3.1a5.94,5.94,0,0,1,.4-.8c.6-1.3,1.2-2.5,1.7-3.8,0-.1.1-.1.1-.2,1.2-2.7,2.4-5.4,3.6-8.2.1-.2.1-.4.2-.5.5-1.2,1-2.3,1.5-3.5.1-.4.3-.7.4-1.1l1.2-3c.2-.4.3-.9.5-1.3.4-.9.7-1.8,1.1-2.8l.6-1.5c.3-.9.7-1.8,1-2.6.2-.5.4-1.1.6-1.6.3-.8.6-1.7.9-2.6.2-.6.4-1.1.6-1.7.3-.8.6-1.7.9-2.5.2-.6.4-1.1.6-1.7.3-.8.5-1.7.8-2.5.2-.6.4-1.2.6-1.7.3-.8.5-1.7.8-2.5a15.43,15.43,0,0,0,.5-1.7,23.35,23.35,0,0,0,.7-2.5c.2-.6.3-1.2.5-1.7.2-.9.5-1.7.7-2.6.2-.6.3-1.1.5-1.7.2-.9.5-1.7.7-2.6.1-.6.3-1.1.4-1.7.2-.9.5-1.8.7-2.8.1-.5.3-1,.4-1.6.2-1,.5-2,.7-3,.1-.4.2-.9.3-1.3.3-1.3.6-2.5.9-3.8,0-.2.1-.4.1-.6.3-1.5.6-2.9.9-4.4.1-.3.1-.6.2-.8.2-1.2.5-2.4.7-3.6l.3-1.5a29.31,29.31,0,0,0,.5-2.9c.1-.6.2-1.2.3-1.7.2-.9.3-1.8.5-2.7.1-.6.2-1.2.3-1.9.1-.9.3-1.7.4-2.6.1-.6.2-1.3.3-1.9a21.66,21.66,0,0,1,.4-2.5c.1-.7.2-1.3.3-2s.2-1.7.3-2.5a13.55,13.55,0,0,0,.2-2c.1-.8.2-1.7.3-2.5s.1-1.4.2-2c.1-.8.2-1.7.3-2.5s.1-1.4.2-2a21.05,21.05,0,0,0,.2-2.5c.1-.7.1-1.4.2-2,.1-.8.1-1.7.2-2.5s.1-1.4.1-2c.1-.9.1-1.7.2-2.6,0-.7.1-1.3.1-2,0-.9.1-1.8.1-2.7,0-.6.1-1.3.1-1.9,0-.9.1-1.9.1-2.8a10.87,10.87,0,0,1,.1-1.8c0-1,0-2.1.1-3.1V728c0-1.4,0-2.7-.1-4.1v-.2q-.3-13.65-1.8-27a342.39,342.39,0,0,1-73.2,18.1h-.4l-7.4.9h-.2c-4.9.5-9.8,1-14.8,1.3a2.2,2.2,0,0,0-.8.1c-2.3.2-4.6.3-6.9.4a3.75,3.75,0,0,0-1.1.1c-2.3.1-4.6.2-6.9.2h-1c-2.4,0-4.8.1-7.2.1-2,0-4.1,0-6.1-.1h-1.4c-2,0-4.1-.1-6.1-.2h-.4l-5.8-.3a6.15,6.15,0,0,1-1.3-.1c-2-.1-4.1-.3-6.1-.4h-.5c-2-.2-3.9-.3-5.8-.5-.3,0-.6-.1-.9-.1-2.1-.2-4.2-.4-6.2-.7H582c-2-.2-4.1-.5-6.1-.8a.9.9,0,0,1-.5-.1l-6.4-.9h-.1a336,336,0,0,1-51.3-12.1c-.5,5.1-.8,10.2-1,15.3v.6c-.1,2.4-.2,4.8-.2,7.3v.8c-.1,2.5-.1,4.9-.1,7.4v6.1c0,1,0,2.1.1,3.1a10.87,10.87,0,0,0,.1,1.8c0,.9.1,1.9.1,2.8,0,.6.1,1.3.1,1.9,0,.9.1,1.8.1,2.7,0,.7.1,1.3.1,2,.1.9.1,1.7.2,2.6,0,.7.1,1.4.1,2,.1.8.1,1.7.2,2.5s.1,1.4.2,2c.1.8.1,1.7.2,2.5s.1,1.4.2,2c.1.8.2,1.7.3,2.5s.1,1.3.2,2,.2,1.7.3,2.5a13.55,13.55,0,0,1,.2,2c.1.8.2,1.7.3,2.5s.2,1.3.3,2a23.36,23.36,0,0,0,.4,2.6c.1.6.2,1.3.3,1.9.1.9.3,1.7.4,2.6l.3,1.8a25.58,25.58,0,0,0,.5,2.7c.1.6.2,1.1.3,1.7.2,1,.4,2,.5,3l.3,1.5c.2,1.2.5,2.4.7,3.7,0,.2.1.5.1.7.3,1.5.6,3,.9,4.4,0,.2.1.4.1.6.3,1.3.6,2.5.9,3.8.1.4.2.9.3,1.3.2,1,.5,2,.7,3,.1.5.3,1,.4,1.6.2.9.5,1.8.7,2.8.1.6.3,1.1.4,1.7.2.9.5,1.8.7,2.6.2.6.3,1.1.5,1.7.2.9.5,1.7.7,2.6.2.6.3,1.2.5,1.7a24.13,24.13,0,0,0,.8,2.5,15.43,15.43,0,0,1,.5,1.7c.3.8.5,1.7.8,2.5a10.93,10.93,0,0,1,.5,1.7c.3.8.5,1.7.8,2.5.2.6.4,1.1.6,1.7.3.8.6,1.7.9,2.5.2.5.4,1.1.6,1.6.3.9.6,1.7.9,2.6.2.5.4,1,.6,1.6.3.9.7,1.8,1,2.7a8.8,8.8,0,0,1,.5,1.5c.4.9.7,1.9,1.1,2.8.2.4.3.9.5,1.3l1.2,3c.1.3.3.7.4,1,.5,1.2,1,2.5,1.5,3.7.1.1.1.2.2.4,1.2,2.8,2.4,5.5,3.6,8.2,0,.1.1.1.1.2.6,1.3,1.1,2.5,1.7,3.8a5.94,5.94,0,0,0,.4.8c.5,1,1,2.1,1.5,3.1.2.4.3.7.5,1.1.5,1,.9,1.9,1.4,2.9l.6,1.2c.5.9.9,1.8,1.4,2.7l.6,1.2c.5.9.9,1.8,1.4,2.6.2.4.4.8.7,1.3.5.9.9,1.7,1.4,2.6.2.4.5.8.7,1.3.5.9,1,1.7,1.4,2.6.2.4.5.8.7,1.2.5.9,1,1.7,1.5,2.6.2.4.5.8.7,1.2.5.9,1,1.7,1.5,2.6a10.54,10.54,0,0,0,.7,1.1c.5.9,1.1,1.8,1.6,2.7.2.3.4.7.6,1,.6.9,1.2,1.9,1.8,2.8l.6.9c.6,1,1.3,2,2,3,.1.2.3.4.4.6l2.4,3.6h0c3.3,4.9,6.7,9.7,10.3,14.4.1.1.2.3.3.4.8,1,1.5,2,2.3,3a4.23,4.23,0,0,1,.5.7c.7.9,1.4,1.9,2.2,2.8.2.3.4.5.6.8.7.9,1.4,1.8,2.1,2.6a5.72,5.72,0,0,0,.7.8c.7.8,1.4,1.7,2.1,2.5.2.3.5.6.7.9.7.8,1.4,1.7,2.1,2.5.2.3.5.6.7.9l2.1,2.4a5.72,5.72,0,0,0,.7.8l2.2,2.5c.2.3.5.5.7.8.8.8,1.5,1.7,2.3,2.5a4.62,4.62,0,0,0,.7.7c.8.9,1.6,1.7,2.4,2.6l.6.6c.9.9,1.7,1.8,2.6,2.7l.4.4c1,1,2,2,3,3.1h0q6.3,6.3,12.9,12.3h0C634.6,986.4,638.8,982.4,643,978.2Z" transform="translate(-2.8 -3)"/><g class="cls-4"><path class="cls-8" d="M517.1,702.4a345.61,345.61,0,0,1,32.3-118.2v-.1c1.1-2.4,2.3-4.8,3.5-7.1,0-.1.1-.1.1-.2l3.6-6.9a.35.35,0,0,1,.1-.2c1.2-2.3,2.5-4.6,3.7-6.8,0-.1.1-.1.1-.2,1.3-2.3,2.6-4.5,3.9-6.8l.1-.1c1.4-2.3,2.7-4.5,4.1-6.7h0c3.3-5.3,6.8-10.6,10.5-15.7,4-5.7,8.2-11.3,12.5-16.7l.2-.2c1.6-2,3.2-3.9,4.8-5.9a1.38,1.38,0,0,0,.3-.4c1.6-1.9,3.2-3.8,4.9-5.7l.4-.4c1.6-1.9,3.3-3.7,4.9-5.5.1-.2.3-.3.4-.5l5.1-5.4.4-.4c1.7-1.8,3.5-3.6,5.2-5.3l.3-.3c1.8-1.8,3.6-3.5,5.4-5.3l.2-.2c1.9-1.8,3.8-3.5,5.7-5.3h0a348.15,348.15,0,0,0-353.5-68.7C291,546.4,387.6,661.3,517.1,702.4Z" transform="translate(-2.8 -3)"/></g><g class="cls-4"><path class="cls-9" d="M719.4,602.2h0c-1-2.4-2-4.9-3-7.3a.1.1,0,0,0-.1-.1c-1-2.4-2.1-4.8-3.2-7.1a.1.1,0,0,0-.1-.1c-1.1-2.4-2.2-4.7-3.3-7.1h0c-2.3-4.7-4.7-9.4-7.2-14s-5.1-9.2-7.8-13.6h0c-1.3-2.2-2.7-4.4-4-6.5-.1-.1-.1-.2-.2-.3-1.3-2.1-2.7-4.2-4.1-6.3a.52.52,0,0,1-.2-.4c-1.4-2.1-2.8-4.1-4.2-6.2-.1-.1-.2-.2-.2-.3-1.4-2.1-2.9-4.1-4.4-6.1l-.2-.2c-3.1-4.2-6.2-8.3-9.4-12.3s-6.6-8-10-11.8l-.2-.2c-1.6-1.9-3.3-3.7-5-5.5-.1-.1-.2-.3-.4-.4-1.6-1.8-3.3-3.6-5-5.3l-.4-.4c-1.7-1.7-3.4-3.5-5.1-5.2l-.4-.4c-1.7-1.7-3.5-3.4-5.3-5.1l-.3-.3c-1.8-1.7-3.7-3.5-5.6-5.2h0c-1.9,1.7-3.8,3.5-5.7,5.3l-.2.2c-1.8,1.7-3.6,3.5-5.4,5.3l-.3.3c-1.8,1.8-3.5,3.5-5.2,5.3l-.4.4-5.1,5.4c-.1.2-.3.3-.4.5-1.7,1.8-3.3,3.7-4.9,5.5l-.4.4c-1.6,1.9-3.3,3.8-4.9,5.7a1.38,1.38,0,0,0-.3.4c-1.6,1.9-3.2,3.9-4.8,5.9l-.2.2c-4.3,5.4-8.5,11-12.5,16.7-3.6,5.1-7.1,10.4-10.5,15.7h0c-1.4,2.2-2.8,4.5-4.1,6.7l-.1.1c-1.3,2.2-2.6,4.5-3.9,6.8,0,.1-.1.1-.1.2-1.3,2.3-2.5,4.5-3.7,6.8a.35.35,0,0,1-.1.2l-3.6,6.9c0,.1-.1.1-.1.2-1.2,2.4-2.4,4.7-3.5,7.1v.1A347.87,347.87,0,0,0,517.4,701a348.25,348.25,0,0,0,51.3,12.1h.1l6.4.9a.9.9,0,0,1,.5.1c2,.3,4.1.5,6.1.8h.3c2.1.2,4.2.5,6.2.7.3,0,.6.1.9.1,1.9.2,3.9.4,5.8.5h.5c2,.2,4.1.3,6.1.4a6.15,6.15,0,0,1,1.3.1l5.8.3h.4c2,.1,4,.1,6.1.2h1.4c2,0,4.1.1,6.1.1,2.4,0,4.8,0,7.2-.1h1c2.3-.1,4.6-.1,6.9-.2a3.75,3.75,0,0,0,1.1-.1c2.3-.1,4.6-.2,6.9-.4a2.2,2.2,0,0,0,.8-.1c5-.3,9.9-.8,14.8-1.3h.2l7.4-.9h.4a348.44,348.44,0,0,0,73.2-18.1A345.59,345.59,0,0,0,719.4,602.2Z" transform="translate(-2.8 -3)"/></g><text class="cls-10" transform="translate(231.81 789.41)">Skills</text><text class="cls-11" transform="translate(715.55 792.64)"> </text><text class="cls-10" transform="translate(743.35 792.64)">Se<tspan class="cls-12" x="116.45" y="0">r</tspan><tspan x="160.06" y="0">vices</tspan></text><text class="cls-10" transform="translate(413.61 356.57)"><tspan class="cls-13">P</tspan><tspan class="cls-14" x="61.26" y="0">r</tspan><tspan x="101.26" y="0">oducts</tspan></text><rect class="cls-15" x="1394.6" y="353.3" width="0.7" height="4.1"/><path class="cls-2" d="M969.6,400.9C957.4,537.1,866.7,650.7,743.1,696.2q1.35,13.35,1.8,27v.2c0,1.4.1,2.7.1,4.1v11.2c0,1,0,2.1-.1,3.1a10.87,10.87,0,0,1-.1,1.8c0,.9-.1,1.9-.1,2.8,0,.6-.1,1.3-.1,1.9,0,.9-.1,1.8-.1,2.7,0,.7-.1,1.3-.1,2a22.75,22.75,0,0,1-.2,2.6c0,.7-.1,1.4-.1,2-.1.8-.1,1.7-.2,2.5s-.1,1.4-.2,2c-.1.8-.1,1.7-.2,2.5s-.1,1.4-.2,2c-.1.8-.2,1.7-.3,2.5s-.1,1.4-.2,2c-.1.8-.2,1.7-.3,2.5a13.55,13.55,0,0,0-.2,2c-.1.8-.2,1.7-.3,2.5s-.2,1.3-.3,2a21.66,21.66,0,0,1-.4,2.5c-.1.6-.2,1.3-.3,1.9-.1.9-.3,1.7-.4,2.6-.1.6-.2,1.2-.3,1.9a25.58,25.58,0,0,1-.5,2.7c-.1.6-.2,1.2-.3,1.7a29.31,29.31,0,0,0-.5,2.9l-.3,1.5c-.2,1.2-.5,2.4-.7,3.6-.1.3-.1.6-.2.8-.3,1.5-.6,3-.9,4.4,0,.2-.1.4-.1.6-.3,1.3-.6,2.5-.9,3.8-.1.4-.2.9-.3,1.3-.2,1-.5,2-.7,3-.1.5-.3,1-.4,1.6-.2.9-.5,1.8-.7,2.8-.1.6-.3,1.1-.4,1.7-.2.9-.5,1.8-.7,2.6-.2.6-.3,1.1-.5,1.7-.2.9-.5,1.7-.7,2.6-.2.6-.3,1.2-.5,1.7-.2.8-.5,1.7-.7,2.5a15.43,15.43,0,0,0-.5,1.7c-.3.8-.5,1.7-.8,2.5-.2.6-.4,1.2-.6,1.7-.3.8-.5,1.7-.8,2.5-.2.6-.4,1.1-.6,1.7-.3.8-.6,1.7-.9,2.5-.2.6-.4,1.1-.6,1.7-.3.9-.6,1.7-.9,2.6-.2.5-.4,1.1-.6,1.6a20,20,0,0,1-1,2.6l-.6,1.5c-.3.9-.7,1.8-1.1,2.8-.2.4-.3.9-.5,1.3l-1.2,3c-.1.4-.3.7-.4,1.1-.5,1.2-1,2.3-1.5,3.5-.1.2-.1.4-.2.5-1.2,2.7-2.4,5.5-3.6,8.2,0,.1-.1.1-.1.2-.6,1.3-1.2,2.5-1.7,3.8a5.94,5.94,0,0,1-.4.8c-.5,1-1,2.1-1.5,3.1a5.36,5.36,0,0,0-.5,1.1c-.5.9-.9,1.9-1.4,2.8l-.6,1.2c-.5.9-.9,1.8-1.4,2.7a8.26,8.26,0,0,1-.7,1.3c-.5.9-.9,1.7-1.4,2.6-.2.4-.5.9-.7,1.3-.5.9-.9,1.7-1.4,2.6-.2.4-.5.9-.7,1.3-.5.8-.9,1.7-1.4,2.5-.2.4-.5.9-.7,1.3-.5.8-1,1.7-1.5,2.5-.2.4-.5.8-.7,1.2-.5.9-1,1.7-1.5,2.6-.2.4-.5.8-.7,1.2-.5.9-1.1,1.7-1.6,2.6a6.73,6.73,0,0,1-.7,1.1c-.6.9-1.1,1.8-1.7,2.7a8.79,8.79,0,0,0-.6,1c-.6,1-1.3,2-1.9,2.9-.2.2-.3.5-.5.7-.7,1.1-1.5,2.2-2.2,3.4-.1.1-.1.2-.2.2q-4.95,7.35-10.2,14.4a1.76,1.76,0,0,1-.4.5c-.8,1-1.5,2-2.3,3a3,3,0,0,0-.5.7l-2.1,2.7a2.7,2.7,0,0,1-.7.8c-.7.9-1.4,1.7-2.1,2.6-.2.3-.5.6-.7.9-.7.8-1.4,1.7-2,2.5-.3.3-.5.6-.8.9-.7.8-1.4,1.6-2,2.4-.3.3-.5.6-.8.9l-2.1,2.4c-.3.3-.5.6-.8.9l-2.1,2.4c-.3.3-.5.6-.8.9-.7.8-1.5,1.6-2.2,2.4-.2.3-.5.5-.7.8-.8.8-1.5,1.7-2.3,2.5-.2.2-.4.5-.6.7-.8.9-1.7,1.7-2.5,2.6l-.5.5c-.9,1-1.9,1.9-2.8,2.9l-.2.2c-4.2,4.2-8.4,8.3-12.8,12.2h0a346.62,346.62,0,0,0,233.5,90c192.1,0,347.9-155.8,347.9-347.9C1212.1,577.1,1110.2,445.5,969.6,400.9Z" transform="translate(-2.8 -3)"/><path class="cls-3" d="M630.2,476.4a348.17,348.17,0,0,1,339-73.8c.9-10.3,1.4-20.8,1.4-31.3,0-192.1-155.8-347.9-347.9-347.9s-348,155.8-348,347.9a337.3,337.3,0,0,0,1.9,36.4,348.32,348.32,0,0,1,353.6,68.7Z" transform="translate(-2.8 -3)"/><g class="cls-4"><path class="cls-5" d="M630.1,474.5c1.9,1.7,3.7,3.4,5.6,5.2l.3.3c1.8,1.7,3.5,3.4,5.3,5.1l.4.4c1.7,1.7,3.4,3.4,5.1,5.2l.4.4c1.7,1.8,3.4,3.5,5,5.3.1.1.2.3.4.4,1.7,1.8,3.3,3.7,5,5.5l.2.2c3.4,3.9,6.7,7.8,10,11.8s6.4,8.1,9.4,12.3l.2.2c1.5,2,2.9,4.1,4.4,6.1.1.1.2.2.2.3,1.4,2,2.8,4.1,4.2,6.2a.52.52,0,0,1,.2.4c1.4,2.1,2.8,4.2,4.1,6.3.1.1.1.2.2.3,1.4,2.2,2.7,4.3,4,6.5h0c2.7,4.5,5.3,9,7.8,13.6s4.9,9.3,7.2,14h0c1.1,2.3,2.3,4.7,3.3,7.1a.1.1,0,0,0,.1.1c1.1,2.4,2.1,4.7,3.2,7.1a.1.1,0,0,0,.1.1c1,2.4,2,4.8,3,7.3h0A345.93,345.93,0,0,1,742.7,696C866.3,650.6,957,536.9,969.2,400.7a348.36,348.36,0,0,0-339.1,73.8Z" transform="translate(-2.8 -3)"/></g><path class="cls-6" d="M618.2,978.6c-1-1-2-2-3-3.1l-.4-.4c-.9-.9-1.8-1.8-2.6-2.7l-.6-.6c-.8-.9-1.6-1.7-2.4-2.6a4.62,4.62,0,0,0-.7-.7c-.8-.8-1.5-1.7-2.3-2.5-.2-.3-.5-.5-.7-.8-.7-.8-1.5-1.6-2.2-2.5a5.72,5.72,0,0,0-.7-.8l-2.1-2.4a5.5,5.5,0,0,1-.7-.9c-.7-.8-1.4-1.6-2.1-2.5-.2-.3-.5-.6-.7-.9-.7-.8-1.4-1.7-2.1-2.5a5.72,5.72,0,0,0-.7-.8c-.7-.9-1.4-1.7-2.1-2.6-.2-.3-.4-.5-.6-.8-.7-.9-1.4-1.8-2.2-2.8a4.23,4.23,0,0,1-.5-.7c-.8-1-1.5-2-2.3-3-.1-.1-.2-.3-.3-.4-3.5-4.7-7-9.5-10.3-14.4h0l-2.4-3.6c-.1-.2-.3-.4-.4-.6-.7-1-1.3-2-2-3l-.6-.9c-.6-.9-1.2-1.9-1.8-2.8-.2-.3-.4-.7-.6-1-.5-.9-1.1-1.8-1.6-2.7a10.54,10.54,0,0,0-.7-1.1c-.5-.9-1-1.7-1.5-2.6-.2-.4-.5-.8-.7-1.2-.5-.9-1-1.7-1.5-2.6-.2-.4-.5-.8-.7-1.2-.5-.9-1-1.7-1.4-2.6-.2-.4-.5-.8-.7-1.3-.5-.9-.9-1.7-1.4-2.6-.2-.4-.5-.8-.7-1.3-.5-.9-.9-1.8-1.4-2.6l-.6-1.2c-.5-.9-.9-1.8-1.4-2.7l-.6-1.2c-.5-1-.9-1.9-1.4-2.9a5.36,5.36,0,0,1-.5-1.1c-.5-1-1-2.1-1.5-3.1a5.94,5.94,0,0,0-.4-.8c-.6-1.2-1.2-2.5-1.7-3.8,0-.1-.1-.1-.1-.2-1.2-2.7-2.4-5.4-3.6-8.2-.1-.1-.1-.2-.2-.4-.5-1.2-1-2.4-1.5-3.7-.1-.3-.3-.7-.4-1l-1.2-3c-.2-.4-.3-.9-.5-1.3-.4-.9-.7-1.9-1.1-2.8a8.8,8.8,0,0,1-.5-1.5c-.3-.9-.7-1.8-1-2.7-.2-.5-.4-1-.6-1.6-.3-.9-.6-1.7-.9-2.6-.2-.5-.4-1.1-.6-1.6-.3-.8-.6-1.7-.9-2.5-.2-.6-.4-1.1-.6-1.7-.3-.8-.5-1.7-.8-2.5a10.93,10.93,0,0,1-.5-1.7c-.3-.8-.5-1.7-.8-2.5a15.43,15.43,0,0,1-.5-1.7c-.3-.8-.5-1.7-.8-2.5-.2-.6-.3-1.2-.5-1.7-.2-.9-.5-1.7-.7-2.6-.2-.6-.3-1.1-.5-1.7-.2-.9-.5-1.8-.7-2.6-.1-.6-.3-1.1-.4-1.7-.2-.9-.5-1.8-.7-2.8-.1-.5-.3-1-.4-1.6-.2-1-.5-2-.7-3-.1-.4-.2-.9-.3-1.3-.3-1.3-.6-2.5-.9-3.8,0-.2-.1-.4-.1-.6-.3-1.5-.6-3-.9-4.4,0-.2-.1-.5-.1-.7-.2-1.2-.5-2.4-.7-3.7l-.3-1.5c-.2-1-.4-2-.5-3-.1-.6-.2-1.1-.3-1.7-.2-.9-.3-1.8-.5-2.7l-.3-1.8c-.1-.9-.3-1.7-.4-2.6-.1-.6-.2-1.3-.3-1.9-.1-.8-.2-1.7-.4-2.6-.1-.7-.2-1.3-.3-2s-.2-1.7-.3-2.5a13.55,13.55,0,0,1-.2-2c-.1-.8-.2-1.7-.3-2.5s-.1-1.3-.2-2-.2-1.7-.3-2.5-.1-1.4-.2-2a21.05,21.05,0,0,1-.2-2.5c-.1-.7-.1-1.4-.2-2-.1-.8-.1-1.7-.2-2.5s-.1-1.4-.1-2c-.1-.9-.1-1.7-.2-2.6,0-.7-.1-1.3-.1-2,0-.9-.1-1.8-.1-2.7,0-.6-.1-1.3-.1-1.9,0-.9-.1-1.9-.1-2.8a10.87,10.87,0,0,0-.1-1.8c0-1,0-2.1-.1-3.1v-6.1c0-2.5,0-4.9.1-7.4v-.8c.1-2.4.1-4.9.2-7.3v-.6c.2-5.1.6-10.2,1-15.3C388.5,661,291.9,546.1,277.4,406.8,144.4,455.7,49.5,583.5,49.5,733.4c0,192.1,155.8,347.9,347.9,347.9A346.67,346.67,0,0,0,631,991.2c-4.3-4.3-8.6-8.4-12.8-12.6Z" transform="translate(-2.8 -3)"/><path class="cls-7" d="M643,978.2l.2-.2c.9-1,1.9-1.9,2.8-2.9l.5-.5c.8-.9,1.7-1.7,2.5-2.6.2-.2.4-.5.6-.7.8-.8,1.6-1.7,2.3-2.5.2-.3.5-.5.7-.8.7-.8,1.5-1.6,2.2-2.4.3-.3.5-.6.8-.9l2.1-2.4c.3-.3.5-.6.8-.9l2.1-2.4c.3-.3.5-.6.8-.9.7-.8,1.4-1.6,2-2.4.3-.3.5-.6.8-.9a24.33,24.33,0,0,0,2-2.5c.2-.3.5-.6.7-.9.7-.9,1.4-1.7,2.1-2.6a2.7,2.7,0,0,1,.7-.8l2.1-2.7a3,3,0,0,0,.5-.7c.8-1,1.5-2,2.3-3a1.76,1.76,0,0,1,.4-.5q5.25-7.05,10.2-14.4c.1-.1.1-.2.2-.2a39.56,39.56,0,0,0,2.2-3.4c.2-.2.3-.5.5-.7.6-1,1.3-2,1.9-2.9a8.79,8.79,0,0,0,.6-1c.6-.9,1.1-1.8,1.7-2.7.2-.4.5-.7.7-1.1.5-.9,1.1-1.7,1.6-2.6.2-.4.5-.8.7-1.2.5-.9,1-1.7,1.5-2.6.2-.4.5-.8.7-1.2.5-.8,1-1.7,1.5-2.5.2-.4.5-.9.7-1.3.5-.8.9-1.7,1.4-2.5.2-.4.5-.9.7-1.3.5-.8.9-1.7,1.4-2.6.2-.4.5-.9.7-1.3.5-.9.9-1.7,1.4-2.6a8.26,8.26,0,0,1,.7-1.3c.5-.9.9-1.8,1.4-2.7l.6-1.2c.5-.9.9-1.9,1.4-2.8a5.36,5.36,0,0,0,.5-1.1c.5-1,1-2.1,1.5-3.1a5.94,5.94,0,0,1,.4-.8c.6-1.3,1.2-2.5,1.7-3.8,0-.1.1-.1.1-.2,1.2-2.7,2.4-5.4,3.6-8.2.1-.2.1-.4.2-.5.5-1.2,1-2.3,1.5-3.5.1-.4.3-.7.4-1.1l1.2-3c.2-.4.3-.9.5-1.3.4-.9.7-1.8,1.1-2.8l.6-1.5c.3-.9.7-1.8,1-2.6.2-.5.4-1.1.6-1.6.3-.8.6-1.7.9-2.6.2-.6.4-1.1.6-1.7.3-.8.6-1.7.9-2.5.2-.6.4-1.1.6-1.7.3-.8.5-1.7.8-2.5.2-.6.4-1.2.6-1.7.3-.8.5-1.7.8-2.5a15.43,15.43,0,0,0,.5-1.7,23.35,23.35,0,0,0,.7-2.5c.2-.6.3-1.2.5-1.7.2-.9.5-1.7.7-2.6.2-.6.3-1.1.5-1.7.2-.9.5-1.7.7-2.6.1-.6.3-1.1.4-1.7.2-.9.5-1.8.7-2.8.1-.5.3-1,.4-1.6.2-1,.5-2,.7-3,.1-.4.2-.9.3-1.3.3-1.3.6-2.5.9-3.8,0-.2.1-.4.1-.6.3-1.5.6-2.9.9-4.4.1-.3.1-.6.2-.8.2-1.2.5-2.4.7-3.6l.3-1.5a29.31,29.31,0,0,0,.5-2.9c.1-.6.2-1.2.3-1.7.2-.9.3-1.8.5-2.7.1-.6.2-1.2.3-1.9.1-.9.3-1.7.4-2.6.1-.6.2-1.3.3-1.9a21.66,21.66,0,0,1,.4-2.5c.1-.7.2-1.3.3-2s.2-1.7.3-2.5a13.55,13.55,0,0,0,.2-2c.1-.8.2-1.7.3-2.5s.1-1.4.2-2c.1-.8.2-1.7.3-2.5s.1-1.4.2-2a21.05,21.05,0,0,0,.2-2.5c.1-.7.1-1.4.2-2,.1-.8.1-1.7.2-2.5s.1-1.4.1-2c.1-.9.1-1.7.2-2.6,0-.7.1-1.3.1-2,0-.9.1-1.8.1-2.7,0-.6.1-1.3.1-1.9,0-.9.1-1.9.1-2.8a10.87,10.87,0,0,1,.1-1.8c0-1,0-2.1.1-3.1V728c0-1.4,0-2.7-.1-4.1v-.2q-.3-13.65-1.8-27a342.39,342.39,0,0,1-73.2,18.1h-.4l-7.4.9h-.2c-4.9.5-9.8,1-14.8,1.3a2.2,2.2,0,0,0-.8.1c-2.3.2-4.6.3-6.9.4a3.75,3.75,0,0,0-1.1.1c-2.3.1-4.6.2-6.9.2h-1c-2.4,0-4.8.1-7.2.1-2,0-4.1,0-6.1-.1h-1.4c-2,0-4.1-.1-6.1-.2h-.4l-5.8-.3a6.15,6.15,0,0,1-1.3-.1c-2-.1-4.1-.3-6.1-.4h-.5c-2-.2-3.9-.3-5.8-.5-.3,0-.6-.1-.9-.1-2.1-.2-4.2-.4-6.2-.7H582c-2-.2-4.1-.5-6.1-.8a.9.9,0,0,1-.5-.1l-6.4-.9h-.1a336,336,0,0,1-51.3-12.1c-.5,5.1-.8,10.2-1,15.3v.6c-.1,2.4-.2,4.8-.2,7.3v.8c-.1,2.5-.1,4.9-.1,7.4v6.1c0,1,0,2.1.1,3.1a10.87,10.87,0,0,0,.1,1.8c0,.9.1,1.9.1,2.8,0,.6.1,1.3.1,1.9,0,.9.1,1.8.1,2.7,0,.7.1,1.3.1,2,.1.9.1,1.7.2,2.6,0,.7.1,1.4.1,2,.1.8.1,1.7.2,2.5s.1,1.4.2,2c.1.8.1,1.7.2,2.5s.1,1.4.2,2c.1.8.2,1.7.3,2.5s.1,1.3.2,2,.2,1.7.3,2.5a13.55,13.55,0,0,1,.2,2c.1.8.2,1.7.3,2.5s.2,1.3.3,2a23.36,23.36,0,0,0,.4,2.6c.1.6.2,1.3.3,1.9.1.9.3,1.7.4,2.6l.3,1.8a25.58,25.58,0,0,0,.5,2.7c.1.6.2,1.1.3,1.7.2,1,.4,2,.5,3l.3,1.5c.2,1.2.5,2.4.7,3.7,0,.2.1.5.1.7.3,1.5.6,3,.9,4.4,0,.2.1.4.1.6.3,1.3.6,2.5.9,3.8.1.4.2.9.3,1.3.2,1,.5,2,.7,3,.1.5.3,1,.4,1.6.2.9.5,1.8.7,2.8.1.6.3,1.1.4,1.7.2.9.5,1.8.7,2.6.2.6.3,1.1.5,1.7.2.9.5,1.7.7,2.6.2.6.3,1.2.5,1.7a24.13,24.13,0,0,0,.8,2.5,15.43,15.43,0,0,1,.5,1.7c.3.8.5,1.7.8,2.5a10.93,10.93,0,0,1,.5,1.7c.3.8.5,1.7.8,2.5.2.6.4,1.1.6,1.7.3.8.6,1.7.9,2.5.2.5.4,1.1.6,1.6.3.9.6,1.7.9,2.6.2.5.4,1,.6,1.6.3.9.7,1.8,1,2.7a8.8,8.8,0,0,1,.5,1.5c.4.9.7,1.9,1.1,2.8.2.4.3.9.5,1.3l1.2,3c.1.3.3.7.4,1,.5,1.2,1,2.5,1.5,3.7.1.1.1.2.2.4,1.2,2.8,2.4,5.5,3.6,8.2,0,.1.1.1.1.2.6,1.3,1.1,2.5,1.7,3.8a5.94,5.94,0,0,0,.4.8c.5,1,1,2.1,1.5,3.1.2.4.3.7.5,1.1.5,1,.9,1.9,1.4,2.9l.6,1.2c.5.9.9,1.8,1.4,2.7l.6,1.2c.5.9.9,1.8,1.4,2.6.2.4.4.8.7,1.3.5.9.9,1.7,1.4,2.6.2.4.5.8.7,1.3.5.9,1,1.7,1.4,2.6.2.4.5.8.7,1.2.5.9,1,1.7,1.5,2.6.2.4.5.8.7,1.2.5.9,1,1.7,1.5,2.6a10.54,10.54,0,0,0,.7,1.1c.5.9,1.1,1.8,1.6,2.7.2.3.4.7.6,1,.6.9,1.2,1.9,1.8,2.8l.6.9c.6,1,1.3,2,2,3,.1.2.3.4.4.6l2.4,3.6h0c3.3,4.9,6.7,9.7,10.3,14.4.1.1.2.3.3.4.8,1,1.5,2,2.3,3a4.23,4.23,0,0,1,.5.7c.7.9,1.4,1.9,2.2,2.8.2.3.4.5.6.8.7.9,1.4,1.8,2.1,2.6a5.72,5.72,0,0,0,.7.8c.7.8,1.4,1.7,2.1,2.5.2.3.5.6.7.9.7.8,1.4,1.7,2.1,2.5.2.3.5.6.7.9l2.1,2.4a5.72,5.72,0,0,0,.7.8l2.2,2.5c.2.3.5.5.7.8.8.8,1.5,1.7,2.3,2.5a4.62,4.62,0,0,0,.7.7c.8.9,1.6,1.7,2.4,2.6l.6.6c.9.9,1.7,1.8,2.6,2.7l.4.4c1,1,2,2,3,3.1h0q6.3,6.3,12.9,12.3h0C634.6,986.4,638.8,982.4,643,978.2Z" transform="translate(-2.8 -3)"/><g class="cls-4"><path class="cls-8" d="M517.1,702.4a345.61,345.61,0,0,1,32.3-118.2v-.1c1.1-2.4,2.3-4.8,3.5-7.1,0-.1.1-.1.1-.2l3.6-6.9a.35.35,0,0,1,.1-.2c1.2-2.3,2.5-4.6,3.7-6.8,0-.1.1-.1.1-.2,1.3-2.3,2.6-4.5,3.9-6.8l.1-.1c1.4-2.3,2.7-4.5,4.1-6.7h0c3.3-5.3,6.8-10.6,10.5-15.7,4-5.7,8.2-11.3,12.5-16.7l.2-.2c1.6-2,3.2-3.9,4.8-5.9a1.38,1.38,0,0,0,.3-.4c1.6-1.9,3.2-3.8,4.9-5.7l.4-.4c1.6-1.9,3.3-3.7,4.9-5.5.1-.2.3-.3.4-.5l5.1-5.4.4-.4c1.7-1.8,3.5-3.6,5.2-5.3l.3-.3c1.8-1.8,3.6-3.5,5.4-5.3l.2-.2c1.9-1.8,3.8-3.5,5.7-5.3h0a348.15,348.15,0,0,0-353.5-68.7C291,546.4,387.6,661.3,517.1,702.4Z" transform="translate(-2.8 -3)"/></g><g class="cls-4"><path class="cls-9" d="M719.4,602.2h0c-1-2.4-2-4.9-3-7.3a.1.1,0,0,0-.1-.1c-1-2.4-2.1-4.8-3.2-7.1a.1.1,0,0,0-.1-.1c-1.1-2.4-2.2-4.7-3.3-7.1h0c-2.3-4.7-4.7-9.4-7.2-14s-5.1-9.2-7.8-13.6h0c-1.3-2.2-2.7-4.4-4-6.5-.1-.1-.1-.2-.2-.3-1.3-2.1-2.7-4.2-4.1-6.3a.52.52,0,0,1-.2-.4c-1.4-2.1-2.8-4.1-4.2-6.2-.1-.1-.2-.2-.2-.3-1.4-2.1-2.9-4.1-4.4-6.1l-.2-.2c-3.1-4.2-6.2-8.3-9.4-12.3s-6.6-8-10-11.8l-.2-.2c-1.6-1.9-3.3-3.7-5-5.5-.1-.1-.2-.3-.4-.4-1.6-1.8-3.3-3.6-5-5.3l-.4-.4c-1.7-1.7-3.4-3.5-5.1-5.2l-.4-.4c-1.7-1.7-3.5-3.4-5.3-5.1l-.3-.3c-1.8-1.7-3.7-3.5-5.6-5.2h0c-1.9,1.7-3.8,3.5-5.7,5.3l-.2.2c-1.8,1.7-3.6,3.5-5.4,5.3l-.3.3c-1.8,1.8-3.5,3.5-5.2,5.3l-.4.4-5.1,5.4c-.1.2-.3.3-.4.5-1.7,1.8-3.3,3.7-4.9,5.5l-.4.4c-1.6,1.9-3.3,3.8-4.9,5.7a1.38,1.38,0,0,0-.3.4c-1.6,1.9-3.2,3.9-4.8,5.9l-.2.2c-4.3,5.4-8.5,11-12.5,16.7-3.6,5.1-7.1,10.4-10.5,15.7h0c-1.4,2.2-2.8,4.5-4.1,6.7l-.1.1c-1.3,2.2-2.6,4.5-3.9,6.8,0,.1-.1.1-.1.2-1.3,2.3-2.5,4.5-3.7,6.8a.35.35,0,0,1-.1.2l-3.6,6.9c0,.1-.1.1-.1.2-1.2,2.4-2.4,4.7-3.5,7.1v.1A347.87,347.87,0,0,0,517.4,701a348.25,348.25,0,0,0,51.3,12.1h.1l6.4.9a.9.9,0,0,1,.5.1c2,.3,4.1.5,6.1.8h.3c2.1.2,4.2.5,6.2.7.3,0,.6.1.9.1,1.9.2,3.9.4,5.8.5h.5c2,.2,4.1.3,6.1.4a6.15,6.15,0,0,1,1.3.1l5.8.3h.4c2,.1,4,.1,6.1.2h1.4c2,0,4.1.1,6.1.1,2.4,0,4.8,0,7.2-.1h1c2.3-.1,4.6-.1,6.9-.2a3.75,3.75,0,0,0,1.1-.1c2.3-.1,4.6-.2,6.9-.4a2.2,2.2,0,0,0,.8-.1c5-.3,9.9-.8,14.8-1.3h.2l7.4-.9h.4a348.44,348.44,0,0,0,73.2-18.1A345.59,345.59,0,0,0,719.4,602.2Z" transform="translate(-2.8 -3)"/></g><text id="skills_text" data-name="skills text" class="cls-10" transform="translate(199.81 789.41)">Skills</text><text class="cls-11" transform="translate(729.55 792.64)"> </text><text class="cls-10" transform="translate(757.35 792.64)">Se<tspan class="cls-12" x="116.45" y="0">r</tspan><tspan x="160.06" y="0">vices</tspan></text><text id="products_text" data-name="products text" class="cls-10" transform="translate(413.61 356.57)"><tspan class="cls-13">P</tspan><tspan class="cls-14" x="61.26" y="0">r</tspan><tspan x="101.26" y="0">oducts</tspan></text><rect class="cls-15" x="1394.6" y="353.3" width="0.7" height="4.1"/></g><g id="Logo"><path class="cls-2" d="M969.6,400.9C957.4,537.1,866.7,650.7,743.1,696.2q1.35,13.35,1.8,27v.2c0,1.4.1,2.7.1,4.1v11.2c0,1,0,2.1-.1,3.1a10.87,10.87,0,0,1-.1,1.8c0,.9-.1,1.9-.1,2.8,0,.6-.1,1.3-.1,1.9,0,.9-.1,1.8-.1,2.7,0,.7-.1,1.3-.1,2a22.75,22.75,0,0,1-.2,2.6c0,.7-.1,1.4-.1,2-.1.8-.1,1.7-.2,2.5s-.1,1.4-.2,2c-.1.8-.1,1.7-.2,2.5s-.1,1.4-.2,2c-.1.8-.2,1.7-.3,2.5s-.1,1.4-.2,2c-.1.8-.2,1.7-.3,2.5a13.55,13.55,0,0,0-.2,2c-.1.8-.2,1.7-.3,2.5s-.2,1.3-.3,2a21.66,21.66,0,0,1-.4,2.5c-.1.6-.2,1.3-.3,1.9-.1.9-.3,1.7-.4,2.6-.1.6-.2,1.2-.3,1.9a25.58,25.58,0,0,1-.5,2.7c-.1.6-.2,1.2-.3,1.7a29.31,29.31,0,0,0-.5,2.9l-.3,1.5c-.2,1.2-.5,2.4-.7,3.6-.1.3-.1.6-.2.8-.3,1.5-.6,3-.9,4.4,0,.2-.1.4-.1.6-.3,1.3-.6,2.5-.9,3.8-.1.4-.2.9-.3,1.3-.2,1-.5,2-.7,3-.1.5-.3,1-.4,1.6-.2.9-.5,1.8-.7,2.8-.1.6-.3,1.1-.4,1.7-.2.9-.5,1.8-.7,2.6-.2.6-.3,1.1-.5,1.7-.2.9-.5,1.7-.7,2.6-.2.6-.3,1.2-.5,1.7-.2.8-.5,1.7-.7,2.5a15.43,15.43,0,0,0-.5,1.7c-.3.8-.5,1.7-.8,2.5-.2.6-.4,1.2-.6,1.7-.3.8-.5,1.7-.8,2.5-.2.6-.4,1.1-.6,1.7-.3.8-.6,1.7-.9,2.5-.2.6-.4,1.1-.6,1.7-.3.9-.6,1.7-.9,2.6-.2.5-.4,1.1-.6,1.6a20,20,0,0,1-1,2.6l-.6,1.5c-.3.9-.7,1.8-1.1,2.8-.2.4-.3.9-.5,1.3l-1.2,3c-.1.4-.3.7-.4,1.1-.5,1.2-1,2.3-1.5,3.5-.1.2-.1.4-.2.5-1.2,2.7-2.4,5.5-3.6,8.2,0,.1-.1.1-.1.2-.6,1.3-1.2,2.5-1.7,3.8a5.94,5.94,0,0,1-.4.8c-.5,1-1,2.1-1.5,3.1a5.36,5.36,0,0,0-.5,1.1c-.5.9-.9,1.9-1.4,2.8l-.6,1.2c-.5.9-.9,1.8-1.4,2.7a8.26,8.26,0,0,1-.7,1.3c-.5.9-.9,1.7-1.4,2.6-.2.4-.5.9-.7,1.3-.5.9-.9,1.7-1.4,2.6-.2.4-.5.9-.7,1.3-.5.8-.9,1.7-1.4,2.5-.2.4-.5.9-.7,1.3-.5.8-1,1.7-1.5,2.5-.2.4-.5.8-.7,1.2-.5.9-1,1.7-1.5,2.6-.2.4-.5.8-.7,1.2-.5.9-1.1,1.7-1.6,2.6a6.73,6.73,0,0,1-.7,1.1c-.6.9-1.1,1.8-1.7,2.7a8.79,8.79,0,0,0-.6,1c-.6,1-1.3,2-1.9,2.9-.2.2-.3.5-.5.7-.7,1.1-1.5,2.2-2.2,3.4-.1.1-.1.2-.2.2q-4.95,7.35-10.2,14.4a1.76,1.76,0,0,1-.4.5c-.8,1-1.5,2-2.3,3a3,3,0,0,0-.5.7l-2.1,2.7a2.7,2.7,0,0,1-.7.8c-.7.9-1.4,1.7-2.1,2.6-.2.3-.5.6-.7.9-.7.8-1.4,1.7-2,2.5-.3.3-.5.6-.8.9-.7.8-1.4,1.6-2,2.4-.3.3-.5.6-.8.9l-2.1,2.4c-.3.3-.5.6-.8.9l-2.1,2.4c-.3.3-.5.6-.8.9-.7.8-1.5,1.6-2.2,2.4-.2.3-.5.5-.7.8-.8.8-1.5,1.7-2.3,2.5-.2.2-.4.5-.6.7-.8.9-1.7,1.7-2.5,2.6l-.5.5c-.9,1-1.9,1.9-2.8,2.9l-.2.2c-4.2,4.2-8.4,8.3-12.8,12.2h0a346.62,346.62,0,0,0,233.5,90c192.1,0,347.9-155.8,347.9-347.9C1212.1,577.1,1110.2,445.5,969.6,400.9Z" transform="translate(-2.8 -3)"/><path class="cls-3" d="M630.2,476.4a348.17,348.17,0,0,1,339-73.8c.9-10.3,1.4-20.8,1.4-31.3,0-192.1-155.8-347.9-347.9-347.9s-348,155.8-348,347.9a337.3,337.3,0,0,0,1.9,36.4,348.32,348.32,0,0,1,353.6,68.7Z" transform="translate(-2.8 -3)"/><g class="cls-4"><path class="cls-5" d="M630.1,474.5c1.9,1.7,3.7,3.4,5.6,5.2l.3.3c1.8,1.7,3.5,3.4,5.3,5.1l.4.4c1.7,1.7,3.4,3.4,5.1,5.2l.4.4c1.7,1.8,3.4,3.5,5,5.3.1.1.2.3.4.4,1.7,1.8,3.3,3.7,5,5.5l.2.2c3.4,3.9,6.7,7.8,10,11.8s6.4,8.1,9.4,12.3l.2.2c1.5,2,2.9,4.1,4.4,6.1.1.1.2.2.2.3,1.4,2,2.8,4.1,4.2,6.2a.52.52,0,0,1,.2.4c1.4,2.1,2.8,4.2,4.1,6.3.1.1.1.2.2.3,1.4,2.2,2.7,4.3,4,6.5h0c2.7,4.5,5.3,9,7.8,13.6s4.9,9.3,7.2,14h0c1.1,2.3,2.3,4.7,3.3,7.1a.1.1,0,0,0,.1.1c1.1,2.4,2.1,4.7,3.2,7.1a.1.1,0,0,0,.1.1c1,2.4,2,4.8,3,7.3h0A345.93,345.93,0,0,1,742.7,696C866.3,650.6,957,536.9,969.2,400.7a348.36,348.36,0,0,0-339.1,73.8Z" transform="translate(-2.8 -3)"/></g><path class="cls-6" d="M618.2,978.6c-1-1-2-2-3-3.1l-.4-.4c-.9-.9-1.8-1.8-2.6-2.7l-.6-.6c-.8-.9-1.6-1.7-2.4-2.6a4.62,4.62,0,0,0-.7-.7c-.8-.8-1.5-1.7-2.3-2.5-.2-.3-.5-.5-.7-.8-.7-.8-1.5-1.6-2.2-2.5a5.72,5.72,0,0,0-.7-.8l-2.1-2.4a5.5,5.5,0,0,1-.7-.9c-.7-.8-1.4-1.6-2.1-2.5-.2-.3-.5-.6-.7-.9-.7-.8-1.4-1.7-2.1-2.5a5.72,5.72,0,0,0-.7-.8c-.7-.9-1.4-1.7-2.1-2.6-.2-.3-.4-.5-.6-.8-.7-.9-1.4-1.8-2.2-2.8a4.23,4.23,0,0,1-.5-.7c-.8-1-1.5-2-2.3-3-.1-.1-.2-.3-.3-.4-3.5-4.7-7-9.5-10.3-14.4h0l-2.4-3.6c-.1-.2-.3-.4-.4-.6-.7-1-1.3-2-2-3l-.6-.9c-.6-.9-1.2-1.9-1.8-2.8-.2-.3-.4-.7-.6-1-.5-.9-1.1-1.8-1.6-2.7a10.54,10.54,0,0,0-.7-1.1c-.5-.9-1-1.7-1.5-2.6-.2-.4-.5-.8-.7-1.2-.5-.9-1-1.7-1.5-2.6-.2-.4-.5-.8-.7-1.2-.5-.9-1-1.7-1.4-2.6-.2-.4-.5-.8-.7-1.3-.5-.9-.9-1.7-1.4-2.6-.2-.4-.5-.8-.7-1.3-.5-.9-.9-1.8-1.4-2.6l-.6-1.2c-.5-.9-.9-1.8-1.4-2.7l-.6-1.2c-.5-1-.9-1.9-1.4-2.9a5.36,5.36,0,0,1-.5-1.1c-.5-1-1-2.1-1.5-3.1a5.94,5.94,0,0,0-.4-.8c-.6-1.2-1.2-2.5-1.7-3.8,0-.1-.1-.1-.1-.2-1.2-2.7-2.4-5.4-3.6-8.2-.1-.1-.1-.2-.2-.4-.5-1.2-1-2.4-1.5-3.7-.1-.3-.3-.7-.4-1l-1.2-3c-.2-.4-.3-.9-.5-1.3-.4-.9-.7-1.9-1.1-2.8a8.8,8.8,0,0,1-.5-1.5c-.3-.9-.7-1.8-1-2.7-.2-.5-.4-1-.6-1.6-.3-.9-.6-1.7-.9-2.6-.2-.5-.4-1.1-.6-1.6-.3-.8-.6-1.7-.9-2.5-.2-.6-.4-1.1-.6-1.7-.3-.8-.5-1.7-.8-2.5a10.93,10.93,0,0,1-.5-1.7c-.3-.8-.5-1.7-.8-2.5a15.43,15.43,0,0,1-.5-1.7c-.3-.8-.5-1.7-.8-2.5-.2-.6-.3-1.2-.5-1.7-.2-.9-.5-1.7-.7-2.6-.2-.6-.3-1.1-.5-1.7-.2-.9-.5-1.8-.7-2.6-.1-.6-.3-1.1-.4-1.7-.2-.9-.5-1.8-.7-2.8-.1-.5-.3-1-.4-1.6-.2-1-.5-2-.7-3-.1-.4-.2-.9-.3-1.3-.3-1.3-.6-2.5-.9-3.8,0-.2-.1-.4-.1-.6-.3-1.5-.6-3-.9-4.4,0-.2-.1-.5-.1-.7-.2-1.2-.5-2.4-.7-3.7l-.3-1.5c-.2-1-.4-2-.5-3-.1-.6-.2-1.1-.3-1.7-.2-.9-.3-1.8-.5-2.7l-.3-1.8c-.1-.9-.3-1.7-.4-2.6-.1-.6-.2-1.3-.3-1.9-.1-.8-.2-1.7-.4-2.6-.1-.7-.2-1.3-.3-2s-.2-1.7-.3-2.5a13.55,13.55,0,0,1-.2-2c-.1-.8-.2-1.7-.3-2.5s-.1-1.3-.2-2-.2-1.7-.3-2.5-.1-1.4-.2-2a21.05,21.05,0,0,1-.2-2.5c-.1-.7-.1-1.4-.2-2-.1-.8-.1-1.7-.2-2.5s-.1-1.4-.1-2c-.1-.9-.1-1.7-.2-2.6,0-.7-.1-1.3-.1-2,0-.9-.1-1.8-.1-2.7,0-.6-.1-1.3-.1-1.9,0-.9-.1-1.9-.1-2.8a10.87,10.87,0,0,0-.1-1.8c0-1,0-2.1-.1-3.1v-6.1c0-2.5,0-4.9.1-7.4v-.8c.1-2.4.1-4.9.2-7.3v-.6c.2-5.1.6-10.2,1-15.3C388.5,661,291.9,546.1,277.4,406.8,144.4,455.7,49.5,583.5,49.5,733.4c0,192.1,155.8,347.9,347.9,347.9A346.67,346.67,0,0,0,631,991.2c-4.3-4.3-8.6-8.4-12.8-12.6Z" transform="translate(-2.8 -3)"/><path class="cls-7" d="M643,978.2l.2-.2c.9-1,1.9-1.9,2.8-2.9l.5-.5c.8-.9,1.7-1.7,2.5-2.6.2-.2.4-.5.6-.7.8-.8,1.6-1.7,2.3-2.5.2-.3.5-.5.7-.8.7-.8,1.5-1.6,2.2-2.4.3-.3.5-.6.8-.9l2.1-2.4c.3-.3.5-.6.8-.9l2.1-2.4c.3-.3.5-.6.8-.9.7-.8,1.4-1.6,2-2.4.3-.3.5-.6.8-.9a24.33,24.33,0,0,0,2-2.5c.2-.3.5-.6.7-.9.7-.9,1.4-1.7,2.1-2.6a2.7,2.7,0,0,1,.7-.8l2.1-2.7a3,3,0,0,0,.5-.7c.8-1,1.5-2,2.3-3a1.76,1.76,0,0,1,.4-.5q5.25-7.05,10.2-14.4c.1-.1.1-.2.2-.2a39.56,39.56,0,0,0,2.2-3.4c.2-.2.3-.5.5-.7.6-1,1.3-2,1.9-2.9a8.79,8.79,0,0,0,.6-1c.6-.9,1.1-1.8,1.7-2.7.2-.4.5-.7.7-1.1.5-.9,1.1-1.7,1.6-2.6.2-.4.5-.8.7-1.2.5-.9,1-1.7,1.5-2.6.2-.4.5-.8.7-1.2.5-.8,1-1.7,1.5-2.5.2-.4.5-.9.7-1.3.5-.8.9-1.7,1.4-2.5.2-.4.5-.9.7-1.3.5-.8.9-1.7,1.4-2.6.2-.4.5-.9.7-1.3.5-.9.9-1.7,1.4-2.6a8.26,8.26,0,0,1,.7-1.3c.5-.9.9-1.8,1.4-2.7l.6-1.2c.5-.9.9-1.9,1.4-2.8a5.36,5.36,0,0,0,.5-1.1c.5-1,1-2.1,1.5-3.1a5.94,5.94,0,0,1,.4-.8c.6-1.3,1.2-2.5,1.7-3.8,0-.1.1-.1.1-.2,1.2-2.7,2.4-5.4,3.6-8.2.1-.2.1-.4.2-.5.5-1.2,1-2.3,1.5-3.5.1-.4.3-.7.4-1.1l1.2-3c.2-.4.3-.9.5-1.3.4-.9.7-1.8,1.1-2.8l.6-1.5c.3-.9.7-1.8,1-2.6.2-.5.4-1.1.6-1.6.3-.8.6-1.7.9-2.6.2-.6.4-1.1.6-1.7.3-.8.6-1.7.9-2.5.2-.6.4-1.1.6-1.7.3-.8.5-1.7.8-2.5.2-.6.4-1.2.6-1.7.3-.8.5-1.7.8-2.5a15.43,15.43,0,0,0,.5-1.7,23.35,23.35,0,0,0,.7-2.5c.2-.6.3-1.2.5-1.7.2-.9.5-1.7.7-2.6.2-.6.3-1.1.5-1.7.2-.9.5-1.7.7-2.6.1-.6.3-1.1.4-1.7.2-.9.5-1.8.7-2.8.1-.5.3-1,.4-1.6.2-1,.5-2,.7-3,.1-.4.2-.9.3-1.3.3-1.3.6-2.5.9-3.8,0-.2.1-.4.1-.6.3-1.5.6-2.9.9-4.4.1-.3.1-.6.2-.8.2-1.2.5-2.4.7-3.6l.3-1.5a29.31,29.31,0,0,0,.5-2.9c.1-.6.2-1.2.3-1.7.2-.9.3-1.8.5-2.7.1-.6.2-1.2.3-1.9.1-.9.3-1.7.4-2.6.1-.6.2-1.3.3-1.9a21.66,21.66,0,0,1,.4-2.5c.1-.7.2-1.3.3-2s.2-1.7.3-2.5a13.55,13.55,0,0,0,.2-2c.1-.8.2-1.7.3-2.5s.1-1.4.2-2c.1-.8.2-1.7.3-2.5s.1-1.4.2-2a21.05,21.05,0,0,0,.2-2.5c.1-.7.1-1.4.2-2,.1-.8.1-1.7.2-2.5s.1-1.4.1-2c.1-.9.1-1.7.2-2.6,0-.7.1-1.3.1-2,0-.9.1-1.8.1-2.7,0-.6.1-1.3.1-1.9,0-.9.1-1.9.1-2.8a10.87,10.87,0,0,1,.1-1.8c0-1,0-2.1.1-3.1V728c0-1.4,0-2.7-.1-4.1v-.2q-.3-13.65-1.8-27a342.39,342.39,0,0,1-73.2,18.1h-.4l-7.4.9h-.2c-4.9.5-9.8,1-14.8,1.3a2.2,2.2,0,0,0-.8.1c-2.3.2-4.6.3-6.9.4a3.75,3.75,0,0,0-1.1.1c-2.3.1-4.6.2-6.9.2h-1c-2.4,0-4.8.1-7.2.1-2,0-4.1,0-6.1-.1h-1.4c-2,0-4.1-.1-6.1-.2h-.4l-5.8-.3a6.15,6.15,0,0,1-1.3-.1c-2-.1-4.1-.3-6.1-.4h-.5c-2-.2-3.9-.3-5.8-.5-.3,0-.6-.1-.9-.1-2.1-.2-4.2-.4-6.2-.7H582c-2-.2-4.1-.5-6.1-.8a.9.9,0,0,1-.5-.1l-6.4-.9h-.1a336,336,0,0,1-51.3-12.1c-.5,5.1-.8,10.2-1,15.3v.6c-.1,2.4-.2,4.8-.2,7.3v.8c-.1,2.5-.1,4.9-.1,7.4v6.1c0,1,0,2.1.1,3.1a10.87,10.87,0,0,0,.1,1.8c0,.9.1,1.9.1,2.8,0,.6.1,1.3.1,1.9,0,.9.1,1.8.1,2.7,0,.7.1,1.3.1,2,.1.9.1,1.7.2,2.6,0,.7.1,1.4.1,2,.1.8.1,1.7.2,2.5s.1,1.4.2,2c.1.8.1,1.7.2,2.5s.1,1.4.2,2c.1.8.2,1.7.3,2.5s.1,1.3.2,2,.2,1.7.3,2.5a13.55,13.55,0,0,1,.2,2c.1.8.2,1.7.3,2.5s.2,1.3.3,2a23.36,23.36,0,0,0,.4,2.6c.1.6.2,1.3.3,1.9.1.9.3,1.7.4,2.6l.3,1.8a25.58,25.58,0,0,0,.5,2.7c.1.6.2,1.1.3,1.7.2,1,.4,2,.5,3l.3,1.5c.2,1.2.5,2.4.7,3.7,0,.2.1.5.1.7.3,1.5.6,3,.9,4.4,0,.2.1.4.1.6.3,1.3.6,2.5.9,3.8.1.4.2.9.3,1.3.2,1,.5,2,.7,3,.1.5.3,1,.4,1.6.2.9.5,1.8.7,2.8.1.6.3,1.1.4,1.7.2.9.5,1.8.7,2.6.2.6.3,1.1.5,1.7.2.9.5,1.7.7,2.6.2.6.3,1.2.5,1.7a24.13,24.13,0,0,0,.8,2.5,15.43,15.43,0,0,1,.5,1.7c.3.8.5,1.7.8,2.5a10.93,10.93,0,0,1,.5,1.7c.3.8.5,1.7.8,2.5.2.6.4,1.1.6,1.7.3.8.6,1.7.9,2.5.2.5.4,1.1.6,1.6.3.9.6,1.7.9,2.6.2.5.4,1,.6,1.6.3.9.7,1.8,1,2.7a8.8,8.8,0,0,1,.5,1.5c.4.9.7,1.9,1.1,2.8.2.4.3.9.5,1.3l1.2,3c.1.3.3.7.4,1,.5,1.2,1,2.5,1.5,3.7.1.1.1.2.2.4,1.2,2.8,2.4,5.5,3.6,8.2,0,.1.1.1.1.2.6,1.3,1.1,2.5,1.7,3.8a5.94,5.94,0,0,0,.4.8c.5,1,1,2.1,1.5,3.1.2.4.3.7.5,1.1.5,1,.9,1.9,1.4,2.9l.6,1.2c.5.9.9,1.8,1.4,2.7l.6,1.2c.5.9.9,1.8,1.4,2.6.2.4.4.8.7,1.3.5.9.9,1.7,1.4,2.6.2.4.5.8.7,1.3.5.9,1,1.7,1.4,2.6.2.4.5.8.7,1.2.5.9,1,1.7,1.5,2.6.2.4.5.8.7,1.2.5.9,1,1.7,1.5,2.6a10.54,10.54,0,0,0,.7,1.1c.5.9,1.1,1.8,1.6,2.7.2.3.4.7.6,1,.6.9,1.2,1.9,1.8,2.8l.6.9c.6,1,1.3,2,2,3,.1.2.3.4.4.6l2.4,3.6h0c3.3,4.9,6.7,9.7,10.3,14.4.1.1.2.3.3.4.8,1,1.5,2,2.3,3a4.23,4.23,0,0,1,.5.7c.7.9,1.4,1.9,2.2,2.8.2.3.4.5.6.8.7.9,1.4,1.8,2.1,2.6a5.72,5.72,0,0,0,.7.8c.7.8,1.4,1.7,2.1,2.5.2.3.5.6.7.9.7.8,1.4,1.7,2.1,2.5.2.3.5.6.7.9l2.1,2.4a5.72,5.72,0,0,0,.7.8l2.2,2.5c.2.3.5.5.7.8.8.8,1.5,1.7,2.3,2.5a4.62,4.62,0,0,0,.7.7c.8.9,1.6,1.7,2.4,2.6l.6.6c.9.9,1.7,1.8,2.6,2.7l.4.4c1,1,2,2,3,3.1h0q6.3,6.3,12.9,12.3h0C634.6,986.4,638.8,982.4,643,978.2Z" transform="translate(-2.8 -3)"/><g class="cls-4"><path class="cls-8" d="M517.1,702.4a345.61,345.61,0,0,1,32.3-118.2v-.1c1.1-2.4,2.3-4.8,3.5-7.1,0-.1.1-.1.1-.2l3.6-6.9a.35.35,0,0,1,.1-.2c1.2-2.3,2.5-4.6,3.7-6.8,0-.1.1-.1.1-.2,1.3-2.3,2.6-4.5,3.9-6.8l.1-.1c1.4-2.3,2.7-4.5,4.1-6.7h0c3.3-5.3,6.8-10.6,10.5-15.7,4-5.7,8.2-11.3,12.5-16.7l.2-.2c1.6-2,3.2-3.9,4.8-5.9a1.38,1.38,0,0,0,.3-.4c1.6-1.9,3.2-3.8,4.9-5.7l.4-.4c1.6-1.9,3.3-3.7,4.9-5.5.1-.2.3-.3.4-.5l5.1-5.4.4-.4c1.7-1.8,3.5-3.6,5.2-5.3l.3-.3c1.8-1.8,3.6-3.5,5.4-5.3l.2-.2c1.9-1.8,3.8-3.5,5.7-5.3h0a348.15,348.15,0,0,0-353.5-68.7C291,546.4,387.6,661.3,517.1,702.4Z" transform="translate(-2.8 -3)"/></g><g class="cls-4"><path class="cls-9" d="M719.4,602.2h0c-1-2.4-2-4.9-3-7.3a.1.1,0,0,0-.1-.1c-1-2.4-2.1-4.8-3.2-7.1a.1.1,0,0,0-.1-.1c-1.1-2.4-2.2-4.7-3.3-7.1h0c-2.3-4.7-4.7-9.4-7.2-14s-5.1-9.2-7.8-13.6h0c-1.3-2.2-2.7-4.4-4-6.5-.1-.1-.1-.2-.2-.3-1.3-2.1-2.7-4.2-4.1-6.3a.52.52,0,0,1-.2-.4c-1.4-2.1-2.8-4.1-4.2-6.2-.1-.1-.2-.2-.2-.3-1.4-2.1-2.9-4.1-4.4-6.1l-.2-.2c-3.1-4.2-6.2-8.3-9.4-12.3s-6.6-8-10-11.8l-.2-.2c-1.6-1.9-3.3-3.7-5-5.5-.1-.1-.2-.3-.4-.4-1.6-1.8-3.3-3.6-5-5.3l-.4-.4c-1.7-1.7-3.4-3.5-5.1-5.2l-.4-.4c-1.7-1.7-3.5-3.4-5.3-5.1l-.3-.3c-1.8-1.7-3.7-3.5-5.6-5.2h0c-1.9,1.7-3.8,3.5-5.7,5.3l-.2.2c-1.8,1.7-3.6,3.5-5.4,5.3l-.3.3c-1.8,1.8-3.5,3.5-5.2,5.3l-.4.4-5.1,5.4c-.1.2-.3.3-.4.5-1.7,1.8-3.3,3.7-4.9,5.5l-.4.4c-1.6,1.9-3.3,3.8-4.9,5.7a1.38,1.38,0,0,0-.3.4c-1.6,1.9-3.2,3.9-4.8,5.9l-.2.2c-4.3,5.4-8.5,11-12.5,16.7-3.6,5.1-7.1,10.4-10.5,15.7h0c-1.4,2.2-2.8,4.5-4.1,6.7l-.1.1c-1.3,2.2-2.6,4.5-3.9,6.8,0,.1-.1.1-.1.2-1.3,2.3-2.5,4.5-3.7,6.8a.35.35,0,0,1-.1.2l-3.6,6.9c0,.1-.1.1-.1.2-1.2,2.4-2.4,4.7-3.5,7.1v.1A347.87,347.87,0,0,0,517.4,701a348.25,348.25,0,0,0,51.3,12.1h.1l6.4.9a.9.9,0,0,1,.5.1c2,.3,4.1.5,6.1.8h.3c2.1.2,4.2.5,6.2.7.3,0,.6.1.9.1,1.9.2,3.9.4,5.8.5h.5c2,.2,4.1.3,6.1.4a6.15,6.15,0,0,1,1.3.1l5.8.3h.4c2,.1,4,.1,6.1.2h1.4c2,0,4.1.1,6.1.1,2.4,0,4.8,0,7.2-.1h1c2.3-.1,4.6-.1,6.9-.2a3.75,3.75,0,0,0,1.1-.1c2.3-.1,4.6-.2,6.9-.4a2.2,2.2,0,0,0,.8-.1c5-.3,9.9-.8,14.8-1.3h.2l7.4-.9h.4a348.44,348.44,0,0,0,73.2-18.1A345.59,345.59,0,0,0,719.4,602.2Z" transform="translate(-2.8 -3)"/></g><text class="cls-10" transform="translate(231.81 789.41)">Skills</text><text class="cls-11" transform="translate(715.55 792.64)"> </text><text class="cls-10" transform="translate(743.35 792.64)">Se<tspan class="cls-12" x="116.45" y="0">r</tspan><tspan x="160.06" y="0">vices</tspan></text><text class="cls-10" transform="translate(413.61 356.57)"><tspan class="cls-13">P</tspan><tspan class="cls-14" x="61.26" y="0">r</tspan><tspan x="101.26" y="0">oducts</tspan></text><rect class="cls-15" x="1394.6" y="353.3" width="0.7" height="4.1"/><path class="cls-2" d="M969.6,400.9C957.4,537.1,866.7,650.7,743.1,696.2q1.35,13.35,1.8,27v.2c0,1.4.1,2.7.1,4.1v11.2c0,1,0,2.1-.1,3.1a10.87,10.87,0,0,1-.1,1.8c0,.9-.1,1.9-.1,2.8,0,.6-.1,1.3-.1,1.9,0,.9-.1,1.8-.1,2.7,0,.7-.1,1.3-.1,2a22.75,22.75,0,0,1-.2,2.6c0,.7-.1,1.4-.1,2-.1.8-.1,1.7-.2,2.5s-.1,1.4-.2,2c-.1.8-.1,1.7-.2,2.5s-.1,1.4-.2,2c-.1.8-.2,1.7-.3,2.5s-.1,1.4-.2,2c-.1.8-.2,1.7-.3,2.5a13.55,13.55,0,0,0-.2,2c-.1.8-.2,1.7-.3,2.5s-.2,1.3-.3,2a21.66,21.66,0,0,1-.4,2.5c-.1.6-.2,1.3-.3,1.9-.1.9-.3,1.7-.4,2.6-.1.6-.2,1.2-.3,1.9a25.58,25.58,0,0,1-.5,2.7c-.1.6-.2,1.2-.3,1.7a29.31,29.31,0,0,0-.5,2.9l-.3,1.5c-.2,1.2-.5,2.4-.7,3.6-.1.3-.1.6-.2.8-.3,1.5-.6,3-.9,4.4,0,.2-.1.4-.1.6-.3,1.3-.6,2.5-.9,3.8-.1.4-.2.9-.3,1.3-.2,1-.5,2-.7,3-.1.5-.3,1-.4,1.6-.2.9-.5,1.8-.7,2.8-.1.6-.3,1.1-.4,1.7-.2.9-.5,1.8-.7,2.6-.2.6-.3,1.1-.5,1.7-.2.9-.5,1.7-.7,2.6-.2.6-.3,1.2-.5,1.7-.2.8-.5,1.7-.7,2.5a15.43,15.43,0,0,0-.5,1.7c-.3.8-.5,1.7-.8,2.5-.2.6-.4,1.2-.6,1.7-.3.8-.5,1.7-.8,2.5-.2.6-.4,1.1-.6,1.7-.3.8-.6,1.7-.9,2.5-.2.6-.4,1.1-.6,1.7-.3.9-.6,1.7-.9,2.6-.2.5-.4,1.1-.6,1.6a20,20,0,0,1-1,2.6l-.6,1.5c-.3.9-.7,1.8-1.1,2.8-.2.4-.3.9-.5,1.3l-1.2,3c-.1.4-.3.7-.4,1.1-.5,1.2-1,2.3-1.5,3.5-.1.2-.1.4-.2.5-1.2,2.7-2.4,5.5-3.6,8.2,0,.1-.1.1-.1.2-.6,1.3-1.2,2.5-1.7,3.8a5.94,5.94,0,0,1-.4.8c-.5,1-1,2.1-1.5,3.1a5.36,5.36,0,0,0-.5,1.1c-.5.9-.9,1.9-1.4,2.8l-.6,1.2c-.5.9-.9,1.8-1.4,2.7a8.26,8.26,0,0,1-.7,1.3c-.5.9-.9,1.7-1.4,2.6-.2.4-.5.9-.7,1.3-.5.9-.9,1.7-1.4,2.6-.2.4-.5.9-.7,1.3-.5.8-.9,1.7-1.4,2.5-.2.4-.5.9-.7,1.3-.5.8-1,1.7-1.5,2.5-.2.4-.5.8-.7,1.2-.5.9-1,1.7-1.5,2.6-.2.4-.5.8-.7,1.2-.5.9-1.1,1.7-1.6,2.6a6.73,6.73,0,0,1-.7,1.1c-.6.9-1.1,1.8-1.7,2.7a8.79,8.79,0,0,0-.6,1c-.6,1-1.3,2-1.9,2.9-.2.2-.3.5-.5.7-.7,1.1-1.5,2.2-2.2,3.4-.1.1-.1.2-.2.2q-4.95,7.35-10.2,14.4a1.76,1.76,0,0,1-.4.5c-.8,1-1.5,2-2.3,3a3,3,0,0,0-.5.7l-2.1,2.7a2.7,2.7,0,0,1-.7.8c-.7.9-1.4,1.7-2.1,2.6-.2.3-.5.6-.7.9-.7.8-1.4,1.7-2,2.5-.3.3-.5.6-.8.9-.7.8-1.4,1.6-2,2.4-.3.3-.5.6-.8.9l-2.1,2.4c-.3.3-.5.6-.8.9l-2.1,2.4c-.3.3-.5.6-.8.9-.7.8-1.5,1.6-2.2,2.4-.2.3-.5.5-.7.8-.8.8-1.5,1.7-2.3,2.5-.2.2-.4.5-.6.7-.8.9-1.7,1.7-2.5,2.6l-.5.5c-.9,1-1.9,1.9-2.8,2.9l-.2.2c-4.2,4.2-8.4,8.3-12.8,12.2h0a346.62,346.62,0,0,0,233.5,90c192.1,0,347.9-155.8,347.9-347.9C1212.1,577.1,1110.2,445.5,969.6,400.9Z" transform="translate(-2.8 -3)"/><path class="cls-3" d="M630.2,476.4a348.17,348.17,0,0,1,339-73.8c.9-10.3,1.4-20.8,1.4-31.3,0-192.1-155.8-347.9-347.9-347.9s-348,155.8-348,347.9a337.3,337.3,0,0,0,1.9,36.4,348.32,348.32,0,0,1,353.6,68.7Z" transform="translate(-2.8 -3)"/><g class="cls-4"><path class="cls-5" d="M630.1,474.5c1.9,1.7,3.7,3.4,5.6,5.2l.3.3c1.8,1.7,3.5,3.4,5.3,5.1l.4.4c1.7,1.7,3.4,3.4,5.1,5.2l.4.4c1.7,1.8,3.4,3.5,5,5.3.1.1.2.3.4.4,1.7,1.8,3.3,3.7,5,5.5l.2.2c3.4,3.9,6.7,7.8,10,11.8s6.4,8.1,9.4,12.3l.2.2c1.5,2,2.9,4.1,4.4,6.1.1.1.2.2.2.3,1.4,2,2.8,4.1,4.2,6.2a.52.52,0,0,1,.2.4c1.4,2.1,2.8,4.2,4.1,6.3.1.1.1.2.2.3,1.4,2.2,2.7,4.3,4,6.5h0c2.7,4.5,5.3,9,7.8,13.6s4.9,9.3,7.2,14h0c1.1,2.3,2.3,4.7,3.3,7.1a.1.1,0,0,0,.1.1c1.1,2.4,2.1,4.7,3.2,7.1a.1.1,0,0,0,.1.1c1,2.4,2,4.8,3,7.3h0A345.93,345.93,0,0,1,742.7,696C866.3,650.6,957,536.9,969.2,400.7a348.36,348.36,0,0,0-339.1,73.8Z" transform="translate(-2.8 -3)"/></g><path class="cls-6" d="M618.2,978.6c-1-1-2-2-3-3.1l-.4-.4c-.9-.9-1.8-1.8-2.6-2.7l-.6-.6c-.8-.9-1.6-1.7-2.4-2.6a4.62,4.62,0,0,0-.7-.7c-.8-.8-1.5-1.7-2.3-2.5-.2-.3-.5-.5-.7-.8-.7-.8-1.5-1.6-2.2-2.5a5.72,5.72,0,0,0-.7-.8l-2.1-2.4a5.5,5.5,0,0,1-.7-.9c-.7-.8-1.4-1.6-2.1-2.5-.2-.3-.5-.6-.7-.9-.7-.8-1.4-1.7-2.1-2.5a5.72,5.72,0,0,0-.7-.8c-.7-.9-1.4-1.7-2.1-2.6-.2-.3-.4-.5-.6-.8-.7-.9-1.4-1.8-2.2-2.8a4.23,4.23,0,0,1-.5-.7c-.8-1-1.5-2-2.3-3-.1-.1-.2-.3-.3-.4-3.5-4.7-7-9.5-10.3-14.4h0l-2.4-3.6c-.1-.2-.3-.4-.4-.6-.7-1-1.3-2-2-3l-.6-.9c-.6-.9-1.2-1.9-1.8-2.8-.2-.3-.4-.7-.6-1-.5-.9-1.1-1.8-1.6-2.7a10.54,10.54,0,0,0-.7-1.1c-.5-.9-1-1.7-1.5-2.6-.2-.4-.5-.8-.7-1.2-.5-.9-1-1.7-1.5-2.6-.2-.4-.5-.8-.7-1.2-.5-.9-1-1.7-1.4-2.6-.2-.4-.5-.8-.7-1.3-.5-.9-.9-1.7-1.4-2.6-.2-.4-.5-.8-.7-1.3-.5-.9-.9-1.8-1.4-2.6l-.6-1.2c-.5-.9-.9-1.8-1.4-2.7l-.6-1.2c-.5-1-.9-1.9-1.4-2.9a5.36,5.36,0,0,1-.5-1.1c-.5-1-1-2.1-1.5-3.1a5.94,5.94,0,0,0-.4-.8c-.6-1.2-1.2-2.5-1.7-3.8,0-.1-.1-.1-.1-.2-1.2-2.7-2.4-5.4-3.6-8.2-.1-.1-.1-.2-.2-.4-.5-1.2-1-2.4-1.5-3.7-.1-.3-.3-.7-.4-1l-1.2-3c-.2-.4-.3-.9-.5-1.3-.4-.9-.7-1.9-1.1-2.8a8.8,8.8,0,0,1-.5-1.5c-.3-.9-.7-1.8-1-2.7-.2-.5-.4-1-.6-1.6-.3-.9-.6-1.7-.9-2.6-.2-.5-.4-1.1-.6-1.6-.3-.8-.6-1.7-.9-2.5-.2-.6-.4-1.1-.6-1.7-.3-.8-.5-1.7-.8-2.5a10.93,10.93,0,0,1-.5-1.7c-.3-.8-.5-1.7-.8-2.5a15.43,15.43,0,0,1-.5-1.7c-.3-.8-.5-1.7-.8-2.5-.2-.6-.3-1.2-.5-1.7-.2-.9-.5-1.7-.7-2.6-.2-.6-.3-1.1-.5-1.7-.2-.9-.5-1.8-.7-2.6-.1-.6-.3-1.1-.4-1.7-.2-.9-.5-1.8-.7-2.8-.1-.5-.3-1-.4-1.6-.2-1-.5-2-.7-3-.1-.4-.2-.9-.3-1.3-.3-1.3-.6-2.5-.9-3.8,0-.2-.1-.4-.1-.6-.3-1.5-.6-3-.9-4.4,0-.2-.1-.5-.1-.7-.2-1.2-.5-2.4-.7-3.7l-.3-1.5c-.2-1-.4-2-.5-3-.1-.6-.2-1.1-.3-1.7-.2-.9-.3-1.8-.5-2.7l-.3-1.8c-.1-.9-.3-1.7-.4-2.6-.1-.6-.2-1.3-.3-1.9-.1-.8-.2-1.7-.4-2.6-.1-.7-.2-1.3-.3-2s-.2-1.7-.3-2.5a13.55,13.55,0,0,1-.2-2c-.1-.8-.2-1.7-.3-2.5s-.1-1.3-.2-2-.2-1.7-.3-2.5-.1-1.4-.2-2a21.05,21.05,0,0,1-.2-2.5c-.1-.7-.1-1.4-.2-2-.1-.8-.1-1.7-.2-2.5s-.1-1.4-.1-2c-.1-.9-.1-1.7-.2-2.6,0-.7-.1-1.3-.1-2,0-.9-.1-1.8-.1-2.7,0-.6-.1-1.3-.1-1.9,0-.9-.1-1.9-.1-2.8a10.87,10.87,0,0,0-.1-1.8c0-1,0-2.1-.1-3.1v-6.1c0-2.5,0-4.9.1-7.4v-.8c.1-2.4.1-4.9.2-7.3v-.6c.2-5.1.6-10.2,1-15.3C388.5,661,291.9,546.1,277.4,406.8,144.4,455.7,49.5,583.5,49.5,733.4c0,192.1,155.8,347.9,347.9,347.9A346.67,346.67,0,0,0,631,991.2c-4.3-4.3-8.6-8.4-12.8-12.6Z" transform="translate(-2.8 -3)"/><path class="cls-7" d="M643,978.2l.2-.2c.9-1,1.9-1.9,2.8-2.9l.5-.5c.8-.9,1.7-1.7,2.5-2.6.2-.2.4-.5.6-.7.8-.8,1.6-1.7,2.3-2.5.2-.3.5-.5.7-.8.7-.8,1.5-1.6,2.2-2.4.3-.3.5-.6.8-.9l2.1-2.4c.3-.3.5-.6.8-.9l2.1-2.4c.3-.3.5-.6.8-.9.7-.8,1.4-1.6,2-2.4.3-.3.5-.6.8-.9a24.33,24.33,0,0,0,2-2.5c.2-.3.5-.6.7-.9.7-.9,1.4-1.7,2.1-2.6a2.7,2.7,0,0,1,.7-.8l2.1-2.7a3,3,0,0,0,.5-.7c.8-1,1.5-2,2.3-3a1.76,1.76,0,0,1,.4-.5q5.25-7.05,10.2-14.4c.1-.1.1-.2.2-.2a39.56,39.56,0,0,0,2.2-3.4c.2-.2.3-.5.5-.7.6-1,1.3-2,1.9-2.9a8.79,8.79,0,0,0,.6-1c.6-.9,1.1-1.8,1.7-2.7.2-.4.5-.7.7-1.1.5-.9,1.1-1.7,1.6-2.6.2-.4.5-.8.7-1.2.5-.9,1-1.7,1.5-2.6.2-.4.5-.8.7-1.2.5-.8,1-1.7,1.5-2.5.2-.4.5-.9.7-1.3.5-.8.9-1.7,1.4-2.5.2-.4.5-.9.7-1.3.5-.8.9-1.7,1.4-2.6.2-.4.5-.9.7-1.3.5-.9.9-1.7,1.4-2.6a8.26,8.26,0,0,1,.7-1.3c.5-.9.9-1.8,1.4-2.7l.6-1.2c.5-.9.9-1.9,1.4-2.8a5.36,5.36,0,0,0,.5-1.1c.5-1,1-2.1,1.5-3.1a5.94,5.94,0,0,1,.4-.8c.6-1.3,1.2-2.5,1.7-3.8,0-.1.1-.1.1-.2,1.2-2.7,2.4-5.4,3.6-8.2.1-.2.1-.4.2-.5.5-1.2,1-2.3,1.5-3.5.1-.4.3-.7.4-1.1l1.2-3c.2-.4.3-.9.5-1.3.4-.9.7-1.8,1.1-2.8l.6-1.5c.3-.9.7-1.8,1-2.6.2-.5.4-1.1.6-1.6.3-.8.6-1.7.9-2.6.2-.6.4-1.1.6-1.7.3-.8.6-1.7.9-2.5.2-.6.4-1.1.6-1.7.3-.8.5-1.7.8-2.5.2-.6.4-1.2.6-1.7.3-.8.5-1.7.8-2.5a15.43,15.43,0,0,0,.5-1.7,23.35,23.35,0,0,0,.7-2.5c.2-.6.3-1.2.5-1.7.2-.9.5-1.7.7-2.6.2-.6.3-1.1.5-1.7.2-.9.5-1.7.7-2.6.1-.6.3-1.1.4-1.7.2-.9.5-1.8.7-2.8.1-.5.3-1,.4-1.6.2-1,.5-2,.7-3,.1-.4.2-.9.3-1.3.3-1.3.6-2.5.9-3.8,0-.2.1-.4.1-.6.3-1.5.6-2.9.9-4.4.1-.3.1-.6.2-.8.2-1.2.5-2.4.7-3.6l.3-1.5a29.31,29.31,0,0,0,.5-2.9c.1-.6.2-1.2.3-1.7.2-.9.3-1.8.5-2.7.1-.6.2-1.2.3-1.9.1-.9.3-1.7.4-2.6.1-.6.2-1.3.3-1.9a21.66,21.66,0,0,1,.4-2.5c.1-.7.2-1.3.3-2s.2-1.7.3-2.5a13.55,13.55,0,0,0,.2-2c.1-.8.2-1.7.3-2.5s.1-1.4.2-2c.1-.8.2-1.7.3-2.5s.1-1.4.2-2a21.05,21.05,0,0,0,.2-2.5c.1-.7.1-1.4.2-2,.1-.8.1-1.7.2-2.5s.1-1.4.1-2c.1-.9.1-1.7.2-2.6,0-.7.1-1.3.1-2,0-.9.1-1.8.1-2.7,0-.6.1-1.3.1-1.9,0-.9.1-1.9.1-2.8a10.87,10.87,0,0,1,.1-1.8c0-1,0-2.1.1-3.1V728c0-1.4,0-2.7-.1-4.1v-.2q-.3-13.65-1.8-27a342.39,342.39,0,0,1-73.2,18.1h-.4l-7.4.9h-.2c-4.9.5-9.8,1-14.8,1.3a2.2,2.2,0,0,0-.8.1c-2.3.2-4.6.3-6.9.4a3.75,3.75,0,0,0-1.1.1c-2.3.1-4.6.2-6.9.2h-1c-2.4,0-4.8.1-7.2.1-2,0-4.1,0-6.1-.1h-1.4c-2,0-4.1-.1-6.1-.2h-.4l-5.8-.3a6.15,6.15,0,0,1-1.3-.1c-2-.1-4.1-.3-6.1-.4h-.5c-2-.2-3.9-.3-5.8-.5-.3,0-.6-.1-.9-.1-2.1-.2-4.2-.4-6.2-.7H582c-2-.2-4.1-.5-6.1-.8a.9.9,0,0,1-.5-.1l-6.4-.9h-.1a336,336,0,0,1-51.3-12.1c-.5,5.1-.8,10.2-1,15.3v.6c-.1,2.4-.2,4.8-.2,7.3v.8c-.1,2.5-.1,4.9-.1,7.4v6.1c0,1,0,2.1.1,3.1a10.87,10.87,0,0,0,.1,1.8c0,.9.1,1.9.1,2.8,0,.6.1,1.3.1,1.9,0,.9.1,1.8.1,2.7,0,.7.1,1.3.1,2,.1.9.1,1.7.2,2.6,0,.7.1,1.4.1,2,.1.8.1,1.7.2,2.5s.1,1.4.2,2c.1.8.1,1.7.2,2.5s.1,1.4.2,2c.1.8.2,1.7.3,2.5s.1,1.3.2,2,.2,1.7.3,2.5a13.55,13.55,0,0,1,.2,2c.1.8.2,1.7.3,2.5s.2,1.3.3,2a23.36,23.36,0,0,0,.4,2.6c.1.6.2,1.3.3,1.9.1.9.3,1.7.4,2.6l.3,1.8a25.58,25.58,0,0,0,.5,2.7c.1.6.2,1.1.3,1.7.2,1,.4,2,.5,3l.3,1.5c.2,1.2.5,2.4.7,3.7,0,.2.1.5.1.7.3,1.5.6,3,.9,4.4,0,.2.1.4.1.6.3,1.3.6,2.5.9,3.8.1.4.2.9.3,1.3.2,1,.5,2,.7,3,.1.5.3,1,.4,1.6.2.9.5,1.8.7,2.8.1.6.3,1.1.4,1.7.2.9.5,1.8.7,2.6.2.6.3,1.1.5,1.7.2.9.5,1.7.7,2.6.2.6.3,1.2.5,1.7a24.13,24.13,0,0,0,.8,2.5,15.43,15.43,0,0,1,.5,1.7c.3.8.5,1.7.8,2.5a10.93,10.93,0,0,1,.5,1.7c.3.8.5,1.7.8,2.5.2.6.4,1.1.6,1.7.3.8.6,1.7.9,2.5.2.5.4,1.1.6,1.6.3.9.6,1.7.9,2.6.2.5.4,1,.6,1.6.3.9.7,1.8,1,2.7a8.8,8.8,0,0,1,.5,1.5c.4.9.7,1.9,1.1,2.8.2.4.3.9.5,1.3l1.2,3c.1.3.3.7.4,1,.5,1.2,1,2.5,1.5,3.7.1.1.1.2.2.4,1.2,2.8,2.4,5.5,3.6,8.2,0,.1.1.1.1.2.6,1.3,1.1,2.5,1.7,3.8a5.94,5.94,0,0,0,.4.8c.5,1,1,2.1,1.5,3.1.2.4.3.7.5,1.1.5,1,.9,1.9,1.4,2.9l.6,1.2c.5.9.9,1.8,1.4,2.7l.6,1.2c.5.9.9,1.8,1.4,2.6.2.4.4.8.7,1.3.5.9.9,1.7,1.4,2.6.2.4.5.8.7,1.3.5.9,1,1.7,1.4,2.6.2.4.5.8.7,1.2.5.9,1,1.7,1.5,2.6.2.4.5.8.7,1.2.5.9,1,1.7,1.5,2.6a10.54,10.54,0,0,0,.7,1.1c.5.9,1.1,1.8,1.6,2.7.2.3.4.7.6,1,.6.9,1.2,1.9,1.8,2.8l.6.9c.6,1,1.3,2,2,3,.1.2.3.4.4.6l2.4,3.6h0c3.3,4.9,6.7,9.7,10.3,14.4.1.1.2.3.3.4.8,1,1.5,2,2.3,3a4.23,4.23,0,0,1,.5.7c.7.9,1.4,1.9,2.2,2.8.2.3.4.5.6.8.7.9,1.4,1.8,2.1,2.6a5.72,5.72,0,0,0,.7.8c.7.8,1.4,1.7,2.1,2.5.2.3.5.6.7.9.7.8,1.4,1.7,2.1,2.5.2.3.5.6.7.9l2.1,2.4a5.72,5.72,0,0,0,.7.8l2.2,2.5c.2.3.5.5.7.8.8.8,1.5,1.7,2.3,2.5a4.62,4.62,0,0,0,.7.7c.8.9,1.6,1.7,2.4,2.6l.6.6c.9.9,1.7,1.8,2.6,2.7l.4.4c1,1,2,2,3,3.1h0q6.3,6.3,12.9,12.3h0C634.6,986.4,638.8,982.4,643,978.2Z" transform="translate(-2.8 -3)"/><g class="cls-4"><path class="cls-8" d="M517.1,702.4a345.61,345.61,0,0,1,32.3-118.2v-.1c1.1-2.4,2.3-4.8,3.5-7.1,0-.1.1-.1.1-.2l3.6-6.9a.35.35,0,0,1,.1-.2c1.2-2.3,2.5-4.6,3.7-6.8,0-.1.1-.1.1-.2,1.3-2.3,2.6-4.5,3.9-6.8l.1-.1c1.4-2.3,2.7-4.5,4.1-6.7h0c3.3-5.3,6.8-10.6,10.5-15.7,4-5.7,8.2-11.3,12.5-16.7l.2-.2c1.6-2,3.2-3.9,4.8-5.9a1.38,1.38,0,0,0,.3-.4c1.6-1.9,3.2-3.8,4.9-5.7l.4-.4c1.6-1.9,3.3-3.7,4.9-5.5.1-.2.3-.3.4-.5l5.1-5.4.4-.4c1.7-1.8,3.5-3.6,5.2-5.3l.3-.3c1.8-1.8,3.6-3.5,5.4-5.3l.2-.2c1.9-1.8,3.8-3.5,5.7-5.3h0a348.15,348.15,0,0,0-353.5-68.7C291,546.4,387.6,661.3,517.1,702.4Z" transform="translate(-2.8 -3)"/></g><g class="cls-4"><path class="cls-9" d="M719.4,602.2h0c-1-2.4-2-4.9-3-7.3a.1.1,0,0,0-.1-.1c-1-2.4-2.1-4.8-3.2-7.1a.1.1,0,0,0-.1-.1c-1.1-2.4-2.2-4.7-3.3-7.1h0c-2.3-4.7-4.7-9.4-7.2-14s-5.1-9.2-7.8-13.6h0c-1.3-2.2-2.7-4.4-4-6.5-.1-.1-.1-.2-.2-.3-1.3-2.1-2.7-4.2-4.1-6.3a.52.52,0,0,1-.2-.4c-1.4-2.1-2.8-4.1-4.2-6.2-.1-.1-.2-.2-.2-.3-1.4-2.1-2.9-4.1-4.4-6.1l-.2-.2c-3.1-4.2-6.2-8.3-9.4-12.3s-6.6-8-10-11.8l-.2-.2c-1.6-1.9-3.3-3.7-5-5.5-.1-.1-.2-.3-.4-.4-1.6-1.8-3.3-3.6-5-5.3l-.4-.4c-1.7-1.7-3.4-3.5-5.1-5.2l-.4-.4c-1.7-1.7-3.5-3.4-5.3-5.1l-.3-.3c-1.8-1.7-3.7-3.5-5.6-5.2h0c-1.9,1.7-3.8,3.5-5.7,5.3l-.2.2c-1.8,1.7-3.6,3.5-5.4,5.3l-.3.3c-1.8,1.8-3.5,3.5-5.2,5.3l-.4.4-5.1,5.4c-.1.2-.3.3-.4.5-1.7,1.8-3.3,3.7-4.9,5.5l-.4.4c-1.6,1.9-3.3,3.8-4.9,5.7a1.38,1.38,0,0,0-.3.4c-1.6,1.9-3.2,3.9-4.8,5.9l-.2.2c-4.3,5.4-8.5,11-12.5,16.7-3.6,5.1-7.1,10.4-10.5,15.7h0c-1.4,2.2-2.8,4.5-4.1,6.7l-.1.1c-1.3,2.2-2.6,4.5-3.9,6.8,0,.1-.1.1-.1.2-1.3,2.3-2.5,4.5-3.7,6.8a.35.35,0,0,1-.1.2l-3.6,6.9c0,.1-.1.1-.1.2-1.2,2.4-2.4,4.7-3.5,7.1v.1A347.87,347.87,0,0,0,517.4,701a348.25,348.25,0,0,0,51.3,12.1h.1l6.4.9a.9.9,0,0,1,.5.1c2,.3,4.1.5,6.1.8h.3c2.1.2,4.2.5,6.2.7.3,0,.6.1.9.1,1.9.2,3.9.4,5.8.5h.5c2,.2,4.1.3,6.1.4a6.15,6.15,0,0,1,1.3.1l5.8.3h.4c2,.1,4,.1,6.1.2h1.4c2,0,4.1.1,6.1.1,2.4,0,4.8,0,7.2-.1h1c2.3-.1,4.6-.1,6.9-.2a3.75,3.75,0,0,0,1.1-.1c2.3-.1,4.6-.2,6.9-.4a2.2,2.2,0,0,0,.8-.1c5-.3,9.9-.8,14.8-1.3h.2l7.4-.9h.4a348.44,348.44,0,0,0,73.2-18.1A345.59,345.59,0,0,0,719.4,602.2Z" transform="translate(-2.8 -3)"/></g><text id="skills_text-2" data-name="skills text" class="cls-10" transform="translate(199.81 789.41)">Skills</text><text class="cls-11" transform="translate(729.55 792.64)"> </text><text class="cls-10" transform="translate(757.35 792.64)">Se<tspan class="cls-12" x="116.45" y="0">r</tspan><tspan x="160.06" y="0">vices</tspan></text><text id="products_text-2" data-name="products text" class="cls-10" transform="translate(413.61 356.57)"><tspan class="cls-13">P</tspan><tspan class="cls-14" x="61.26" y="0">r</tspan><tspan x="101.26" y="0">oducts</tspan></text><rect class="cls-15" x="1394.6" y="353.3" width="0.7" height="4.1"/></g></g></svg>