<?xml version="1.0" encoding="UTF-8"?>
<svg xmlns="http://www.w3.org/2000/svg" version="1.1" width="100" height="100" viewBox="0 0 100 100"><rect x="0" y="0" width="100" height="100" fill="#ffffff"/><g transform="scale(3.448)"><g transform="translate(0,0)"><path fill-rule="evenodd" d="M8 0L8 4L10 4L10 3L11 3L11 4L12 4L12 2L11 2L11 0ZM12 0L12 1L13 1L13 2L14 2L14 3L13 3L13 5L11 5L11 6L10 6L10 7L9 7L9 5L8 5L8 7L9 7L9 8L10 8L10 7L11 7L11 6L12 6L12 8L11 8L11 9L9 9L9 10L11 10L11 11L10 11L10 13L9 13L9 15L10 15L10 16L9 16L9 17L7 17L7 16L8 16L8 15L7 15L7 14L6 14L6 13L8 13L8 11L7 11L7 10L8 10L8 9L7 9L7 8L4 8L4 9L2 9L2 8L0 8L0 10L1 10L1 11L0 11L0 12L1 12L1 13L0 13L0 18L1 18L1 17L2 17L2 16L4 16L4 17L7 17L7 18L6 18L6 19L8 19L8 20L5 20L5 19L4 19L4 18L2 18L2 19L3 19L3 20L0 20L0 21L4 21L4 20L5 20L5 21L8 21L8 22L9 22L9 23L8 23L8 25L9 25L9 27L8 27L8 29L9 29L9 27L10 27L10 26L11 26L11 28L12 28L12 29L14 29L14 27L16 27L16 26L17 26L17 29L22 29L22 28L24 28L24 29L25 29L25 27L26 27L26 26L27 26L27 29L28 29L28 28L29 28L29 25L28 25L28 23L29 23L29 17L28 17L28 16L29 16L29 13L28 13L28 12L29 12L29 8L25 8L25 9L24 9L24 8L23 8L23 9L22 9L22 10L23 10L23 13L20 13L20 12L19 12L19 9L20 9L20 10L21 10L21 9L20 9L20 8L19 8L19 9L18 9L18 7L19 7L19 6L20 6L20 7L21 7L21 4L20 4L20 3L21 3L21 2L20 2L20 1L18 1L18 2L17 2L17 1L16 1L16 0L15 0L15 1L14 1L14 0ZM15 1L15 2L16 2L16 1ZM9 2L9 3L10 3L10 2ZM18 2L18 3L16 3L16 5L15 5L15 3L14 3L14 5L13 5L13 8L12 8L12 9L11 9L11 10L12 10L12 9L13 9L13 10L14 10L14 9L13 9L13 8L16 8L16 11L14 11L14 13L16 13L16 12L17 12L17 11L18 11L18 10L17 10L17 7L18 7L18 6L17 6L17 7L16 7L16 5L20 5L20 4L18 4L18 3L19 3L19 2ZM14 5L14 7L15 7L15 5ZM4 9L4 10L3 10L3 11L2 11L2 12L5 12L5 13L3 13L3 15L4 15L4 16L7 16L7 15L6 15L6 14L5 14L5 13L6 13L6 12L7 12L7 11L6 11L6 10L7 10L7 9ZM23 9L23 10L24 10L24 13L23 13L23 14L24 14L24 13L26 13L26 14L25 14L25 16L24 16L24 15L23 15L23 16L21 16L21 14L20 14L20 13L19 13L19 12L18 12L18 13L17 13L17 14L16 14L16 16L15 16L15 17L13 17L13 16L14 16L14 15L15 15L15 14L13 14L13 13L12 13L12 12L13 12L13 11L12 11L12 12L11 12L11 13L10 13L10 14L11 14L11 16L10 16L10 17L9 17L9 20L8 20L8 21L9 21L9 22L11 22L11 23L9 23L9 25L10 25L10 24L12 24L12 25L11 25L11 26L12 26L12 25L13 25L13 26L15 26L15 25L16 25L16 24L17 24L17 23L19 23L19 24L18 24L18 25L17 25L17 26L19 26L19 27L18 27L18 28L19 28L19 27L20 27L20 26L21 26L21 27L23 27L23 25L20 25L20 26L19 26L19 24L20 24L20 23L19 23L19 22L20 22L20 20L21 20L21 19L22 19L22 20L26 20L26 21L25 21L25 22L27 22L27 23L25 23L25 25L24 25L24 27L25 27L25 25L27 25L27 26L28 26L28 25L27 25L27 23L28 23L28 20L27 20L27 19L28 19L28 18L27 18L27 15L28 15L28 14L27 14L27 11L28 11L28 10L24 10L24 9ZM4 10L4 11L5 11L5 10ZM21 11L21 12L22 12L22 11ZM1 13L1 14L2 14L2 13ZM18 13L18 14L17 14L17 17L15 17L15 18L13 18L13 17L12 17L12 16L13 16L13 15L12 15L12 16L11 16L11 17L12 17L12 18L10 18L10 19L11 19L11 20L9 20L9 21L11 21L11 20L12 20L12 21L13 21L13 22L15 22L15 23L14 23L14 24L13 24L13 23L12 23L12 24L13 24L13 25L15 25L15 23L17 23L17 21L18 21L18 22L19 22L19 21L18 21L18 20L19 20L19 18L17 18L17 17L18 17L18 15L19 15L19 13ZM26 14L26 15L27 15L27 14ZM19 16L19 17L20 17L20 18L21 18L21 17L20 17L20 16ZM25 16L25 17L24 17L24 19L27 19L27 18L25 18L25 17L26 17L26 16ZM22 17L22 18L23 18L23 17ZM16 18L16 19L17 19L17 18ZM12 19L12 20L13 20L13 19ZM14 19L14 21L15 21L15 19ZM16 20L16 21L17 21L17 20ZM21 21L21 24L24 24L24 21ZM22 22L22 23L23 23L23 22ZM12 27L12 28L13 28L13 27ZM15 28L15 29L16 29L16 28ZM0 0L0 7L7 7L7 0ZM1 1L1 6L6 6L6 1ZM2 2L2 5L5 5L5 2ZM22 0L22 7L29 7L29 0ZM23 1L23 6L28 6L28 1ZM24 2L24 5L27 5L27 2ZM0 22L0 29L7 29L7 22ZM1 23L1 28L6 28L6 23ZM2 24L2 27L5 27L5 24Z" fill="#362659"/></g></g></svg>
