<?xml version="1.0" encoding="UTF-8"?>
<svg xmlns="http://www.w3.org/2000/svg" version="1.1" width="100" height="100" viewBox="0 0 100 100"><rect x="0" y="0" width="100" height="100" fill="#ffffff"/><g transform="scale(3.448)"><g transform="translate(0,0)"><path fill-rule="evenodd" d="M9 0L9 1L8 1L8 3L9 3L9 4L8 4L8 8L6 8L6 9L7 9L7 10L5 10L5 9L4 9L4 8L3 8L3 9L4 9L4 11L5 11L5 12L6 12L6 13L7 13L7 14L6 14L6 15L5 15L5 13L4 13L4 12L3 12L3 10L2 10L2 8L0 8L0 10L1 10L1 11L0 11L0 14L3 14L3 16L4 16L4 17L3 17L3 18L2 18L2 20L5 20L5 21L8 21L8 23L9 23L9 25L8 25L8 26L9 26L9 27L8 27L8 29L9 29L9 28L10 28L10 26L11 26L11 28L12 28L12 29L14 29L14 28L12 28L12 24L14 24L14 25L13 25L13 27L15 27L15 24L14 24L14 23L15 23L15 22L14 22L14 21L16 21L16 22L17 22L17 23L16 23L16 24L17 24L17 27L16 27L16 28L15 28L15 29L16 29L16 28L17 28L17 29L22 29L22 26L23 26L23 28L24 28L24 29L25 29L25 28L26 28L26 26L25 26L25 25L26 25L26 24L27 24L27 26L28 26L28 27L27 27L27 29L28 29L28 27L29 27L29 26L28 26L28 25L29 25L29 24L28 24L28 22L29 22L29 21L27 21L27 20L29 20L29 17L28 17L28 15L29 15L29 14L27 14L27 13L29 13L29 12L28 12L28 10L29 10L29 9L28 9L28 8L26 8L26 9L25 9L25 8L22 8L22 9L21 9L21 8L20 8L20 9L21 9L21 10L19 10L19 11L18 11L18 10L16 10L16 12L17 12L17 15L13 15L13 12L12 12L12 13L10 13L10 16L9 16L9 13L7 13L7 12L8 12L8 11L7 11L7 10L9 10L9 11L11 11L11 10L12 10L12 9L11 9L11 8L10 8L10 7L11 7L11 6L12 6L12 8L13 8L13 6L14 6L14 8L15 8L15 9L14 9L14 10L15 10L15 9L17 9L17 8L18 8L18 7L19 7L19 6L20 6L20 7L21 7L21 4L20 4L20 5L19 5L19 6L18 6L18 5L16 5L16 4L17 4L17 3L18 3L18 4L19 4L19 3L21 3L21 1L20 1L20 0L19 0L19 1L20 1L20 2L18 2L18 1L17 1L17 0L16 0L16 1L15 1L15 0L12 0L12 1L11 1L11 2L9 2L9 1L10 1L10 0ZM16 1L16 2L17 2L17 1ZM14 2L14 3L15 3L15 2ZM12 3L12 4L9 4L9 5L10 5L10 6L9 6L9 7L10 7L10 6L11 6L11 5L12 5L12 6L13 6L13 3ZM15 6L15 8L17 8L17 7L18 7L18 6L17 6L17 7L16 7L16 6ZM8 8L8 9L9 9L9 10L10 10L10 8ZM24 9L24 10L23 10L23 12L24 12L24 15L22 15L22 14L23 14L23 13L22 13L22 12L18 12L18 11L17 11L17 12L18 12L18 17L17 17L17 16L15 16L15 17L13 17L13 16L12 16L12 14L11 14L11 16L12 16L12 17L10 17L10 18L7 18L7 17L6 17L6 18L7 18L7 19L5 19L5 18L4 18L4 19L5 19L5 20L7 20L7 19L9 19L9 20L8 20L8 21L9 21L9 23L10 23L10 25L11 25L11 23L10 23L10 22L11 22L11 21L9 21L9 20L11 20L11 19L12 19L12 20L13 20L13 21L14 21L14 20L15 20L15 19L19 19L19 20L17 20L17 21L18 21L18 22L19 22L19 23L20 23L20 21L19 21L19 20L21 20L21 19L20 19L20 17L23 17L23 18L22 18L22 20L25 20L25 23L27 23L27 22L26 22L26 20L27 20L27 18L28 18L28 17L27 17L27 15L26 15L26 13L27 13L27 12L26 12L26 13L25 13L25 11L24 11L24 10L25 10L25 9ZM26 9L26 10L28 10L28 9ZM6 11L6 12L7 12L7 11ZM14 11L14 12L15 12L15 11ZM2 12L2 13L3 13L3 12ZM19 13L19 14L20 14L20 13ZM1 15L1 16L0 16L0 17L1 17L1 16L2 16L2 15ZM4 15L4 16L5 16L5 15ZM6 15L6 16L7 16L7 15ZM19 15L19 17L18 17L18 18L19 18L19 17L20 17L20 15ZM21 15L21 16L22 16L22 15ZM24 15L24 16L25 16L25 17L26 17L26 15ZM8 16L8 17L9 17L9 16ZM16 17L16 18L17 18L17 17ZM0 18L0 19L1 19L1 18ZM10 18L10 19L11 19L11 18ZM13 18L13 20L14 20L14 18ZM23 18L23 19L24 19L24 18ZM25 18L25 19L26 19L26 18ZM0 20L0 21L1 21L1 20ZM21 21L21 24L24 24L24 21ZM22 22L22 23L23 23L23 22ZM17 23L17 24L18 24L18 25L19 25L19 26L18 26L18 28L20 28L20 24L18 24L18 23ZM23 25L23 26L24 26L24 25ZM0 0L0 7L7 7L7 0ZM1 1L1 6L6 6L6 1ZM2 2L2 5L5 5L5 2ZM22 0L22 7L29 7L29 0ZM23 1L23 6L28 6L28 1ZM24 2L24 5L27 5L27 2ZM0 22L0 29L7 29L7 22ZM1 23L1 28L6 28L6 23ZM2 24L2 27L5 27L5 24Z" fill="#362659"/></g></g></svg>
