<?xml version="1.0" encoding="UTF-8"?>
<svg xmlns="http://www.w3.org/2000/svg" version="1.1" width="100" height="100" viewBox="0 0 100 100"><rect x="0" y="0" width="100" height="100" fill="#ffffff"/><g transform="scale(3.448)"><g transform="translate(0,0)"><path fill-rule="evenodd" d="M10 0L10 2L11 2L11 0ZM12 0L12 1L13 1L13 2L12 2L12 4L13 4L13 3L14 3L14 4L18 4L18 3L19 3L19 5L15 5L15 6L14 6L14 8L15 8L15 6L16 6L16 8L17 8L17 10L15 10L15 9L12 9L12 7L13 7L13 5L11 5L11 6L10 6L10 4L11 4L11 3L8 3L8 4L9 4L9 5L8 5L8 7L9 7L9 8L6 8L6 9L8 9L8 11L9 11L9 9L10 9L10 11L11 11L11 9L12 9L12 10L13 10L13 11L12 11L12 13L13 13L13 12L14 12L14 13L16 13L16 14L15 14L15 15L14 15L14 16L15 16L15 17L12 17L12 15L13 15L13 14L11 14L11 15L10 15L10 16L11 16L11 17L9 17L9 15L8 15L8 13L11 13L11 12L8 12L8 13L7 13L7 12L6 12L6 11L7 11L7 10L6 10L6 11L4 11L4 9L5 9L5 8L0 8L0 16L1 16L1 17L0 17L0 21L1 21L1 17L4 17L4 18L3 18L3 19L2 19L2 21L4 21L4 20L6 20L6 21L7 21L7 20L6 20L6 19L7 19L7 18L9 18L9 19L8 19L8 23L9 23L9 24L8 24L8 29L11 29L11 28L10 28L10 26L9 26L9 24L11 24L11 25L12 25L12 26L13 26L13 27L12 27L12 29L13 29L13 28L14 28L14 29L15 29L15 28L14 28L14 27L16 27L16 28L17 28L17 29L19 29L19 28L22 28L22 27L23 27L23 26L24 26L24 27L26 27L26 26L24 26L24 25L27 25L27 28L24 28L24 29L27 29L27 28L28 28L28 26L29 26L29 25L27 25L27 24L28 24L28 23L27 23L27 22L29 22L29 20L28 20L28 19L27 19L27 16L28 16L28 15L27 15L27 12L28 12L28 11L27 11L27 12L25 12L25 9L26 9L26 8L25 8L25 9L24 9L24 8L23 8L23 9L22 9L22 8L20 8L20 9L18 9L18 8L19 8L19 5L20 5L20 3L21 3L21 0L19 0L19 1L18 1L18 3L14 3L14 2L16 2L16 0L15 0L15 1L14 1L14 0ZM8 1L8 2L9 2L9 1ZM19 1L19 2L20 2L20 1ZM9 6L9 7L10 7L10 6ZM11 6L11 7L12 7L12 6ZM17 6L17 8L18 8L18 6ZM20 6L20 7L21 7L21 6ZM10 8L10 9L11 9L11 8ZM27 8L27 9L28 9L28 10L29 10L29 9L28 9L28 8ZM1 9L1 10L2 10L2 11L1 11L1 12L4 12L4 11L3 11L3 10L2 10L2 9ZM20 9L20 10L18 10L18 11L17 11L17 12L18 12L18 13L17 13L17 16L16 16L16 17L15 17L15 18L16 18L16 17L17 17L17 19L16 19L16 20L15 20L15 19L14 19L14 20L13 20L13 21L12 21L12 19L13 19L13 18L12 18L12 17L11 17L11 18L10 18L10 19L9 19L9 20L11 20L11 22L9 22L9 23L11 23L11 22L13 22L13 23L12 23L12 25L15 25L15 26L16 26L16 25L15 25L15 24L16 24L16 23L17 23L17 24L18 24L18 25L17 25L17 28L18 28L18 27L20 27L20 23L17 23L17 22L18 22L18 21L19 21L19 20L21 20L21 19L22 19L22 18L21 18L21 17L20 17L20 16L21 16L21 14L22 14L22 17L23 17L23 18L24 18L24 19L25 19L25 21L26 21L26 20L27 20L27 19L25 19L25 18L24 18L24 17L26 17L26 16L27 16L27 15L26 15L26 13L25 13L25 12L24 12L24 9L23 9L23 12L22 12L22 13L20 13L20 12L21 12L21 11L22 11L22 10L21 10L21 9ZM14 11L14 12L16 12L16 11ZM5 12L5 13L4 13L4 14L3 14L3 16L4 16L4 15L5 15L5 16L7 16L7 15L5 15L5 14L7 14L7 13L6 13L6 12ZM23 12L23 13L22 13L22 14L23 14L23 13L24 13L24 14L25 14L25 13L24 13L24 12ZM18 13L18 14L20 14L20 13ZM28 13L28 14L29 14L29 13ZM1 14L1 16L2 16L2 14ZM18 15L18 16L17 16L17 17L18 17L18 16L19 16L19 15ZM23 15L23 16L24 16L24 15ZM5 17L5 18L4 18L4 19L5 19L5 18L7 18L7 17ZM19 17L19 18L20 18L20 17ZM28 17L28 18L29 18L29 17ZM14 20L14 21L15 21L15 20ZM17 20L17 21L16 21L16 22L15 22L15 23L14 23L14 24L15 24L15 23L16 23L16 22L17 22L17 21L18 21L18 20ZM21 21L21 24L24 24L24 21ZM22 22L22 23L23 23L23 22ZM25 23L25 24L27 24L27 23ZM22 25L22 26L21 26L21 27L22 27L22 26L23 26L23 25ZM0 0L0 7L7 7L7 0ZM1 1L1 6L6 6L6 1ZM2 2L2 5L5 5L5 2ZM22 0L22 7L29 7L29 0ZM23 1L23 6L28 6L28 1ZM24 2L24 5L27 5L27 2ZM0 22L0 29L7 29L7 22ZM1 23L1 28L6 28L6 23ZM2 24L2 27L5 27L5 24Z" fill="#362659"/></g></g></svg>
